<svg width="212" height="121" viewBox="0 0 212 121" fill="none" xmlns="http://www.w3.org/2000/svg">
<path d="M9.6347 81.168L0.708118 50.2683H3.99121L11.2226 75.782L18.4111 50.2897L21.7156 50.2683L28.947 75.782L36.1355 50.2683H39.44L30.5349 81.168H27.3591L20.0634 55.8259L12.8105 81.168H9.6347ZM50.2754 81.8117C47.9722 81.8117 46.0052 81.2896 44.3744 80.2453C42.7436 79.201 41.4919 77.7561 40.6192 75.9107C39.7466 74.0653 39.3103 71.9481 39.3103 69.5591C39.3103 67.1272 39.7538 64.9957 40.6407 63.1646C41.5276 61.3335 42.7865 59.9101 44.4173 58.8944C46.0624 57.8644 48.0151 57.3494 50.2754 57.3494C52.5929 57.3494 54.567 57.8716 56.1978 58.9159C57.843 59.9459 59.0947 61.3836 59.953 63.229C60.8256 65.0601 61.262 67.1701 61.262 69.5591C61.262 71.991 60.8256 74.1297 59.953 75.9751C59.0804 77.8062 57.8215 79.2367 56.1764 80.2667C54.5313 81.2967 52.5643 81.8117 50.2754 81.8117ZM50.2754 78.7861C52.8504 78.7861 54.7673 77.9349 56.0262 76.2326C57.2851 74.5159 57.9145 72.2915 57.9145 69.5591C57.9145 66.7553 57.2779 64.5236 56.0047 62.8642C54.7458 61.2048 52.8361 60.375 50.2754 60.375C48.5444 60.375 47.1139 60.7684 45.9838 61.5552C44.8679 62.3277 44.0311 63.4078 43.4732 64.7954C42.9296 66.1687 42.6578 67.7566 42.6578 69.5591C42.6578 72.3487 43.3015 74.5875 44.589 76.2755C45.8765 77.9492 47.7719 78.7861 50.2754 78.7861ZM66.4246 81.168V49.6245H69.579V81.168H66.4246ZM78.3081 81.168V56.2765C78.3081 55.6757 78.3367 55.082 78.3939 54.4955C78.4655 53.909 78.6014 53.3511 78.8016 52.8218C79.0019 52.2782 79.3166 51.7775 79.7458 51.3197C80.2179 50.8047 80.7329 50.4328 81.2908 50.2039C81.8487 49.9607 82.4281 49.8033 83.0289 49.7318C83.644 49.6603 84.2448 49.6245 84.8314 49.6245H87.7926V52.2853H85.0459C83.8443 52.2853 82.943 52.5786 82.3422 53.1651C81.7557 53.7516 81.4624 54.6743 81.4624 55.9332V81.168H78.3081ZM74.2954 60.6969V57.9932H87.7926V60.6969H74.2954ZM99.8732 81.7903C97.1551 81.7903 94.9163 81.2037 93.1568 80.0307C91.4115 78.8576 90.3386 77.2268 89.9381 75.1382L93.1568 74.6018C93.5001 75.9179 94.2798 76.9693 95.4957 77.7561C96.726 78.5286 98.2424 78.9149 100.045 78.9149C101.804 78.9149 103.192 78.5501 104.208 77.8205C105.223 77.0766 105.731 76.0681 105.731 74.7949C105.731 74.0796 105.567 73.5003 105.238 73.0568C104.923 72.599 104.272 72.177 103.285 71.7908C102.298 71.4045 100.824 70.9467 98.8646 70.4174C96.7617 69.8452 95.1166 69.273 93.9293 68.7008C92.7419 68.1286 91.8979 67.4705 91.3972 66.7266C90.8965 65.9685 90.6462 65.0458 90.6462 63.9585C90.6462 62.6424 91.0181 61.4909 91.762 60.5038C92.5059 59.5024 93.5359 58.7299 94.852 58.1863C96.1681 57.6284 97.6988 57.3494 99.444 57.3494C101.189 57.3494 102.749 57.6356 104.122 58.2078C105.51 58.7657 106.625 59.5525 107.469 60.5682C108.313 61.5838 108.814 62.764 108.971 64.1088L105.753 64.6881C105.538 63.3291 104.859 62.2562 103.714 61.4694C102.584 60.6683 101.146 60.2534 99.4011 60.2248C97.756 60.1819 96.4184 60.4966 95.3884 61.169C94.3584 61.827 93.8434 62.7068 93.8434 63.8083C93.8434 64.4235 94.0294 64.9528 94.4014 65.3962C94.7733 65.8254 95.4457 66.2331 96.4184 66.6194C97.4055 67.0056 98.8074 67.4276 100.624 67.8854C102.756 68.429 104.429 69.0012 105.645 69.602C106.861 70.2029 107.727 70.911 108.242 71.7264C108.757 72.5418 109.014 73.5503 109.014 74.752C109.014 76.9407 108.199 78.6645 106.568 79.9234C104.952 81.168 102.72 81.7903 99.8732 81.7903ZM124.661 81.168V56.2765C124.661 55.6757 124.69 55.082 124.747 54.4955C124.818 53.909 124.954 53.3511 125.155 52.8218C125.355 52.2782 125.67 51.7775 126.099 51.3197C126.571 50.8047 127.086 50.4328 127.644 50.2039C128.202 49.9607 128.781 49.8033 129.382 49.7318C129.997 49.6603 130.598 49.6245 131.184 49.6245H134.145V52.2853H131.399C130.197 52.2853 129.296 52.5786 128.695 53.1651C128.109 53.7516 127.815 54.6743 127.815 55.9332V81.168H124.661ZM120.648 60.6969V57.9932H134.145V60.6969H120.648ZM137.578 81.168V57.9932H140.411V63.5723L139.853 62.8427C140.111 62.1561 140.447 61.5266 140.862 60.9544C141.276 60.3679 141.727 59.8887 142.213 59.5167C142.814 58.9874 143.515 58.5869 144.316 58.3151C145.117 58.029 145.926 57.8644 146.741 57.8215C147.556 57.7643 148.3 57.8215 148.973 57.9932V60.9544C148.129 60.7398 147.206 60.6898 146.205 60.8042C145.203 60.9186 144.281 61.3192 143.437 62.0059C142.664 62.6067 142.085 63.3291 141.698 64.1731C141.312 65.0028 141.055 65.8898 140.926 66.8339C140.797 67.7638 140.733 68.6865 140.733 69.602V81.168H137.578ZM162.302 81.8117C159.999 81.8117 158.032 81.2896 156.401 80.2453C154.77 79.201 153.518 77.7561 152.646 75.9107C151.773 74.0653 151.337 71.9481 151.337 69.5591C151.337 67.1272 151.78 64.9957 152.667 63.1646C153.554 61.3335 154.813 59.9101 156.444 58.8944C158.089 57.8644 160.042 57.3494 162.302 57.3494C164.619 57.3494 166.594 57.8716 168.224 58.9159C169.869 59.9459 171.121 61.3836 171.98 63.229C172.852 65.0601 173.288 67.1701 173.288 69.5591C173.288 71.991 172.852 74.1297 171.98 75.9751C171.107 77.8062 169.848 79.2367 168.203 80.2667C166.558 81.2967 164.591 81.8117 162.302 81.8117ZM162.302 78.7861C164.877 78.7861 166.794 77.9349 168.053 76.2326C169.312 74.5159 169.941 72.2915 169.941 69.5591C169.941 66.7553 169.304 64.5236 168.031 62.8642C166.772 61.2048 164.863 60.375 162.302 60.375C160.571 60.375 159.14 60.7684 158.01 61.5552C156.894 62.3277 156.058 63.4078 155.5 64.7954C154.956 66.1687 154.684 67.7566 154.684 69.5591C154.684 72.3487 155.328 74.5875 156.616 76.2755C157.903 77.9492 159.798 78.7861 162.302 78.7861ZM205.66 81.168L205.682 65.9542C205.682 64.166 205.181 62.764 204.179 61.7484C203.192 60.7184 201.934 60.2034 200.403 60.2034C199.53 60.2034 198.679 60.4037 197.849 60.8042C197.02 61.2048 196.333 61.8485 195.789 62.7354C195.26 63.6224 194.995 64.7811 194.995 66.2117L193.129 65.6752C193.086 64.0158 193.407 62.5638 194.094 61.3192C194.795 60.0746 195.754 59.109 196.97 58.4223C198.2 57.7214 199.587 57.3709 201.132 57.3709C203.464 57.3709 205.331 58.0933 206.733 59.5382C208.135 60.9687 208.836 62.9071 208.836 65.3533L208.814 81.168H205.66ZM178.001 81.168V57.9932H180.833V63.7011H181.176V81.168H178.001ZM191.863 81.168L191.884 66.1687C191.884 64.3233 191.39 62.8713 190.403 61.8127C189.431 60.7398 188.143 60.2034 186.541 60.2034C184.939 60.2034 183.644 60.7541 182.657 61.8557C181.67 62.9429 181.176 64.3949 181.176 66.2117L179.288 65.1817C179.288 63.6939 179.639 62.3635 180.339 61.1904C181.04 60.0031 181.999 59.0732 183.215 58.4009C184.431 57.7142 185.811 57.3709 187.356 57.3709C188.83 57.3709 190.139 57.6856 191.283 58.3151C192.442 58.9445 193.35 59.86 194.008 61.0617C194.666 62.2634 194.995 63.7225 194.995 65.4392L194.974 81.168H191.863Z" fill="white"/>
<rect x="23.2461" y="90.0049" width="164.512" height="30.9951" fill="black"/>
<path d="M33.8172 111.985L30.0978 99.1105H31.4657L34.4788 109.741L37.474 99.1194L38.8509 99.1105L41.864 109.741L44.8592 99.1105H46.2361L42.5256 111.985H41.2024L38.1625 101.426L35.1404 111.985H33.8172ZM49.5663 111.985L54.001 99.1105H55.7444L60.1791 111.985H58.8112L54.6 99.8436H55.1186L50.9342 111.985H49.5663ZM51.5422 108.865V107.631H58.1942V108.865H51.5422ZM65.9065 111.985V99.1105H67.2208V110.725H73.3363V111.985H65.9065ZM78.9734 111.985V99.1105H80.2877V110.725H86.4033V111.985H78.9734ZM101.882 113.747V111.708H103.197V113.747H101.882ZM101.882 99.3787V97.3312H103.197V99.3787H101.882ZM102.696 112.254C101.844 112.254 101.075 112.102 100.389 111.798C99.7097 111.494 99.1464 111.064 98.6994 110.51C98.2583 109.956 97.9692 109.3 97.8321 108.543L99.1107 108.32C99.3074 109.142 99.7306 109.795 100.38 110.278C101.036 110.754 101.826 110.993 102.75 110.993C103.685 110.993 104.442 110.766 105.021 110.313C105.599 109.854 105.888 109.255 105.888 108.516C105.888 107.968 105.727 107.53 105.405 107.202C105.083 106.874 104.538 106.594 103.769 106.362L100.908 105.467C99.1792 104.925 98.3149 103.9 98.3149 102.392C98.3149 101.688 98.4878 101.072 98.8335 100.541C99.1852 100.005 99.671 99.5873 100.291 99.2893C100.917 98.9913 101.647 98.8452 102.481 98.8512C103.298 98.8512 104.028 99.0062 104.672 99.3161C105.322 99.6201 105.855 100.052 106.272 100.613C106.69 101.173 106.967 101.837 107.104 102.606L105.79 102.857C105.706 102.308 105.512 101.829 105.208 101.417C104.91 101.006 104.526 100.687 104.055 100.461C103.584 100.228 103.06 100.109 102.481 100.103C101.933 100.103 101.444 100.198 101.015 100.389C100.586 100.58 100.246 100.845 99.9958 101.185C99.7514 101.519 99.6293 101.903 99.6293 102.338C99.6293 102.815 99.7991 103.22 100.139 103.554C100.485 103.882 101.03 104.159 101.775 104.386L104.234 105.128C105.271 105.438 106.019 105.855 106.478 106.379C106.937 106.904 107.166 107.604 107.166 108.481C107.166 109.238 106.982 109.899 106.612 110.465C106.243 111.032 105.721 111.473 105.047 111.789C104.38 112.099 103.596 112.254 102.696 112.254ZM116.373 111.985V100.371H111.876V99.1105H122.185V100.371H117.687V111.985H116.373ZM127.552 111.985V99.1105H132.524C132.649 99.1105 132.789 99.1164 132.944 99.1284C133.105 99.1343 133.266 99.1522 133.427 99.182C134.1 99.2833 134.669 99.5188 135.134 99.8883C135.605 100.252 135.96 100.711 136.198 101.265C136.443 101.82 136.565 102.434 136.565 103.107C136.565 104.079 136.309 104.922 135.796 105.637C135.283 106.353 134.55 106.803 133.597 106.987L133.141 107.095H128.867V111.985H127.552ZM135.349 111.985L132.81 106.746L134.07 106.263L136.86 111.985H135.349ZM128.867 105.843H132.488C132.595 105.843 132.72 105.837 132.863 105.825C133.006 105.813 133.146 105.792 133.284 105.762C133.725 105.667 134.085 105.485 134.365 105.217C134.652 104.949 134.863 104.63 135 104.26C135.143 103.891 135.215 103.506 135.215 103.107C135.215 102.708 135.143 102.323 135 101.954C134.863 101.578 134.652 101.256 134.365 100.988C134.085 100.72 133.725 100.538 133.284 100.443C133.146 100.413 133.006 100.395 132.863 100.389C132.72 100.377 132.595 100.371 132.488 100.371H128.867V105.843ZM142.767 111.985V99.1105H150.814V100.371H144.082V104.824H149.741V106.084H144.082V110.725H150.814V111.985H142.767ZM156.9 111.985V99.1105H164.946V100.371H158.214V104.824H163.873V106.084H158.214V110.725H164.946V111.985H156.9ZM174.456 111.985V100.371H169.959V99.1105H180.268V100.371H175.77V111.985H174.456Z" fill="white"/>
<rect x="25.7789" y="91.942" width="159.446" height="27.1207" stroke="white" stroke-width="0.29803"/>
<rect x="-0.0330049" y="1.2394" width="25.8554" height="26.575" transform="matrix(0.840011 0.542569 -0.867697 0.497093 107.858 0.64121)" stroke="white" stroke-width="2.38424"/>
<rect x="-0.0330049" y="1.2394" width="25.8554" height="26.575" transform="matrix(0.840011 0.542569 -0.867697 0.497093 107.858 7.76621)" stroke="white" stroke-width="2.38424"/>
<rect x="-0.0330049" y="1.2394" width="25.8554" height="26.575" transform="matrix(0.840011 0.542569 -0.867697 0.497093 107.858 15.1334)" stroke="white" stroke-width="2.38424"/>
<rect x="106.494" y="83.792" width="1.78818" height="22.5034" transform="rotate(45 106.494 83.792)" fill="#FFA500"/>
<rect x="111.228" y="88.5244" width="1.78818" height="6.69473" transform="rotate(135 111.228 88.5244)" fill="#FFA500"/>
<rect x="109.997" y="89.7559" width="1.78818" height="14.7187" transform="rotate(-135 109.997 89.7559)" fill="#FFA500"/>
<path d="M119.764 82.8702L119.388 79.1516L115.668 79.5204L115.554 78.3767L120.42 77.8889L120.908 82.7556L119.764 82.8702Z" fill="#FFA500"/>
</svg>
