<svg width="194" height="255" viewBox="0 0 194 255" fill="none" xmlns="http://www.w3.org/2000/svg">
<g clip-path="url(#clip0_78_1124)">
<path d="M35.8609 248.29C21.145 248.29 9.21386 236.271 9.21386 221.448L9.21387 33.553C9.21387 18.7295 21.1451 6.71094 35.8609 6.71094L62.5079 6.71094L62.5078 248.29L35.8609 248.29Z" fill="#DD2E44"/>
<path d="M62.5078 248.29L62.5078 6.71094L129.125 6.71094L129.125 248.29L62.5078 248.29Z" fill="#3B88C3"/>
<path d="M182.419 221.448L182.419 33.553C182.419 18.7295 170.488 6.71094 155.772 6.71094L129.125 6.71094L129.125 248.29L155.772 248.29C170.488 248.29 182.419 236.271 182.419 221.448Z" fill="#EEEEEE"/>
</g>
<defs>
<clipPath id="clip0_78_1124">
<rect width="255" height="194" fill="white" transform="translate(194) rotate(90)"/>
</clipPath>
</defs>
</svg>
