<svg width="174" height="260" viewBox="0 0 174 260" fill="none" xmlns="http://www.w3.org/2000/svg">
<g clip-path="url(#clip0_78_1129)">
<path d="M173.316 260L173.316 0L0.68454 -7.54597e-06L0.684528 260L173.316 260Z" fill="#F0F0F0"/>
<path d="M151.739 260L151.739 0L130.162 -9.43155e-07L130.162 260L151.739 260Z" fill="#D80027"/>
<path d="M108.58 260L108.58 0L87.0032 -9.43156e-07L87.0032 260L108.58 260Z" fill="#D80027"/>
<path d="M65.4266 260L65.4266 0L43.8497 -9.43156e-07L43.8497 260L65.4266 260Z" fill="#D80027"/>
<path d="M22.2665 260L22.2665 0L0.689606 -9.43155e-07L0.689594 260L22.2665 260Z" fill="#D80027"/>
<path d="M173.316 130L173.316 0L80.3606 -4.06322e-06L80.3606 130L173.316 130Z" fill="#2E52B2"/>
<path d="M135.236 50.6911L128.821 48.5974L128.821 41.8252L124.859 47.305L118.444 45.2113L122.407 50.6911L118.444 56.1673L124.859 54.0741L128.821 59.5539L128.821 52.7812L135.236 50.6911Z" fill="#F0F0F0"/>
<path d="M105.672 52.7812L112.087 50.6911L105.672 48.5974L105.672 41.8252L101.709 47.305L95.295 45.2113L99.258 50.6911L95.295 56.1673L101.709 54.0741L105.672 59.5539L105.672 52.7812Z" fill="#F0F0F0"/>
<path d="M105.672 24.1607L112.087 22.07L105.672 19.9763L105.672 13.2041L101.709 18.6839L95.295 16.5902L99.258 22.07L95.295 27.5468L101.709 25.4536L105.672 30.9323L105.672 24.1607Z" fill="#F0F0F0"/>
<path d="M135.236 22.07L128.821 19.9763L128.821 13.2041L124.859 18.6839L118.444 16.5902L122.407 22.07L118.444 27.5468L124.859 25.4536L128.821 30.9323L128.821 24.1607L135.236 22.07Z" fill="#F0F0F0"/>
<path d="M158.387 50.6911L151.972 48.5974L151.972 41.8252L148.009 47.305L141.594 45.2113L145.557 50.6911L141.594 56.1673L148.009 54.0741L151.972 59.5539L151.972 52.7812L158.387 50.6911Z" fill="#F0F0F0"/>
<path d="M158.387 22.07L151.972 19.9763L151.972 13.2041L148.009 18.6839L141.594 16.5902L145.557 22.07L141.594 27.5468L148.009 25.4536L151.972 30.9323L151.972 24.1607L158.387 22.07Z" fill="#F0F0F0"/>
<path d="M135.236 79.3117L128.821 77.2185L128.821 70.4463L124.859 75.9256L118.444 73.8329L122.407 79.3117L118.444 84.7889L124.859 82.6952L128.821 88.175L128.821 81.4028L135.236 79.3117Z" fill="#F0F0F0"/>
<path d="M105.672 81.4028L112.087 79.3117L105.672 77.2185L105.672 70.4463L101.709 75.9256L95.295 73.8329L99.258 79.3117L95.295 84.7889L101.709 82.6952L105.672 88.175L105.672 81.4028Z" fill="#F0F0F0"/>
<path d="M105.672 110.024L112.087 107.934L105.672 105.84L105.672 99.0684L101.709 104.547L95.295 102.454L99.258 107.934L95.295 113.41L101.709 111.317L105.672 116.797L105.672 110.024Z" fill="#F0F0F0"/>
<path d="M135.236 107.934L128.821 105.84L128.821 99.0684L124.859 104.547L118.444 102.454L122.407 107.934L118.444 113.41L124.859 111.317L128.821 116.797L128.821 110.024L135.236 107.934Z" fill="#F0F0F0"/>
<path d="M158.387 79.3117L151.972 77.2185L151.972 70.4463L148.009 75.9256L141.594 73.8329L145.557 79.3117L141.594 84.7889L148.009 82.6952L151.972 88.175L151.972 81.4028L158.387 79.3117Z" fill="#F0F0F0"/>
<path d="M158.387 107.934L151.972 105.84L151.972 99.0684L148.009 104.547L141.594 102.454L145.557 107.934L141.594 113.41L148.009 111.317L151.972 116.797L151.972 110.024L158.387 107.934Z" fill="#F0F0F0"/>
</g>
<defs>
<clipPath id="clip0_78_1129">
<rect width="260" height="174" fill="white" transform="translate(174) rotate(90)"/>
</clipPath>
</defs>
</svg>
