<svg width="32" height="32" viewBox="0 0 32 32" fill="none" xmlns="http://www.w3.org/2000/svg">
<rect width="32" height="32" fill="white"/>
<rect width="32" height="32" fill="black"/>
<path d="M10.1225 24L9.0825 20.4H9.465L10.3075 23.3725L11.145 20.4025L11.53 20.4L12.3725 23.3725L13.21 20.4H13.595L12.5575 24H12.1875L11.3375 21.0475L10.4925 24H10.1225ZM14.0277 24V20.4H16.0952V20.7675H14.3952V22.0175H15.7952V22.3825H14.3952V24H14.0277ZM17.3198 24L16.2798 20.4H16.6623L17.5048 23.3725L18.3423 20.4025L18.7273 20.4L19.5698 23.3725L20.4073 20.4H20.7923L19.7548 24H19.3848L18.5348 21.0475L17.6898 24H17.3198ZM22.3773 24.075C22.1257 24.075 21.899 24.0333 21.6973 23.95C21.4973 23.865 21.3315 23.745 21.1998 23.59C21.0698 23.435 20.9848 23.2508 20.9448 23.0375L21.3198 22.975C21.3798 23.2083 21.5065 23.3917 21.6998 23.525C21.8932 23.6567 22.124 23.7225 22.3923 23.7225C22.569 23.7225 22.7273 23.695 22.8673 23.64C23.0073 23.5833 23.1173 23.5033 23.1973 23.4C23.2773 23.2967 23.3173 23.1742 23.3173 23.0325C23.3173 22.9392 23.3007 22.86 23.2673 22.795C23.234 22.7283 23.1898 22.6733 23.1348 22.63C23.0798 22.5867 23.0198 22.5508 22.9548 22.5225C22.8898 22.4925 22.8265 22.4683 22.7648 22.45L21.8523 22.1775C21.7423 22.1458 21.6407 22.1058 21.5473 22.0575C21.454 22.0075 21.3723 21.9483 21.3023 21.88C21.234 21.81 21.1807 21.7283 21.1423 21.635C21.104 21.5417 21.0848 21.435 21.0848 21.315C21.0848 21.1117 21.1382 20.9358 21.2448 20.7875C21.3515 20.6392 21.4973 20.525 21.6823 20.445C21.8673 20.365 22.0782 20.3258 22.3148 20.3275C22.5548 20.3275 22.769 20.37 22.9573 20.455C23.1473 20.54 23.304 20.6617 23.4273 20.82C23.5507 20.9767 23.6323 21.1625 23.6723 21.3775L23.2873 21.4475C23.2623 21.2908 23.2048 21.155 23.1148 21.04C23.0248 20.925 22.9098 20.8367 22.7698 20.775C22.6315 20.7117 22.479 20.6792 22.3123 20.6775C22.1507 20.6775 22.0065 20.705 21.8798 20.76C21.7548 20.8133 21.6557 20.8867 21.5823 20.98C21.509 21.0733 21.4723 21.18 21.4723 21.3C21.4723 21.4217 21.5057 21.5192 21.5723 21.5925C21.6407 21.6658 21.724 21.7233 21.8223 21.765C21.9223 21.8067 22.019 21.8408 22.1123 21.8675L22.8173 22.075C22.8907 22.095 22.9765 22.1242 23.0748 22.1625C23.1748 22.1992 23.2715 22.2525 23.3648 22.3225C23.4598 22.3908 23.5382 22.4808 23.5998 22.5925C23.6615 22.7042 23.6923 22.8458 23.6923 23.0175C23.6923 23.1842 23.659 23.3333 23.5923 23.465C23.5273 23.5967 23.4348 23.7075 23.3148 23.7975C23.1965 23.8875 23.0573 23.9558 22.8973 24.0025C22.739 24.0508 22.5657 24.075 22.3773 24.075Z" fill="white"/>
<rect x="-0.013843" y="0.519831" width="6.66524" height="6.86057" transform="matrix(0.840011 0.542569 -0.867697 0.497093 17.2694 6.26894)" stroke="white"/>
<rect x="-0.013843" y="0.519831" width="6.66524" height="6.86057" transform="matrix(0.840011 0.542569 -0.867697 0.497093 17.2694 8.20302)" stroke="white"/>
<rect x="-0.013843" y="0.519831" width="6.66524" height="6.86057" transform="matrix(0.840011 0.542569 -0.867697 0.497093 17.2694 10.2025)" stroke="white"/>
<rect x="16.2859" y="10.6885" width="0.594023" height="7.4755" transform="rotate(45 16.2859 10.6885)" fill="#FFA500"/>
<rect x="17.8584" y="12.2607" width="0.594023" height="2.22395" transform="rotate(135 17.8584 12.2607)" fill="#FFA500"/>
<rect x="17.4497" y="12.6694" width="0.594023" height="4.88947" transform="rotate(-135 17.4497 12.6694)" fill="#FFA500"/>
<path d="M20.6943 10.3819L20.5691 9.14657L19.3335 9.26907L19.2954 8.88914L20.9121 8.72709L21.0742 10.3438L20.6943 10.3819Z" fill="#FFA500"/>
<rect x="1.5" y="1.5" width="29" height="29" stroke="white"/>
</svg>
