<svg width="501" height="334" viewBox="0 0 501 334" fill="none" xmlns="http://www.w3.org/2000/svg">
<path d="M334.184 332.815C350.434 327.735 365.014 322.545 382.554 312.695C400.644 302.535 481.004 254.185 491.454 170.505C494.192 147.571 491.92 124.316 484.794 102.345C481.564 92.8754 474.864 73.8554 457.954 55.0454C437.254 32.0054 413.634 23.0754 399.784 18.0254C370.644 7.3954 346.204 7.9554 334.564 8.3354C322.004 8.7454 299.834 9.6654 274.634 20.6754C258.194 27.8554 247.974 36.0454 232.914 48.2854C209.054 67.6954 205.914 75.7754 164.174 115.855C152.714 126.855 143.294 135.525 128.914 144.065C118.944 149.985 110.884 153.295 96.0144 159.335C59.4644 174.185 49.0578 177.192 37.0978 185.552C13.8378 201.822 15.3444 219.565 14.3444 223.385C11.744 233.155 11.142 243.348 12.5744 253.355C15.6244 273.425 26.4344 286.545 33.1444 294.485C42.3548 305.285 53.5158 314.255 66.0444 320.925C74.742 325.514 83.7507 329.487 93.0044 332.815H334.184Z" fill="#EFEDEF"/>
<path d="M273.122 14.0166C299.368 2.55636 322.458 1.58951 335.549 1.16402C347.665 0.770265 373.123 0.189025 403.484 11.2625C417.91 16.524 442.51 25.8258 464.075 49.8202C481.682 69.4125 488.661 89.2269 492.024 99.0883C499.443 121.973 501.81 146.195 498.96 170.083C488.081 257.251 404.373 307.609 385.531 318.194" stroke="#6A8D99" stroke-miterlimit="10"/>
<path d="M345.921 332.325H311.491L306.961 279.436H350.451L345.921 332.325Z" fill="#FFE3CB"/>
<path d="M311.49 332.325C314.163 323.446 316.941 314.601 319.734 305.762C321.111 301.336 322.556 296.932 323.97 292.518L328.23 279.281C328.263 279.181 328.326 279.093 328.411 279.031C328.497 278.969 328.6 278.936 328.705 278.936C328.811 278.936 328.914 278.969 328.999 279.031C329.084 279.093 329.148 279.181 329.18 279.281L333.442 292.517C334.854 296.932 336.302 301.335 337.678 305.761L341.849 319.027L345.92 332.325L341.383 319.178L336.947 305.999C335.455 301.611 334.033 297.199 332.576 292.799L328.23 279.591H329.18L324.833 292.799C323.377 297.199 321.953 301.61 320.462 305.999C317.517 314.789 314.555 323.574 311.49 332.325Z" fill="#904D24"/>
<path d="M306.961 279.437C310.776 288.173 314.489 296.951 318.188 305.735L323.69 318.93L329.168 332.135H328.244L333.722 318.93C335.556 314.532 337.355 310.119 339.223 305.735L344.788 292.566L350.451 279.437L345.242 292.752L339.934 306.027C338.178 310.458 336.353 314.86 334.563 319.276L329.168 332.515C329.131 332.607 329.067 332.686 328.984 332.741C328.902 332.796 328.805 332.826 328.706 332.826C328.607 332.826 328.51 332.796 328.428 332.741C328.345 332.686 328.282 332.607 328.244 332.515L322.85 319.276L317.479 306.026C313.929 297.181 310.394 288.33 306.961 279.437Z" fill="#904D24"/>
<path d="M309.226 308.599C312.472 308.393 315.719 308.296 318.966 308.216C322.212 308.125 325.459 308.112 328.706 308.1C331.952 308.111 335.199 308.124 338.446 308.215L343.316 308.354C344.939 308.437 346.562 308.486 348.186 308.599C346.562 308.713 344.939 308.761 343.316 308.844L338.446 308.984C335.199 309.075 331.952 309.088 328.706 309.099C325.459 309.086 322.212 309.074 318.966 308.982C315.719 308.902 312.472 308.806 309.226 308.599Z" fill="#904D24"/>
<path d="M351.052 274.656H306.359C305.646 274.656 305.068 275.234 305.068 275.947V278.145C305.068 278.858 305.646 279.436 306.359 279.436H351.052C351.765 279.436 352.343 278.858 352.343 278.145V275.947C352.343 275.234 351.765 274.656 351.052 274.656Z" fill="#904D24"/>
<path d="M232.139 14.8086H224.014C221.571 14.8086 219.591 16.7888 219.591 19.2316V27.3566C219.591 29.7994 221.571 31.7796 224.014 31.7796H232.139C234.582 31.7796 236.562 29.7994 236.562 27.3566V19.2316C236.562 16.7888 234.582 14.8086 232.139 14.8086Z" fill="#DC8758"/>
<path d="M181.987 332.575H175.113L202.972 207.355L217.006 211.133L181.987 332.575Z" fill="#DC8758"/>
<path d="M275.005 332.575H281.878L254.02 207.355L239.986 211.133L275.005 332.575Z" fill="#DC8758"/>
<path d="M343.74 24.8271H111.965C110.336 24.8271 109.016 26.1475 109.016 27.7761V221.606C109.016 223.235 110.336 224.555 111.965 224.555H343.74C345.368 224.555 346.689 223.235 346.689 221.606V27.7761C346.689 26.1475 345.368 24.8271 343.74 24.8271Z" fill="#FFE3CB"/>
<path d="M248.352 60.7341C248.074 60.7339 247.807 60.6259 247.607 60.4329C247.407 60.2399 247.29 59.9769 247.28 59.6992C247.27 59.4216 247.368 59.1508 247.553 58.9439C247.739 58.7369 247.997 58.6099 248.274 58.5896L267.965 57.1418C268.105 57.1315 268.247 57.149 268.38 57.1932C268.514 57.2375 268.638 57.3077 268.745 57.3998C268.852 57.4919 268.939 57.6042 269.002 57.7301C269.066 57.8561 269.104 57.9933 269.114 58.1339C269.124 58.2745 269.107 58.4158 269.063 58.5496C269.018 58.6835 268.948 58.8073 268.856 58.914C268.764 59.0208 268.652 59.1083 268.526 59.1717C268.4 59.235 268.263 59.2729 268.122 59.2833L248.432 60.731C248.405 60.7331 248.378 60.7341 248.352 60.7341ZM268.043 66.2493H248.353C248.068 66.2493 247.795 66.1361 247.594 65.9347C247.392 65.7333 247.279 65.4602 247.279 65.1754C247.279 64.8906 247.392 64.6174 247.594 64.4161C247.795 64.2147 248.068 64.1015 248.353 64.1015H268.043C268.328 64.1015 268.601 64.2147 268.803 64.4161C269.004 64.6174 269.117 64.8906 269.117 65.1754C269.117 65.4602 269.004 65.7333 268.803 65.9347C268.601 66.1361 268.328 66.2493 268.043 66.2493ZM268.043 73.2116H248.353C248.068 73.2116 247.795 73.0985 247.594 72.8971C247.392 72.6957 247.279 72.4226 247.279 72.1378C247.279 71.853 247.392 71.5798 247.594 71.3784C247.795 71.177 248.068 71.0639 248.353 71.0639H268.043C268.328 71.0639 268.601 71.177 268.803 71.3784C269.004 71.5798 269.117 71.853 269.117 72.1378C269.117 72.4226 269.004 72.6957 268.803 72.8971C268.601 73.0985 268.328 73.2116 268.043 73.2116ZM268.043 77.8909H248.353C248.068 77.8909 247.795 77.7778 247.594 77.5764C247.392 77.375 247.279 77.1018 247.279 76.817C247.279 76.5322 247.392 76.2591 247.594 76.0577C247.795 75.8563 248.068 75.7432 248.353 75.7432H268.043C268.328 75.7432 268.601 75.8563 268.803 76.0577C269.004 76.2591 269.117 76.5322 269.117 76.817C269.117 77.1018 269.004 77.375 268.803 77.5764C268.601 77.7778 268.328 77.8909 268.043 77.8909ZM155.006 193.538C154.722 193.538 154.449 193.425 154.247 193.224C154.046 193.023 153.933 192.749 153.933 192.465V58.2125C153.933 57.9277 154.046 57.6546 154.247 57.4532C154.449 57.2518 154.722 57.1387 155.006 57.1387C155.291 57.1387 155.564 57.2518 155.766 57.4532C155.967 57.6546 156.08 57.9277 156.08 58.2125V192.465C156.08 192.749 155.967 193.023 155.766 193.224C155.564 193.425 155.291 193.538 155.006 193.538Z" fill="#904D24"/>
<path d="M323.98 170.919H131.722C131.437 170.919 131.164 170.806 130.963 170.605C130.762 170.403 130.648 170.13 130.648 169.845C130.648 169.561 130.762 169.287 130.963 169.086C131.164 168.885 131.437 168.772 131.722 168.772H323.98C324.264 168.772 324.537 168.885 324.739 169.086C324.94 169.287 325.053 169.561 325.053 169.845C325.053 170.13 324.94 170.403 324.739 170.605C324.537 170.806 324.264 170.919 323.98 170.919ZM164.984 157.864C164.79 157.863 164.599 157.81 164.433 157.711C164.266 157.611 164.13 157.468 164.038 157.297C163.947 157.126 163.903 156.933 163.912 156.739C163.921 156.545 163.983 156.357 164.09 156.195L183.383 127.155C183.489 126.998 183.635 126.872 183.804 126.789C183.974 126.705 184.162 126.667 184.351 126.678C184.541 126.691 184.723 126.754 184.88 126.86C185.037 126.967 185.163 127.113 185.245 127.284L194.941 147.45L221.236 94.8984C221.331 94.7025 221.485 94.5409 221.676 94.4356C221.866 94.3303 222.085 94.2865 222.302 94.3101C222.518 94.3314 222.723 94.4177 222.889 94.5578C223.055 94.6978 223.174 94.885 223.232 95.0945L232.522 128.971L240.554 114.773C240.652 114.599 240.797 114.456 240.972 114.36C241.147 114.264 241.346 114.219 241.545 114.229C241.745 114.24 241.937 114.306 242.101 114.419C242.265 114.533 242.394 114.691 242.474 114.874L253.365 139.978L261.1 118.261C261.168 118.071 261.288 117.903 261.446 117.778C261.605 117.653 261.795 117.575 261.996 117.554C262.197 117.53 262.4 117.565 262.582 117.653C262.764 117.742 262.917 117.881 263.023 118.053L270.658 130.315L297.74 76.3349C297.834 76.1476 297.98 75.9918 298.162 75.8868C298.343 75.7818 298.551 75.7321 298.76 75.7439C298.969 75.7557 299.171 75.8284 299.339 75.953C299.507 76.0777 299.636 76.2489 299.708 76.4455L304.868 90.4719L323.032 56.4122C323.098 56.2877 323.189 56.1776 323.298 56.088C323.407 55.9985 323.532 55.9313 323.667 55.8902C323.802 55.8492 323.944 55.8351 324.084 55.8488C324.224 55.8626 324.361 55.9038 324.485 55.9702C324.609 56.0365 324.72 56.1268 324.809 56.2357C324.899 56.3447 324.966 56.4702 325.007 56.6051C325.048 56.74 325.062 56.8817 325.048 57.0221C325.035 57.1625 324.993 57.2987 324.927 57.4232L305.635 93.5975C305.537 93.7803 305.389 93.931 305.208 94.0314C305.026 94.1317 304.82 94.1776 304.613 94.1633C304.407 94.1491 304.209 94.0754 304.043 93.9511C303.877 93.8268 303.751 93.6572 303.679 93.4628L298.548 79.514L271.72 132.989C271.634 133.16 271.505 133.305 271.344 133.409C271.184 133.513 271 133.572 270.809 133.581C270.619 133.587 270.43 133.543 270.262 133.455C270.094 133.366 269.951 133.236 269.848 133.076L262.376 121.078L254.474 143.263C254.402 143.466 254.27 143.643 254.096 143.77C253.922 143.897 253.714 143.969 253.499 143.976C253.283 143.983 253.071 143.926 252.889 143.81C252.706 143.695 252.563 143.528 252.478 143.33L241.362 117.707L233.11 132.294C233.005 132.479 232.848 132.629 232.658 132.724C232.468 132.82 232.254 132.857 232.043 132.831C231.832 132.805 231.634 132.717 231.473 132.578C231.312 132.438 231.196 132.255 231.14 132.05L221.902 98.3665L195.882 150.368C195.786 150.543 195.646 150.69 195.476 150.794C195.306 150.898 195.112 150.956 194.913 150.962C194.712 150.96 194.515 150.902 194.346 150.795C194.176 150.687 194.04 150.534 193.953 150.353L184.127 129.916L165.879 157.384C165.782 157.531 165.648 157.653 165.492 157.736C165.336 157.82 165.161 157.864 164.984 157.864ZM136.379 141.86C136.094 141.86 135.821 141.747 135.62 141.545C135.418 141.344 135.305 141.071 135.305 140.786V76.8162C135.305 76.5314 135.418 76.2583 135.62 76.0569C135.821 75.8555 136.094 75.7424 136.379 75.7424C136.664 75.7424 136.937 75.8555 137.138 76.0569C137.34 76.2583 137.453 76.5314 137.453 76.8162V140.786C137.453 141.071 137.34 141.344 137.138 141.545C136.937 141.747 136.664 141.86 136.379 141.86ZM282.069 187.718H282.054L181.601 186.303C181.316 186.299 181.045 186.182 180.846 185.977C180.648 185.773 180.538 185.498 180.542 185.214C180.551 184.93 180.669 184.661 180.872 184.463C181.076 184.266 181.348 184.155 181.632 184.155L282.084 185.57C282.367 185.574 282.638 185.69 282.836 185.892C283.035 186.095 283.145 186.368 283.143 186.651C283.141 186.935 283.027 187.206 282.826 187.406C282.625 187.606 282.353 187.718 282.069 187.718Z" fill="#904D24"/>
<path d="M265.764 217.124H191.15C189.888 217.124 188.865 218.147 188.865 219.409V225.648C188.865 226.91 189.888 227.933 191.15 227.933H265.764C267.026 227.933 268.049 226.91 268.049 225.648V219.409C268.049 218.147 267.026 217.124 265.764 217.124Z" fill="#DC8758"/>
<path d="M27.688 240.756C30.0997 242.63 34.3487 247.08 34.4633 250.418C34.4633 250.418 42.2722 241.927 40.0521 234.666C38.7369 231.952 36.5549 229.755 33.8509 228.42C33.8509 228.42 36.913 226.702 40.1284 230.918C40.1284 230.918 38.9802 219.519 23.0949 223.657C23.0949 223.657 16.8937 211.008 4.60662 222.954C4.60662 222.954 12.8746 221.9 11.267 224.477C8.27381 225.318 5.47237 226.732 3.01795 228.641C2.19472 229.37 1.52523 230.256 1.04869 231.247C0.572156 232.238 0.298149 233.314 0.242722 234.412C0.0514621 237.496 -0.241978 243.599 0.357722 243.684C1.16141 243.801 6.44394 238.999 10.0038 239.351C13.5637 239.702 1.85046 250.242 1.85046 250.242C1.85046 250.242 4.26215 259.378 5.29573 259.26C6.329 259.143 10.0805 256.528 8.54911 259.26L5.90811 261.369L9.35311 266.131L18.004 262.305C18.004 262.305 14.1762 251.843 17.6978 254.693C17.6978 254.693 20.377 258.246 20.4153 260.9C20.4153 260.9 31.9943 255.864 30.8462 252.409C29.596 249.203 28.134 246.084 26.4698 243.072C26.1907 242.563 26.0274 241.999 25.9913 241.42C25.953 240.541 26.1825 239.585 27.688 240.756ZM26.2654 228.628C27.3501 227.88 30.0169 228.361 31.0184 230.801C32.0903 233.41 32.0454 236.319 30.9611 237.067C29.8764 237.815 26.795 236.839 26.0231 234.315C25.1683 231.504 25.181 229.376 26.2654 228.628Z" fill="#8B9D36"/>
<path d="M23.0944 223.657C21.8596 225.062 20.718 226.547 19.6769 228.101C18.6926 229.681 17.8807 231.362 17.255 233.115C16.6342 234.874 16.1019 236.662 15.6598 238.473C15.1978 240.289 14.7565 242.103 14.3886 243.935C13.9988 245.762 13.6581 247.601 13.3792 249.447C13.092 251.293 12.9267 253.151 12.6998 255.018C12.2597 258.769 11.141 262.408 9.39844 265.758C10.1412 264.041 10.7542 262.27 11.2322 260.46C11.7279 258.663 12.0542 256.823 12.207 254.965C12.4827 251.215 13.001 247.487 13.7586 243.804C14.148 241.964 14.6122 240.138 15.0934 238.326C15.5466 236.496 16.1147 234.697 16.7944 232.938C17.4841 231.178 18.3631 229.497 19.4158 227.926C20.5322 226.412 21.762 224.985 23.0944 223.657Z" fill="#5E7C24"/>
<path d="M18.5851 229.608C17.3219 229.875 16.0796 230.232 14.8681 230.679C13.6601 231.118 12.466 231.594 11.3071 232.151C8.95697 233.2 6.72783 234.491 4.45312 235.759C4.94978 235.338 5.4682 234.944 5.98236 234.542C6.52063 234.177 7.05066 233.795 7.60169 233.446C8.70977 232.753 9.85732 232.125 11.0385 231.566C12.2322 231.028 13.462 230.575 14.7189 230.208C15.9747 229.835 17.2752 229.633 18.5851 229.608ZM13.3515 247.721C12.4618 248.411 11.5357 248.976 10.6313 249.565C10.178 249.856 9.73538 250.156 9.30332 250.466C8.85763 250.762 8.48244 251.152 8.20432 251.609C8.26536 251.027 8.53683 250.488 8.9677 250.092C9.36527 249.689 9.80585 249.331 10.2815 249.024C11.2197 248.412 12.2591 247.971 13.3515 247.721ZM15.1251 239.379C16.1735 240.361 17.1514 241.416 18.0514 242.535C18.9581 243.653 19.799 244.823 20.5697 246.038C21.3362 247.263 21.994 248.553 22.5355 249.893C23.0943 251.23 23.4006 252.659 23.439 254.107C23.1596 252.715 22.7029 251.364 22.08 250.088C21.481 248.805 20.7938 247.566 20.0234 246.378C19.3014 245.157 18.4788 243.997 17.6587 242.834C16.8358 241.672 15.9861 240.526 15.1251 239.379Z" fill="#5E7C24"/>
<path d="M4.5293 275.969L7.74465 278.936C7.74465 278.936 10.8834 275.618 11.2279 277.921C11.2279 277.921 10.7303 280.224 10.1179 280.42C10.1179 280.42 17.8117 286.607 19.362 281.513C19.9852 279.234 20.772 277.003 21.7161 274.837C21.7161 274.837 23.4386 275.774 21.9458 283.152C21.9458 283.152 27.9001 281.402 30.1113 278.192C30.3653 277.814 30.5007 277.368 30.5003 276.912C30.5216 275.076 30.7635 269.911 32.855 271.85C32.855 271.85 34.0608 272.436 33.1421 276.359C33.1421 276.359 37.988 270.896 35.6862 267.539C35.2314 266.91 34.5726 266.458 33.822 266.26C33.0714 266.061 32.2754 266.13 31.5694 266.452C30.2237 267.037 27.7268 268.112 23.0942 270.094C17.1299 272.7 10.9071 274.67 4.5293 275.969Z" fill="#8B9D36"/>
<path d="M15.125 280.497C15.4229 278.81 15.9557 277.172 16.7078 275.632C17.079 274.85 17.5349 274.111 18.0673 273.429C18.3386 273.082 18.6524 272.771 19.0012 272.502C19.3473 272.222 19.7788 272.067 20.2244 272.065C19.4643 272.394 18.8448 272.982 18.4751 273.723C18.0383 274.431 17.6415 275.162 17.2863 275.914C16.5471 277.417 15.8887 278.965 15.125 280.497ZM25.5825 278.077C25.4946 276.565 25.632 275.049 25.9901 273.578C26.1686 272.836 26.4204 272.113 26.7418 271.42C27.0374 270.696 27.5745 270.096 28.2619 269.723C27.7648 270.26 27.4029 270.908 27.2059 271.613C26.9815 272.307 26.7887 273.014 26.6159 273.73C26.2673 275.163 25.978 276.616 25.5825 278.077ZM79.095 224.89C79.095 224.89 71.3629 225.999 78.2529 231.465C78.2529 231.465 80.0137 232.948 85.7554 234.666C85.7554 234.666 89.3536 219.017 79.095 224.89Z" fill="#5E7C24"/>
<path d="M85.7561 234.666C85.6129 234.153 85.5191 233.64 85.3903 233.136C85.2293 232.639 85.113 232.134 84.9368 231.65C84.6056 230.683 84.1722 229.753 83.644 228.877C83.1058 228.015 82.4496 227.232 81.6945 226.551C80.9274 225.855 80.0489 225.294 79.0957 224.89C80.157 225.067 81.1582 225.503 82.0105 226.16C82.8768 226.812 83.6158 227.618 84.1907 228.537C84.7457 229.461 85.1591 230.462 85.4171 231.508C85.5574 232.023 85.6102 232.558 85.6991 233.079C85.7252 233.611 85.7574 234.139 85.7561 234.666Z" fill="#50661A"/>
<path d="M69.2824 193.274C69.2824 193.274 77.8547 187.813 80.4223 199.94C80.4223 199.94 75.9736 196.11 75.9146 198.326C77.3557 200.013 78.452 201.966 79.1416 204.075C79.5413 205.647 79.3192 207.312 78.5215 208.724C77.4319 210.707 75.2303 214.602 74.8434 214.426C74.3253 214.19 73.0915 209.183 70.8624 208.034C68.6333 206.884 71.4109 217.919 71.4109 217.919C71.4109 217.919 66.4346 222.658 65.8729 222.188C65.3111 221.718 64.1245 218.657 63.9602 220.939L64.6916 223.26L60.8113 224.89L57.2175 219.195C57.2175 219.195 63.5433 214.178 60.3633 214.592C60.3633 214.592 57.4044 215.766 56.3477 217.397C56.3477 217.397 51.5043 209.827 53.5253 208.126C55.4993 206.626 57.5684 205.257 59.7197 204.025C60.1536 203.778 60.5166 203.424 60.7737 202.996C61.0587 202.505 61.1142 201.982 59.9212 202.113C57.7739 202.349 53.5429 203.476 52.175 205.502C52.175 205.502 50.8936 197.238 55.0273 193.588C56.8281 192.422 58.9693 191.896 61.1053 192.096C61.1053 192.096 59.9748 189.855 56.4424 191.234C56.4423 191.234 61.5583 184.607 69.2824 193.274Z" fill="#5E7C24"/>
<path d="M73.1245 206.85C72.4249 205.145 71.7684 203.455 70.9705 201.844C70.5787 201.045 70.1145 200.283 69.5835 199.569C69.0848 198.824 68.3214 198.296 67.4481 198.093C67.9264 198.078 68.4018 198.173 68.8374 198.371C69.2731 198.569 69.6573 198.865 69.9602 199.236C70.5963 199.93 71.1304 200.711 71.5462 201.555C72.3648 203.22 72.8982 205.01 73.1245 206.85ZM55.5166 210.93C55.9536 209.984 56.5038 209.094 57.1552 208.28C57.7984 207.447 58.5457 206.701 59.3788 206.058C60.216 205.395 61.1747 204.903 62.201 204.609C63.23 204.336 64.3165 204.371 65.3257 204.71C64.3185 204.624 63.3044 204.753 62.351 205.089C61.421 205.45 60.5509 205.949 59.7701 206.569C58.9686 207.184 58.2205 207.866 57.534 208.608C56.8401 209.35 56.158 210.116 55.5166 210.93Z" fill="#50661A"/>
<path d="M63.5548 194.377C63.8706 193.955 64.2673 193.6 64.7217 193.333C65.1761 193.066 65.6792 192.893 66.2015 192.822C66.7258 192.74 67.2584 192.726 67.7862 192.78C68.3122 192.84 68.8318 192.947 69.3387 193.099L69.5273 193.152L69.4503 193.347C68.4488 195.876 67.598 198.474 66.7578 201.067C65.9356 203.668 65.1949 206.293 64.4697 208.923C63.7725 211.56 63.1198 214.209 62.5118 216.871C61.9002 219.532 61.3621 222.209 60.8115 224.889C61.148 222.175 61.5522 219.466 62.0821 216.781C62.564 214.085 63.2183 211.424 63.8821 208.768C64.5518 206.112 65.3471 203.489 66.2033 200.887C67.0543 198.283 68.0078 195.715 69.1149 193.2L69.2263 193.447L68.4948 193.229C68.2459 193.182 67.9984 193.12 67.7481 193.079C67.2462 192.998 66.7361 192.981 66.2301 193.03C65.1977 193.116 64.2388 193.599 63.5548 194.377Z" fill="#50661A"/>
<path d="M66.2048 217.821C65.9556 216.886 65.6115 215.979 65.1779 215.114C64.9755 214.725 64.672 214.398 64.2994 214.167C63.8688 213.975 63.3987 213.888 62.9277 213.912C63.1612 213.774 63.4201 213.684 63.689 213.649C63.9579 213.613 64.2312 213.631 64.4927 213.703C65.025 213.903 65.4664 214.289 65.7343 214.79C66.2376 215.715 66.4039 216.787 66.2048 217.821Z" fill="#50661A"/>
<path d="M37.6019 280.497C37.6019 280.497 36.0779 275.237 32.2094 278.211C30.8944 279.256 29.9537 280.699 29.5286 282.324C28.8309 284.841 28.2279 289.404 29.9463 295.879C29.9463 295.879 33.9065 290.4 36.8363 288.461C40.1404 286.275 42.2718 281.278 37.6019 280.497Z" fill="#C4CE6E"/>
<path d="M37.6028 280.497C37.021 280.927 36.5135 281.449 36.1003 282.043C35.663 282.615 35.267 283.217 34.9155 283.845C34.1993 285.096 33.5624 286.392 33.0085 287.724C32.4242 289.046 31.9203 290.404 31.42 291.766L29.9473 295.879C30.073 295.159 30.2394 294.448 30.3848 293.731C30.553 293.019 30.7621 292.319 30.9493 291.611C31.356 290.205 31.8707 288.832 32.4173 287.47C33.0048 286.12 33.7005 284.82 34.4975 283.582C35.2568 282.309 36.3249 281.248 37.6028 280.497ZM43.1862 207.423C43.1862 207.423 43.3153 201.939 38.7396 203.562C37.1743 204.146 35.8438 205.227 34.9524 206.64C33.5322 208.819 31.588 212.973 31.2794 219.674C31.2794 219.674 36.6947 215.695 40.0658 214.765C43.8677 213.716 47.3972 209.625 43.1862 207.423Z" fill="#8B9D36"/>
<path d="M43.1851 207.423C42.5024 207.65 41.862 207.988 41.2899 208.424C40.7015 208.832 40.1434 209.281 39.6199 209.769C38.5617 210.738 37.5661 211.772 36.639 212.867C35.6859 213.944 34.7986 215.079 33.9138 216.219L31.2783 219.674C31.6139 219.029 31.9855 218.405 32.3391 217.768C32.7122 217.144 33.1216 216.543 33.5121 215.929C34.3333 214.724 35.2146 213.561 36.1528 212.445C37.1177 211.344 38.1709 210.322 39.3019 209.392C40.4079 208.416 41.7444 207.739 43.1851 207.423Z" fill="#5E7C24"/>
<path d="M77.7199 280.497C77.7199 280.497 79.2438 275.237 83.1123 278.211C84.4273 279.256 85.368 280.699 85.7931 282.324C86.4908 284.841 87.0939 289.404 85.3755 295.879C85.3755 295.879 81.4152 290.4 78.4855 288.461C75.1813 286.275 73.05 281.278 77.7199 280.497Z" fill="#8B9D36"/>
<path d="M77.7197 280.497C78.9977 281.248 80.0657 282.309 80.8251 283.582C81.622 284.82 82.3177 286.12 82.9052 287.47C83.4633 288.825 83.9533 290.207 84.3732 291.611C84.5603 292.319 84.7696 293.019 84.9377 293.73C85.0831 294.448 85.2495 295.158 85.3753 295.878L83.9025 291.766C83.4021 290.404 82.8983 289.046 82.3139 287.723C81.7601 286.392 81.1232 285.096 80.407 283.844C80.0555 283.216 79.6595 282.614 79.2221 282.043C78.809 281.449 78.3015 280.927 77.7197 280.497Z" fill="#5E7C24"/>
<path d="M76.4999 255.44C76.4999 255.44 61.9038 278.546 60.5474 304.585M79.0956 224.89C79.0956 224.89 59.8341 208.432 54.8427 304.585L79.0956 224.89ZM60.8115 224.89C60.8115 224.89 51.2292 288.306 56.9709 304.585L60.8115 224.89ZM53.3178 304.585C53.3178 304.585 46.1966 276.008 37.6022 280.498L53.3178 304.585ZM54.3411 296.063C54.3411 296.063 60.5474 189.891 43.1856 207.424L54.3411 296.063ZM62.0047 304.585C62.0047 304.585 69.1258 276.008 77.7202 280.498L62.0047 304.585ZM35.1465 266.94C35.1465 266.94 48.6263 263.633 55.9757 303.921L35.1465 266.94ZM39.587 241.977C39.587 241.977 43.4924 244.582 58.27 303.921L39.587 241.977Z" stroke="#50661A" stroke-width="0.644" stroke-miterlimit="10"/>
<path d="M37.6788 297.764V303.111C37.674 303.602 37.8646 304.075 38.2086 304.426C38.5526 304.777 39.0219 304.977 39.5132 304.982H76.2659C76.7573 304.977 77.2265 304.777 77.5706 304.426C77.9146 304.075 78.1051 303.602 78.1003 303.111V298.184C78.105 297.696 77.9172 297.226 77.5776 296.876C77.2381 296.525 76.7742 296.323 76.2865 296.313L39.5337 295.894C39.2887 295.893 39.046 295.941 38.8198 296.036C38.5935 296.13 38.3882 296.268 38.2157 296.442C38.0432 296.616 37.9069 296.822 37.8147 297.049C37.7226 297.276 37.6764 297.519 37.6788 297.764Z" fill="#9857BD"/>
<path d="M39.4336 304.98L40.7406 332.574H74.1746L76.3466 304.98H39.4336Z" fill="#CB97E7"/>
<path d="M70.4827 253.866C70.5338 251.348 75.7397 255.916 75.7397 255.916C72.639 241.999 62.7315 247.802 62.7315 247.802C53.6723 237.574 47.7904 244.868 47.7904 244.868C51.8796 243.469 53.2131 246.072 53.2131 246.072C50.7719 245.728 48.2865 246.224 46.1634 247.477C41.398 251.433 42.9611 260.893 42.9611 260.893C44.5305 258.655 49.4427 257.575 51.9307 257.406C53.4938 257.302 53.2194 258.07 52.7985 258.655C52.516 259.035 52.152 259.346 51.7332 259.566C49.2452 260.863 46.8474 262.326 44.556 263.945C42.221 265.78 47.9244 274.622 47.9244 274.622C49.1364 272.82 52.5624 271.623 52.5624 271.623C56.2562 271.304 48.9514 276.711 48.9514 276.711L53.181 283.36L57.6789 281.688L56.8048 279.014C56.977 276.424 58.3807 279.964 59.0377 280.523C59.6947 281.09 65.4363 275.936 65.4363 275.936C65.4363 275.936 62.1063 263.249 64.7027 264.667C67.3057 266.079 68.7856 271.831 69.3918 272.124C69.8448 272.345 72.3648 268.018 73.6152 265.812C74.0681 265.025 74.361 264.155 74.4771 263.254C74.5931 262.353 74.5301 261.438 74.2915 260.562C73.4561 258.109 72.1637 255.838 70.4827 253.866ZM55.9562 253.762C54.2975 255.135 51.7456 254.374 51.3375 253.352C50.9226 252.337 52.1923 250.314 54.0934 249.026C55.8734 247.815 57.9212 248.72 58.3296 249.741C58.7442 250.756 57.8001 252.227 55.9562 253.762Z" fill="#5E7C24"/>
<path d="M62.7308 247.803C63.061 249.319 63.2769 250.859 63.3767 252.408C63.4074 253.969 63.2686 255.53 62.9627 257.062C62.6511 258.587 62.2407 260.09 61.734 261.562C61.2555 263.032 60.76 264.505 60.2059 265.955C59.0766 268.845 57.7573 271.657 56.2568 274.373C55.5244 275.722 54.9205 277.137 54.4533 278.6C53.9657 280.064 53.5864 281.561 53.3184 283.081C53.5943 279.975 54.4407 276.947 55.8149 274.149C57.2397 271.416 58.5055 268.602 59.6058 265.723C60.1733 264.292 60.6822 262.84 61.1786 261.377C61.6788 259.918 62.1282 258.45 62.4799 256.96C62.8355 255.469 63.0309 253.945 63.0628 252.412C63.048 250.87 62.9371 249.331 62.7308 247.803Z" fill="#50661A"/>
<path d="M63.1669 253.985C64.0741 254.596 64.8915 255.331 65.5953 256.168C66.3078 256.996 66.9536 257.88 67.5266 258.81C68.096 259.74 68.6013 260.707 69.0389 261.706C69.4767 262.702 69.8389 263.729 70.1222 264.779L68.5876 261.927C68.065 260.99 67.5469 260.053 66.9786 259.148C66.4202 258.237 65.8286 257.348 65.2038 256.481C64.579 255.606 63.8986 254.773 63.1669 253.985ZM58.6651 268.857C59.3371 269.51 59.8734 270.29 60.2435 271.151C60.4337 271.584 60.5731 272.038 60.6588 272.504C60.7726 272.984 60.7023 273.488 60.4621 273.919C60.4531 273.475 60.3548 273.038 60.173 272.633C60.0064 272.225 59.835 271.817 59.6535 271.409C59.2693 270.58 58.9391 269.728 58.6651 268.857ZM61.1758 262.303L57.9058 263.541C56.826 263.965 55.7511 264.395 54.7051 264.882C53.6515 265.346 52.6269 265.874 51.637 266.462C50.6362 267.042 49.7113 267.744 48.8838 268.552C49.5383 267.562 50.3796 266.71 51.3605 266.042C52.3261 265.359 53.3573 264.774 54.4388 264.296C56.581 263.322 58.8485 262.651 61.1758 262.303Z" fill="#50661A"/>
<path d="M93.5844 238.134C93.5844 238.134 101.053 226.978 110.393 240.152C110.393 240.152 103.078 237.945 104.15 240.635C106.751 241.886 109.076 243.643 110.99 245.802C112.284 247.485 112.877 249.603 112.645 251.713C112.361 254.678 111.73 260.535 111.174 260.531C110.431 260.525 106.366 255.18 103.098 254.997C99.8299 254.815 108.858 266.566 108.858 266.566C108.858 266.566 105.332 274.923 104.416 274.661C103.499 274.399 100.495 271.363 101.476 274.189L103.552 276.582L99.7366 280.621L92.4846 275.716C92.4846 275.716 97.4861 266.299 93.884 268.504C93.884 268.504 90.9391 271.501 90.513 274.026C90.513 274.026 80.7937 267.542 82.3408 264.415C83.9328 261.561 85.7053 258.811 87.6475 256.182C88.0388 255.658 88.2933 255.044 88.388 254.396C88.485 253.643 88.2937 252.958 86.9126 253.766C84.4574 255.202 79.9621 258.826 79.3661 261.992C79.3661 261.992 73.563 252.762 76.6398 246.163C78.1942 243.802 80.4891 242.025 83.1637 241.11C83.1637 241.11 80.6502 239.028 77.1233 242.579C77.1233 242.579 79.8419 231.88 93.5844 238.134Z" fill="#C4CE6E"/>
<path d="M93.584 238.134C94.8894 241.494 95.9685 244.937 96.8141 248.441C97.6902 251.939 98.3682 255.485 98.8992 259.052C99.4154 262.622 99.7496 266.216 99.9006 269.82C100.056 273.42 100.001 277.027 99.7361 280.621C99.7078 277.021 99.6897 273.428 99.4058 269.847C99.1788 266.264 98.7977 262.697 98.2624 259.145C97.7871 255.587 97.1032 252.061 96.3339 248.554C95.5601 245.049 94.6676 241.566 93.584 238.134Z" fill="#8B9D36"/>
<path d="M95.4484 244.072C94.8442 244.824 94.3043 245.625 93.8344 246.467C93.3654 247.3 92.9424 248.157 92.5674 249.036C92.1912 249.914 91.8636 250.814 91.5604 251.726C91.2601 252.64 90.9916 253.568 90.7061 254.506C90.7359 253.525 90.8596 252.55 91.0757 251.592C91.2917 250.631 91.5928 249.691 91.9755 248.783C92.3658 247.875 92.8472 247.009 93.4124 246.198C93.9672 245.38 94.6555 244.662 95.4484 244.072ZM98.5558 258.848C99.5448 259.071 100.477 259.495 101.295 260.094C102.113 260.693 102.799 261.454 103.309 262.33C103.651 262.91 103.894 263.542 104.027 264.202C103.343 263.111 102.533 262.104 101.613 261.202C100.68 260.312 99.6553 259.523 98.5558 258.848Z" fill="#8B9D36"/>
<path d="M413.276 308.732L414.457 320.515L393.995 330.512H425.416V308.732H413.276Z" fill="#F9977A"/>
<path d="M379.554 308.732L380.735 320.515L360.273 330.512H391.694V308.732H379.554Z" fill="#F9977A"/>
<path d="M411.629 314.779H425.469C425.84 314.779 426.207 314.706 426.549 314.564C426.892 314.422 427.203 314.214 427.465 313.952C427.727 313.69 427.935 313.379 428.076 313.037C428.218 312.695 428.291 312.328 428.291 311.957V262.743C428.291 253.126 427.21 243.539 425.067 234.164C424.683 232.484 424.53 230.758 424.612 229.036C425.215 216.363 427.468 160.787 421.15 150.677L380.734 147.693L408.848 312.432C408.96 313.088 409.301 313.684 409.81 314.114C410.319 314.543 410.963 314.779 411.629 314.779Z" fill="#C67A56"/>
<path d="M367.576 145.598C367.576 145.598 365.451 179.994 365.451 188.081V235.8C365.451 237.765 365.548 239.727 365.741 241.685L372.817 313.443C372.886 314.14 373.212 314.786 373.731 315.257C374.25 315.727 374.925 315.988 375.625 315.988H391.933C392.321 315.988 392.705 315.908 393.06 315.753C393.416 315.598 393.735 315.371 393.999 315.087C394.264 314.803 394.466 314.468 394.595 314.102C394.724 313.736 394.775 313.348 394.747 312.961L390.341 252.378C389.936 246.811 390.311 241.215 391.453 235.751L409.25 150.677L367.576 145.598Z" fill="#C67A56"/>
<path d="M336.255 91.3048C336.255 91.3048 336.107 87.4231 330.138 81.2772C324.169 75.1314 318.816 70.931 321.924 76.1097L324.358 80.0167C324.358 80.0167 317.935 77.5262 314.239 75.7074C313.266 75.2095 312.16 75.0371 311.081 75.2157C310.003 75.3942 309.011 75.9142 308.251 76.699C306.858 78.2011 306.9 79.843 310.741 82.7567C314.284 85.5769 318.202 87.8918 322.381 89.6351C322.981 89.8659 323.487 90.2889 323.821 90.8381L328.114 94.3328L336.255 91.3048Z" fill="#F9977A"/>
<path d="M328.115 81.8299C327.431 81.6705 326.769 81.4297 326.143 81.1126C325.512 80.8088 324.914 80.4413 324.358 80.0159C324.713 80.0515 325.063 80.1285 325.4 80.2454C325.734 80.3538 326.059 80.4862 326.374 80.6416C327.012 80.9458 327.599 81.3466 328.115 81.8299ZM319.243 80.6406C318.428 80.3662 317.63 80.0437 316.854 79.6748C316.072 79.3196 315.314 78.9153 314.568 78.488C313.821 78.0598 313.1 77.5876 312.409 77.074C311.708 76.5693 311.064 75.9894 310.49 75.3447C311.899 76.3279 313.356 77.1811 314.831 78.0342C316.298 78.8962 317.787 79.7229 319.243 80.6406ZM317.649 82.6186C316.741 82.3659 315.852 82.0523 314.986 81.6799C314.116 81.3163 313.268 80.9012 312.447 80.4368C311.618 79.977 310.831 79.4441 310.097 78.8442C309.335 78.2694 308.706 77.5375 308.251 76.6982C308.856 77.4038 309.56 78.0182 310.341 78.5225C311.107 79.0396 311.892 79.532 312.706 79.9805C314.319 80.9038 315.986 81.7349 317.649 82.6186ZM315.725 84.1021C314.96 83.9106 314.211 83.6602 313.485 83.3531C312.756 83.0537 312.044 82.712 311.355 82.3296C309.958 81.5832 308.698 80.6058 307.627 79.4387C308.288 79.8723 308.932 80.304 309.596 80.7066C310.267 81.0982 310.929 81.4996 311.61 81.8714L315.725 84.1021Z" fill="#DD765E"/>
<path d="M382.829 71.5908C382.829 71.5908 379.594 73.0366 377.088 74.3217C373.613 76.1031 368.218 82.363 361.903 97.998L357.707 108.388C357.707 108.388 345.111 93.6847 334.214 84.3596L323.459 93.0867L348.353 121.761C349.963 124.064 352.102 125.948 354.59 127.254C360.273 130.159 366.077 129.201 369.263 123.294C374.247 114.054 380.172 99.9859 380.739 96.0659L382.829 71.5908Z" fill="#FFBA55"/>
<path d="M357.746 108.574C357.574 110.217 357.297 111.763 357.233 113.311C357.179 114.074 357.199 114.841 357.292 115.6C357.396 116.377 357.622 117.133 357.961 117.84C357.277 117.322 356.776 116.599 356.532 115.777C356.279 114.963 356.178 114.11 356.235 113.26C356.28 112.427 356.433 111.604 356.69 110.81C356.928 110.016 357.284 109.262 357.746 108.574Z" fill="#E6952A"/>
<path d="M406.088 157.344C406.088 157.344 406.088 174.352 424.854 169.901L423.816 154.592L406.088 157.344Z" fill="#A3862B"/>
<path d="M357.119 331.584V331.512C357.119 330.961 357.272 330.421 357.561 329.952C357.85 329.482 358.263 329.103 358.755 328.855L379.994 318.151C380.202 318.046 380.44 318.018 380.666 318.071C380.893 318.124 381.093 318.255 381.233 318.441L385.384 323.966C385.532 324.162 385.747 324.297 385.987 324.344C386.228 324.391 386.477 324.347 386.688 324.221L391.56 321.297C391.711 321.207 391.883 321.158 392.058 321.156C392.234 321.154 392.407 321.198 392.559 321.285C392.712 321.371 392.839 321.497 392.927 321.648C393.016 321.8 393.062 321.972 393.062 322.148V331.584C393.062 331.847 392.958 332.099 392.772 332.285C392.586 332.471 392.334 332.575 392.071 332.575H358.111C357.848 332.575 357.596 332.471 357.41 332.285C357.224 332.099 357.119 331.847 357.119 331.584Z" fill="#5D1115"/>
<path d="M390.842 331.584V331.512C390.842 330.961 390.995 330.421 391.284 329.952C391.573 329.482 391.986 329.103 392.478 328.855L413.716 318.151C413.924 318.046 414.162 318.018 414.389 318.071C414.615 318.124 414.816 318.255 414.956 318.441L419.107 323.966C419.254 324.162 419.469 324.297 419.71 324.344C419.95 324.391 420.2 324.347 420.41 324.221L425.283 321.297C425.433 321.207 425.605 321.158 425.781 321.156C425.956 321.154 426.129 321.198 426.282 321.285C426.435 321.371 426.562 321.497 426.65 321.648C426.738 321.8 426.785 321.972 426.785 322.148V331.584C426.785 331.847 426.681 332.099 426.495 332.285C426.309 332.471 426.056 332.575 425.793 332.575H391.834C391.571 332.575 391.318 332.471 391.132 332.285C390.946 332.099 390.842 331.847 390.842 331.584Z" fill="#5D1115"/>
<path d="M395.678 31.4762C392.81 31.0394 389.878 31.2907 387.125 32.2093C385.835 32.6668 381.117 34.3398 378.817 38.8073C377.943 40.504 377.746 42.5451 377.35 46.6272C377.104 49.177 376.122 51.0031 376.123 54.113C376.174 56.6327 376.587 59.1319 377.35 61.5339C378.494 65.2933 377.758 67.4292 378.328 68.1319C380.626 70.9641 385.554 68.346 385.659 72.0418C385.724 74.3238 384.274 75.7682 386.178 77.8151C388.54 80.3533 397.513 79.3927 400.81 77.6624C401.26 77.4265 407.853 73.8786 407.408 69.8425C407.17 67.6863 405.152 67.4633 403.742 64.2219C402.84 61.9748 402.586 59.5195 403.009 57.1352C403.645 52.4171 406.023 51.8417 407.897 46.1384C408.405 44.7066 408.538 43.1681 408.281 41.6704C408.024 40.1728 407.387 38.7662 406.431 37.5854C403.674 34.3512 399.868 32.1887 395.678 31.4762Z" fill="#F9977A"/>
<path d="M377.331 51.4172C377.86 51.4172 378.289 50.8839 378.289 50.2262C378.289 49.5684 377.86 49.0352 377.331 49.0352C376.802 49.0352 376.373 49.5684 376.373 50.2262C376.373 50.8839 376.802 51.4172 377.331 51.4172Z" fill="#0A0709"/>
<path d="M387.372 51.8205C387.901 51.8205 388.33 51.2872 388.33 50.6295C388.33 49.9717 387.901 49.4385 387.372 49.4385C386.843 49.4385 386.414 49.9717 386.414 50.6295C386.414 51.2872 386.843 51.8205 387.372 51.8205Z" fill="#0A0709"/>
<path d="M381.862 48.0242C381.99 48.0242 382.114 47.9839 382.218 47.909C382.321 47.8342 382.398 47.7285 382.437 47.6073C382.477 47.486 382.477 47.3554 382.438 47.234C382.399 47.1126 382.322 47.0067 382.219 46.9314C381.198 46.1647 379.971 45.72 378.696 45.6541C377.42 45.5882 376.154 45.9041 375.059 46.5614C374.926 46.6506 374.834 46.7891 374.803 46.9464C374.771 47.1037 374.804 47.267 374.893 47.4003C374.982 47.5335 375.121 47.6259 375.278 47.6571C375.436 47.6882 375.599 47.6556 375.732 47.5664C376.617 47.0344 377.641 46.7823 378.672 46.8432C379.702 46.9041 380.69 47.2752 381.506 47.9077C381.609 47.9835 381.734 48.0243 381.862 48.0242ZM391.801 48.517C391.928 48.517 392.053 48.4767 392.156 48.4018C392.259 48.327 392.336 48.2213 392.376 48.1001C392.415 47.9788 392.415 47.8482 392.376 47.7268C392.337 47.6054 392.261 47.4995 392.158 47.4242C391.136 46.6575 389.91 46.2127 388.634 46.1468C387.359 46.0808 386.093 46.3966 384.998 47.0538C384.865 47.143 384.772 47.2815 384.741 47.4388C384.71 47.5961 384.743 47.7594 384.832 47.8926C384.921 48.0259 385.06 48.1183 385.217 48.1494C385.374 48.1806 385.537 48.148 385.671 48.0588C386.555 47.5265 387.58 47.2743 388.61 47.3353C389.641 47.3963 390.629 47.7676 391.444 48.4005C391.548 48.4763 391.672 48.5171 391.801 48.517Z" fill="#1E1D22"/>
<path d="M383.982 155.39C384.863 155.39 385.578 154.676 385.578 153.794C385.578 152.913 384.863 152.198 383.982 152.198C383.1 152.198 382.386 152.913 382.386 153.794C382.386 154.676 383.1 155.39 383.982 155.39Z" fill="#5D1115"/>
<path d="M381.71 48.7422C381.96 49.7449 381.876 50.8018 381.47 51.7522C381.106 52.7095 380.611 53.6111 379.997 54.4309C379.684 54.843 379.226 55.1514 379.258 55.5564C379.311 56.0105 379.542 56.4249 379.901 56.7085C380.302 56.9896 380.754 57.1889 381.232 57.2949C381.71 57.4009 382.204 57.4115 382.686 57.3262C382.193 57.491 381.669 57.5426 381.152 57.4772C380.636 57.4117 380.141 57.231 379.704 56.9482C379.477 56.7895 379.286 56.5832 379.145 56.3435C379.005 56.1039 378.918 55.8367 378.891 55.5603C378.888 55.2617 378.998 54.9731 379.201 54.7534L379.684 54.177C380.288 53.3923 380.793 52.5361 381.187 51.6277C381.624 50.7324 381.805 49.7338 381.71 48.7422ZM399.408 49.1453C399.775 49.1281 400.141 49.1914 400.481 49.3309C400.82 49.4703 401.125 49.6825 401.374 49.9524C401.626 50.2138 401.845 50.5052 402.026 50.8201C402.2 51.134 402.33 51.4707 402.411 51.8203C402.01 51.2623 401.569 50.7339 401.092 50.239C400.861 49.9974 400.604 49.7826 400.326 49.5989C400.043 49.4052 399.734 49.2525 399.408 49.1453Z" fill="#DD765E"/>
<path d="M400.186 54.1135C399.815 53.4158 399.685 52.6151 399.816 51.8357C399.947 51.0564 400.331 50.3421 400.91 49.8037C400.757 50.1621 400.587 50.4915 400.477 50.8442C400.35 51.1856 400.26 51.5401 400.211 51.9011C400.091 52.6331 400.083 53.3791 400.186 54.1135Z" fill="#DD765E"/>
<path d="M367.135 127.506C366.761 123.958 366.655 120.386 366.817 116.821C366.912 113.249 367.36 109.695 368.154 106.211C368.077 109.784 367.95 113.314 367.815 116.862C367.66 120.406 367.509 123.95 367.135 127.506Z" fill="#E6952A"/>
<path d="M386.675 61.5361C386.675 61.5361 382.902 65.0552 379.528 61.5361H386.675Z" fill="#0A0709"/>
<path d="M390.465 50.4834C389.636 50.0694 388.746 49.7925 387.829 49.6636C387.38 49.5902 386.922 49.575 386.469 49.6184C386.004 49.6568 385.543 49.7315 385.09 49.8418C385.499 49.5838 385.952 49.4039 386.426 49.3113C386.906 49.2168 387.398 49.2011 387.883 49.2646C388.85 49.3906 389.753 49.8169 390.465 50.4834ZM380.596 50.0803C379.768 49.6662 378.878 49.3894 377.961 49.2605C377.511 49.1871 377.054 49.1719 376.601 49.2153C376.136 49.2538 375.675 49.3285 375.222 49.4387C375.631 49.1807 376.084 49.0008 376.558 48.9082C377.038 48.8136 377.53 48.7979 378.015 48.8616C378.982 48.9876 379.885 49.4139 380.596 50.0803Z" fill="#1E1D22"/>
<path d="M367.052 150.425C369.024 151.695 371.153 152.701 373.387 153.417C375.598 154.177 377.857 154.786 380.15 155.24C384.734 156.177 389.392 156.709 394.069 156.83C396.403 157.007 398.748 156.916 401.089 156.951C403.431 156.906 405.77 156.749 408.114 156.68C410.451 156.492 412.794 156.339 415.132 156.124C417.468 155.881 419.801 155.603 422.147 155.39C419.836 155.827 417.512 156.202 415.191 156.61C412.858 156.925 410.513 157.166 408.172 157.447C405.823 157.638 403.466 157.768 401.109 157.861C398.749 157.856 396.387 157.98 394.027 157.828C389.297 157.668 384.594 157.051 379.983 155.987C375.422 154.854 370.795 153.336 367.052 150.425Z" fill="#5D1115"/>
<path d="M382.222 156.076C383.392 161.736 384.455 167.414 385.5 173.094C386.549 178.775 387.508 184.47 388.516 190.157C389.445 195.858 390.416 201.551 391.304 207.259L392.617 215.823C393.019 218.685 393.454 221.54 393.826 224.406C393.231 221.578 392.699 218.739 392.134 215.906L390.546 207.388C389.5 201.707 388.537 196.012 387.532 190.325C386.606 184.624 385.631 178.931 384.746 173.223C383.857 167.515 382.986 161.805 382.222 156.076ZM374.147 149.006C374.497 150.033 374.666 151.113 374.647 152.198C374.668 153.283 374.499 154.364 374.147 155.39C373.795 154.364 373.626 153.283 373.647 152.198C373.628 151.113 373.797 150.033 374.147 149.006ZM398.542 151.608C399.031 152.754 399.344 153.967 399.471 155.206C399.639 156.44 399.618 157.693 399.408 158.921C398.917 157.776 398.603 156.563 398.479 155.324C398.312 154.089 398.334 152.837 398.542 151.608Z" fill="#5D1115"/>
<path d="M385.922 156.667C386.582 158.91 387.12 161.187 387.533 163.488C387.954 165.781 388.302 168.086 388.554 170.406L388.58 170.644L388.415 170.754C387.326 171.481 386.214 172.176 385.067 172.825C386.007 171.901 386.981 171.023 387.98 170.177L387.841 170.524C387.335 168.245 386.924 165.951 386.587 163.644C386.239 161.332 386.017 159.003 385.922 156.667ZM422.147 193.507C422.106 195.199 421.895 196.882 421.518 198.531C421.16 200.192 420.649 201.817 419.992 203.385C419.339 204.968 418.485 206.46 417.45 207.824C416.415 209.19 415.094 210.312 413.58 211.114C414.829 210.026 415.919 208.766 416.814 207.372C417.691 205.981 418.447 204.517 419.072 202.996C419.715 201.471 420.281 199.914 420.767 198.331C421.253 196.742 421.734 195.141 422.147 193.507ZM422.147 205.116C421.867 206.306 421.451 207.459 420.907 208.553C420.374 209.655 419.748 210.709 419.037 211.705C417.643 213.739 415.769 215.397 413.58 216.532C414.439 215.658 415.275 214.822 416.042 213.916C416.798 213.003 417.55 212.093 418.227 211.12C419.618 209.201 420.862 207.184 422.147 205.116ZM385.63 251.408C385.589 253.1 385.378 254.783 385.001 256.432C384.643 258.094 384.132 259.718 383.475 261.286C382.822 262.869 381.967 264.36 380.933 265.725C379.898 267.09 378.577 268.213 377.062 269.015C378.312 267.927 379.402 266.667 380.297 265.273C381.174 263.882 381.929 262.418 382.555 260.897C383.198 259.372 383.764 257.814 384.249 256.232C384.736 254.643 385.217 253.042 385.63 251.408ZM385.63 263.017C385.35 264.207 384.934 265.36 384.39 266.455C383.857 267.556 383.231 268.61 382.52 269.606C381.126 271.64 379.252 273.298 377.062 274.433C377.922 273.559 378.757 272.723 379.525 271.816C380.281 270.904 381.032 269.994 381.709 269.021C383.1 267.102 384.345 265.085 385.63 263.017ZM402.741 170.465C402.508 172.427 402.489 174.409 402.686 176.375C402.788 178.268 403.525 180.071 404.778 181.494C406.068 182.805 408.065 183.101 409.968 182.985C411.932 182.792 413.87 182.388 415.748 181.78C413.976 182.764 412.048 183.435 410.047 183.762C409.012 183.917 407.957 183.895 406.928 183.697C405.859 183.48 404.872 182.965 404.082 182.212C402.66 180.627 401.885 178.566 401.911 176.437C401.841 174.413 402.122 172.393 402.741 170.465Z" fill="#5D1115"/>
<path d="M387.186 72.352C387.186 72.352 389.459 83.8577 405.588 66.9961L421.15 76.6245C424.672 78.8647 427.497 82.0461 429.306 85.8087C435.456 98.8251 439.056 112.9 439.909 127.271C439.909 127.271 442.109 141.753 420.604 170.312C420.604 170.312 409.363 172.479 406.675 160.505L413.579 150.975C413.579 150.975 377.106 154.396 367.575 145.599C367.575 145.599 362.586 83.2478 383.704 70.8208L387.186 72.352Z" fill="#FFBA55"/>
<path d="M414.251 98.6787C414.68 101.394 415.078 104.112 415.445 106.834C415.798 109.558 416.186 112.277 416.512 115.004L417.484 123.184C417.823 125.909 418.072 128.644 418.37 131.374L418.375 131.419L418.372 131.457C418.088 134.817 417.573 138.153 416.831 141.442C416.158 144.745 415.065 147.949 413.58 150.974C414.78 147.852 415.66 144.616 416.208 141.316C416.505 139.674 416.741 138.02 416.941 136.363C417.159 134.711 417.343 133.045 417.461 131.393L417.463 131.475C417.15 128.747 416.789 126.025 416.516 123.292L415.656 115.1C415.37 112.368 415.147 109.63 414.89 106.896C414.648 104.16 414.435 101.421 414.251 98.6787Z" fill="#E6952A"/>
<path d="M410.407 101.367C411.493 102.272 412.455 103.318 413.265 104.477C414.11 105.612 414.799 106.854 415.313 108.172C414.225 107.269 413.263 106.222 412.454 105.062C411.611 103.926 410.922 102.684 410.407 101.367ZM417.916 131.425C419.03 131.413 420.019 131.528 421.01 131.568C421.503 131.595 421.987 131.59 422.482 131.585C422.974 131.557 423.462 131.503 424.025 131.425C423.657 131.859 423.172 132.181 422.628 132.352C422.09 132.517 421.527 132.589 420.964 132.566C420.412 132.534 419.868 132.424 419.347 132.239C418.821 132.064 418.335 131.787 417.916 131.425ZM390.645 75.9893C389.65 78.9915 388.694 82.0037 387.851 85.0488C386.964 88.0801 386.146 91.1295 385.398 94.197C383.889 100.326 382.571 106.5 381.583 112.729C380.575 118.954 379.913 125.229 379.6 131.527C379.547 134.676 379.399 137.832 379.606 140.981C379.596 144.145 380.076 147.268 380.334 150.425C379.217 144.182 378.713 137.844 378.831 131.503C379.028 125.162 379.618 118.839 380.597 112.571C381.672 106.322 382.983 100.115 384.657 94.0037C386.299 87.887 388.299 81.8719 390.645 75.9893Z" fill="#E6952A"/>
<path d="M383.704 70.8208C383.332 72.4895 382.995 74.1645 382.776 75.8513C382.49 77.4992 382.47 79.1824 382.719 80.8364C382.897 81.635 383.359 82.1912 384.057 81.9936C384.809 81.7626 385.505 81.3787 386.102 80.866C387.394 79.7898 388.594 78.6077 389.689 77.3318L390.424 76.51L390.505 77.6287C390.567 78.7767 390.865 79.8996 391.382 80.9268C391.602 81.4106 391.942 81.8309 392.368 82.1486C392.794 82.4663 393.294 82.6711 393.821 82.7441C394.956 82.7813 396.079 82.5063 397.068 81.949C398.129 81.4078 399.132 80.7596 400.061 80.0144C403.809 76.9229 407.272 73.501 410.407 69.79C408.956 71.7515 407.463 73.689 405.838 75.5203C404.223 77.3748 402.467 79.1014 400.586 80.6848C399.623 81.4796 398.58 82.1738 397.476 82.7566C396.336 83.4132 395.037 83.7389 393.722 83.6973C393.034 83.6194 392.378 83.3665 391.815 82.9628C391.253 82.559 390.803 82.0178 390.509 81.3909C389.938 80.2261 389.618 78.9542 389.571 77.6577L390.387 77.9546C389.236 79.256 387.978 80.4584 386.626 81.5491C385.918 82.1458 385.077 82.5636 384.174 82.7671C383.907 82.8219 383.63 82.8084 383.37 82.7277C383.109 82.6471 382.873 82.5019 382.684 82.3056C382.355 81.9352 382.141 81.4774 382.067 80.9878C381.92 80.1141 381.895 79.2245 381.992 78.344C382.067 77.4838 382.195 76.629 382.373 75.7844C382.715 74.1042 383.16 72.4466 383.704 70.8208Z" fill="#E6952A"/>
<path d="M386.606 97.5781C387.17 97.5781 387.627 97.121 387.627 96.5571C387.627 95.9932 387.17 95.5361 386.606 95.5361C386.042 95.5361 385.585 95.9932 385.585 96.5571C385.585 97.121 386.042 97.5781 386.606 97.5781Z" fill="#5D1115"/>
<path d="M389.67 85.7197C390.234 85.7197 390.691 85.2626 390.691 84.6987C390.691 84.1348 390.234 83.6777 389.67 83.6777C389.107 83.6777 388.649 84.1348 388.649 84.6987C388.649 85.2626 389.107 85.7197 389.67 85.7197Z" fill="#5D1115"/>
<path d="M384.06 111.48C384.624 111.48 385.081 111.023 385.081 110.459C385.081 109.896 384.624 109.438 384.06 109.438C383.496 109.438 383.039 109.896 383.039 110.459C383.039 111.023 383.496 111.48 384.06 111.48Z" fill="#5D1115"/>
<path d="M381.969 126.151C382.533 126.151 382.99 125.694 382.99 125.13C382.99 124.566 382.533 124.109 381.969 124.109C381.405 124.109 380.948 124.566 380.948 125.13C380.948 125.694 381.405 126.151 381.969 126.151Z" fill="#5D1115"/>
<path d="M381.328 142.215C381.892 142.215 382.349 141.758 382.349 141.194C382.349 140.63 381.892 140.173 381.328 140.173C380.764 140.173 380.307 140.63 380.307 141.194C380.307 141.758 380.764 142.215 381.328 142.215Z" fill="#5D1115"/>
<path d="M385.034 71.8627C385.034 71.8627 391.797 71.9879 395.664 66.6117C397.508 64.0486 397.513 58.8633 397.332 55.8469C397.25 54.4949 397.462 53.1411 397.956 51.8796C398.639 50.1365 399.478 47.7614 401.183 47.6033C402.439 47.4868 402.944 47.1552 403.396 48.3676C404.144 50.3735 402.845 52.5862 401.941 54.1274C400.646 56.3326 399.547 56.814 399.527 58.3398C399.512 59.5037 401.376 61.4402 402.148 61.5254C403.455 61.6697 404.045 57.7077 407.548 51.0993C409.76 46.9264 410.777 46.1436 411.033 43.5386C411.124 42.6137 411.501 38.7844 409.196 36.5574C408.127 35.5244 407.519 35.8391 402.871 33.8708C401.58 33.3588 400.319 32.7771 399.091 32.1283C395.389 30.1058 395.471 29.0655 393.305 28.4497C391.347 27.8934 391.231 28.729 387.494 28.5077C383.891 28.2945 383.571 27.4922 381.906 27.9673C379.014 28.7919 377.625 31.8808 377.252 32.7108C376.507 34.1476 376.124 35.7442 376.136 37.3624C376.295 39.0042 376.903 40.5704 377.893 41.8893C378.363 42.3678 380.268 39.6094 381.306 38.5717C382.324 37.5551 383.48 37.9713 385.056 38.0693C386.593 38.1649 386.509 39.1218 388.781 39.9619C389.591 40.2612 392.835 38.8076 393.883 40.6033C394.999 42.5166 395.866 42.7484 395.342 44.5288C395.015 45.641 395.218 47.0075 395.623 49.7407C395.913 51.7021 394.326 58.5531 394.326 58.5531C394.187 58.8373 393.993 59.0912 393.755 59.2999C393.517 59.5087 393.24 59.6682 392.94 59.7694C392.64 59.8705 392.323 59.9111 392.007 59.889C391.691 59.867 391.383 59.7825 391.1 59.6406C389.38 58.7554 387.603 57.9872 385.78 57.3413C384.692 56.9704 383.534 56.8458 382.391 56.9764C381.249 57.1071 380.149 57.4897 379.172 58.0968C378.493 58.5118 377.796 58.9766 377.243 59.3959C376.876 59.6746 376.584 60.0393 376.391 60.4579C376.199 60.8765 376.112 61.336 376.14 61.7959C376.34 64.7363 377.561 71.9284 385.034 71.8627ZM378.607 61.6471C378.886 60.2465 380.975 59.7018 382.167 59.3922C383.112 59.0589 384.135 59.0227 385.101 59.2884C385.33 59.3592 387.406 60.0726 387.594 61.7456C387.783 63.4188 385.917 64.5854 385.624 64.7607C384.926 65.1803 384.132 65.4142 383.318 65.44C382.504 65.4659 381.696 65.2828 380.973 64.9084C379.902 64.3547 378.335 62.9932 378.607 61.6471Z" fill="#1E1D22"/>
<path d="M81.2065 84.1283H61.0391C60.7738 84.1283 60.5195 84.023 60.332 83.8355C60.1444 83.6479 60.0391 83.3936 60.0391 83.1283V57.6523C60.0391 57.3871 60.1444 57.1328 60.332 56.9452C60.5195 56.7577 60.7738 56.6523 61.0391 56.6523H88.9963C89.2616 56.6523 89.5159 56.7577 89.7034 56.9452C89.891 57.1328 89.9963 57.3871 89.9963 57.6523V76.1888L81.2065 84.1283Z" fill="#FFE3CB"/>
<path d="M89.996 76.2197H81.207V84.1277L89.996 76.2197Z" fill="#FECA9C"/>
<path d="M79.0073 54.0801H70.0273C69.4751 54.0801 69.0273 54.5278 69.0273 55.0801V58.4801C69.0273 59.0324 69.4751 59.4801 70.0273 59.4801H79.0073C79.5596 59.4801 80.0073 59.0324 80.0073 58.4801V55.0801C80.0073 54.5278 79.5596 54.0801 79.0073 54.0801Z" fill="#FECA9C"/>
<path d="M82.0068 66H67.9668V67H82.0068V66Z" fill="#FECA9C"/>
<path d="M82.0068 72H67.9668V73H82.0068V72Z" fill="#FECA9C"/>
<path d="M27.688 240.756C30.0997 242.63 34.3487 247.08 34.4633 250.418C34.4633 250.418 42.2722 241.927 40.0521 234.666C38.7369 231.952 36.5549 229.755 33.8509 228.42C33.8509 228.42 36.913 226.702 40.1284 230.918C40.1284 230.918 38.9802 219.519 23.0949 223.657C23.0949 223.657 16.8937 211.008 4.60662 222.954C4.60662 222.954 12.8746 221.9 11.267 224.477C8.27381 225.318 5.47237 226.732 3.01795 228.641C2.19472 229.37 1.52523 230.256 1.04869 231.247C0.572156 232.238 0.298149 233.314 0.242722 234.412C0.0514621 237.496 -0.241978 243.599 0.357722 243.684C1.16141 243.801 6.44394 238.999 10.0038 239.351C13.5637 239.702 1.85046 250.242 1.85046 250.242C1.85046 250.242 4.26215 259.378 5.29573 259.26C6.329 259.143 10.0805 256.528 8.54911 259.26L5.90811 261.369L9.35311 266.131L18.004 262.305C18.004 262.305 14.1762 251.843 17.6978 254.693C17.6978 254.693 20.377 258.246 20.4153 260.9C20.4153 260.9 31.9943 255.864 30.8462 252.409C29.596 249.203 28.134 246.084 26.4698 243.072C26.1907 242.563 26.0274 241.999 25.9913 241.42C25.953 240.541 26.1825 239.585 27.688 240.756ZM26.2654 228.628C27.3501 227.88 30.0169 228.361 31.0184 230.801C32.0903 233.41 32.0454 236.319 30.9611 237.067C29.8764 237.815 26.795 236.839 26.0231 234.315C25.1683 231.504 25.181 229.376 26.2654 228.628Z" fill="#8B9D36"/>
<path d="M23.0944 223.657C21.8596 225.062 20.718 226.547 19.6769 228.101C18.6926 229.681 17.8807 231.362 17.255 233.115C16.6342 234.874 16.1019 236.662 15.6598 238.473C15.1978 240.289 14.7565 242.103 14.3886 243.935C13.9988 245.762 13.6581 247.601 13.3792 249.447C13.092 251.293 12.9267 253.151 12.6998 255.018C12.2597 258.769 11.141 262.408 9.39844 265.758C10.1412 264.041 10.7542 262.27 11.2322 260.46C11.7279 258.663 12.0542 256.823 12.207 254.965C12.4827 251.215 13.001 247.487 13.7586 243.804C14.148 241.964 14.6122 240.138 15.0934 238.326C15.5466 236.496 16.1147 234.697 16.7944 232.938C17.4841 231.178 18.3631 229.497 19.4158 227.926C20.5322 226.412 21.762 224.985 23.0944 223.657Z" fill="#5E7C24"/>
<path d="M18.5851 229.608C17.3219 229.875 16.0796 230.232 14.8681 230.679C13.6601 231.118 12.466 231.594 11.3071 232.151C8.95697 233.2 6.72783 234.491 4.45312 235.759C4.94978 235.338 5.4682 234.944 5.98236 234.542C6.52063 234.177 7.05066 233.795 7.60169 233.446C8.70977 232.753 9.85732 232.125 11.0385 231.566C12.2322 231.028 13.462 230.575 14.7189 230.208C15.9747 229.835 17.2752 229.633 18.5851 229.608ZM13.3515 247.721C12.4618 248.411 11.5357 248.976 10.6313 249.565C10.178 249.856 9.73538 250.156 9.30332 250.466C8.85763 250.762 8.48244 251.152 8.20432 251.609C8.26536 251.027 8.53683 250.488 8.9677 250.092C9.36527 249.689 9.80585 249.331 10.2815 249.024C11.2197 248.412 12.2591 247.971 13.3515 247.721ZM15.1251 239.379C16.1735 240.361 17.1514 241.416 18.0514 242.535C18.9581 243.653 19.799 244.823 20.5697 246.038C21.3362 247.263 21.994 248.553 22.5355 249.893C23.0943 251.23 23.4006 252.659 23.439 254.107C23.1596 252.715 22.7029 251.364 22.08 250.088C21.481 248.805 20.7938 247.566 20.0234 246.378C19.3014 245.157 18.4788 243.997 17.6587 242.834C16.8358 241.672 15.9861 240.526 15.1251 239.379Z" fill="#5E7C24"/>
<path d="M4.5293 275.969L7.74465 278.936C7.74465 278.936 10.8834 275.618 11.2279 277.921C11.2279 277.921 10.7303 280.224 10.1179 280.42C10.1179 280.42 17.8117 286.607 19.362 281.513C19.9852 279.234 20.772 277.003 21.7161 274.837C21.7161 274.837 23.4386 275.774 21.9458 283.152C21.9458 283.152 27.9001 281.402 30.1113 278.192C30.3653 277.814 30.5007 277.368 30.5003 276.912C30.5216 275.076 30.7635 269.911 32.855 271.85C32.855 271.85 34.0608 272.436 33.1421 276.359C33.1421 276.359 37.988 270.896 35.6862 267.539C35.2314 266.91 34.5726 266.458 33.822 266.26C33.0714 266.061 32.2754 266.13 31.5694 266.452C30.2237 267.037 27.7268 268.112 23.0942 270.094C17.1299 272.7 10.9071 274.67 4.5293 275.969Z" fill="#8B9D36"/>
<path d="M15.125 280.497C15.4229 278.81 15.9557 277.172 16.7078 275.632C17.079 274.85 17.5349 274.111 18.0673 273.429C18.3386 273.082 18.6524 272.771 19.0012 272.502C19.3473 272.222 19.7788 272.067 20.2244 272.065C19.4643 272.394 18.8448 272.982 18.4751 273.723C18.0383 274.431 17.6415 275.162 17.2863 275.914C16.5471 277.417 15.8887 278.965 15.125 280.497ZM25.5825 278.077C25.4946 276.565 25.632 275.049 25.9901 273.578C26.1686 272.836 26.4204 272.113 26.7418 271.42C27.0374 270.696 27.5745 270.096 28.2619 269.723C27.7648 270.26 27.4029 270.908 27.2059 271.613C26.9815 272.307 26.7887 273.014 26.6159 273.73C26.2673 275.163 25.978 276.616 25.5825 278.077ZM79.095 224.89C79.095 224.89 71.3629 225.999 78.2529 231.465C78.2529 231.465 80.0137 232.948 85.7554 234.666C85.7554 234.666 89.3536 219.017 79.095 224.89Z" fill="#5E7C24"/>
<path d="M85.7561 234.666C85.6129 234.153 85.5191 233.64 85.3903 233.136C85.2293 232.639 85.113 232.134 84.9368 231.65C84.6056 230.683 84.1722 229.753 83.644 228.877C83.1058 228.015 82.4496 227.232 81.6945 226.551C80.9274 225.855 80.0489 225.294 79.0957 224.89C80.157 225.067 81.1582 225.503 82.0105 226.16C82.8768 226.812 83.6158 227.618 84.1907 228.537C84.7457 229.461 85.1591 230.462 85.4171 231.508C85.5574 232.023 85.6102 232.558 85.6991 233.079C85.7252 233.611 85.7574 234.139 85.7561 234.666Z" fill="#50661A"/>
<path d="M69.2824 193.274C69.2824 193.274 77.8547 187.813 80.4223 199.94C80.4223 199.94 75.9736 196.11 75.9146 198.326C77.3557 200.013 78.452 201.966 79.1416 204.075C79.5413 205.647 79.3192 207.312 78.5215 208.724C77.4319 210.707 75.2303 214.602 74.8434 214.426C74.3253 214.19 73.0915 209.183 70.8624 208.034C68.6333 206.884 71.4109 217.919 71.4109 217.919C71.4109 217.919 66.4346 222.658 65.8729 222.188C65.3111 221.718 64.1245 218.657 63.9602 220.939L64.6916 223.26L60.8113 224.89L57.2175 219.195C57.2175 219.195 63.5433 214.178 60.3633 214.592C60.3633 214.592 57.4044 215.766 56.3477 217.397C56.3477 217.397 51.5043 209.827 53.5253 208.126C55.4993 206.626 57.5684 205.257 59.7197 204.025C60.1536 203.778 60.5166 203.424 60.7737 202.996C61.0587 202.505 61.1142 201.982 59.9212 202.113C57.7739 202.349 53.5429 203.476 52.175 205.502C52.175 205.502 50.8936 197.238 55.0273 193.588C56.8281 192.422 58.9693 191.896 61.1053 192.096C61.1053 192.096 59.9748 189.855 56.4424 191.234C56.4423 191.234 61.5583 184.607 69.2824 193.274Z" fill="#5E7C24"/>
<path d="M73.1245 206.85C72.4249 205.145 71.7684 203.455 70.9705 201.844C70.5787 201.045 70.1145 200.283 69.5835 199.569C69.0848 198.824 68.3214 198.296 67.4481 198.093C67.9264 198.078 68.4018 198.173 68.8374 198.371C69.2731 198.569 69.6573 198.865 69.9602 199.236C70.5963 199.93 71.1304 200.711 71.5462 201.555C72.3648 203.22 72.8982 205.01 73.1245 206.85ZM55.5166 210.93C55.9536 209.984 56.5038 209.094 57.1552 208.28C57.7984 207.447 58.5457 206.701 59.3788 206.058C60.216 205.395 61.1747 204.903 62.201 204.609C63.23 204.336 64.3165 204.371 65.3257 204.71C64.3185 204.624 63.3044 204.753 62.351 205.089C61.421 205.45 60.5509 205.949 59.7701 206.569C58.9686 207.184 58.2205 207.866 57.534 208.608C56.8401 209.35 56.158 210.116 55.5166 210.93Z" fill="#50661A"/>
<path d="M63.5548 194.377C63.8706 193.955 64.2673 193.6 64.7217 193.333C65.1761 193.066 65.6792 192.893 66.2015 192.822C66.7258 192.74 67.2584 192.726 67.7862 192.78C68.3122 192.84 68.8318 192.947 69.3387 193.099L69.5273 193.152L69.4503 193.347C68.4488 195.876 67.598 198.474 66.7578 201.067C65.9356 203.668 65.1949 206.293 64.4697 208.923C63.7725 211.56 63.1198 214.209 62.5118 216.871C61.9002 219.532 61.3621 222.209 60.8115 224.889C61.148 222.175 61.5522 219.466 62.0821 216.781C62.564 214.085 63.2183 211.424 63.8821 208.768C64.5518 206.112 65.3471 203.489 66.2033 200.887C67.0543 198.283 68.0078 195.715 69.1149 193.2L69.2263 193.447L68.4948 193.229C68.2459 193.182 67.9984 193.12 67.7481 193.079C67.2462 192.998 66.7361 192.981 66.2301 193.03C65.1977 193.116 64.2388 193.599 63.5548 194.377Z" fill="#50661A"/>
<path d="M66.2048 217.821C65.9556 216.886 65.6115 215.979 65.1779 215.114C64.9755 214.725 64.672 214.398 64.2994 214.167C63.8688 213.975 63.3987 213.888 62.9277 213.912C63.1612 213.774 63.4201 213.684 63.689 213.649C63.9579 213.613 64.2312 213.631 64.4927 213.703C65.025 213.903 65.4664 214.289 65.7343 214.79C66.2376 215.715 66.4039 216.787 66.2048 217.821Z" fill="#50661A"/>
<path d="M37.6019 280.497C37.6019 280.497 36.0779 275.237 32.2094 278.211C30.8944 279.256 29.9537 280.699 29.5286 282.324C28.8309 284.841 28.2279 289.404 29.9463 295.879C29.9463 295.879 33.9065 290.4 36.8363 288.461C40.1404 286.275 42.2718 281.278 37.6019 280.497Z" fill="#C4CE6E"/>
<path d="M37.6028 280.497C37.021 280.927 36.5135 281.449 36.1003 282.043C35.663 282.615 35.267 283.217 34.9155 283.845C34.1993 285.096 33.5624 286.392 33.0085 287.724C32.4242 289.046 31.9203 290.404 31.42 291.766L29.9473 295.879C30.073 295.159 30.2394 294.448 30.3848 293.731C30.553 293.019 30.7621 292.319 30.9493 291.611C31.356 290.205 31.8707 288.832 32.4173 287.47C33.0048 286.12 33.7005 284.82 34.4975 283.582C35.2568 282.309 36.3249 281.248 37.6028 280.497ZM43.1862 207.423C43.1862 207.423 43.3153 201.939 38.7396 203.562C37.1743 204.146 35.8438 205.227 34.9524 206.64C33.5322 208.819 31.588 212.973 31.2794 219.674C31.2794 219.674 36.6947 215.695 40.0658 214.765C43.8677 213.716 47.3972 209.625 43.1862 207.423Z" fill="#8B9D36"/>
<path d="M43.1851 207.423C42.5024 207.65 41.862 207.988 41.2899 208.424C40.7015 208.832 40.1434 209.281 39.6199 209.769C38.5617 210.738 37.5661 211.772 36.639 212.867C35.6859 213.944 34.7986 215.079 33.9138 216.219L31.2783 219.674C31.6139 219.029 31.9855 218.405 32.3391 217.768C32.7122 217.144 33.1216 216.543 33.5121 215.929C34.3333 214.724 35.2146 213.561 36.1528 212.445C37.1177 211.344 38.1709 210.322 39.3019 209.392C40.4079 208.416 41.7444 207.739 43.1851 207.423Z" fill="#5E7C24"/>
<path d="M77.7199 280.497C77.7199 280.497 79.2438 275.237 83.1123 278.211C84.4273 279.256 85.368 280.699 85.7931 282.324C86.4908 284.841 87.0939 289.404 85.3755 295.879C85.3755 295.879 81.4152 290.4 78.4855 288.461C75.1813 286.275 73.05 281.278 77.7199 280.497Z" fill="#8B9D36"/>
<path d="M77.7197 280.497C78.9977 281.248 80.0657 282.309 80.8251 283.582C81.622 284.82 82.3177 286.12 82.9052 287.47C83.4633 288.825 83.9533 290.207 84.3732 291.611C84.5603 292.319 84.7696 293.019 84.9377 293.73C85.0831 294.448 85.2495 295.158 85.3753 295.878L83.9025 291.766C83.4021 290.404 82.8983 289.046 82.3139 287.723C81.7601 286.392 81.1232 285.096 80.407 283.844C80.0555 283.216 79.6595 282.614 79.2221 282.043C78.809 281.449 78.3015 280.927 77.7197 280.497Z" fill="#5E7C24"/>
<path d="M76.4999 255.44C76.4999 255.44 61.9038 278.546 60.5474 304.585M79.0956 224.89C79.0956 224.89 59.8341 208.432 54.8427 304.585L79.0956 224.89ZM60.8115 224.89C60.8115 224.89 51.2292 288.306 56.9709 304.585L60.8115 224.89ZM53.3178 304.585C53.3178 304.585 46.1966 276.008 37.6022 280.498L53.3178 304.585ZM54.3411 296.063C54.3411 296.063 60.5474 189.891 43.1856 207.424L54.3411 296.063ZM62.0047 304.585C62.0047 304.585 69.1258 276.008 77.7202 280.498L62.0047 304.585ZM35.1465 266.94C35.1465 266.94 48.6263 263.633 55.9757 303.921L35.1465 266.94ZM39.587 241.977C39.587 241.977 43.4924 244.582 58.27 303.921L39.587 241.977Z" stroke="#50661A" stroke-width="0.644" stroke-miterlimit="10"/>
<path d="M37.6788 297.764V303.111C37.674 303.602 37.8646 304.075 38.2086 304.426C38.5526 304.777 39.0219 304.977 39.5132 304.982H76.2659C76.7573 304.977 77.2265 304.777 77.5706 304.426C77.9146 304.075 78.1051 303.602 78.1003 303.111V298.184C78.105 297.696 77.9172 297.226 77.5776 296.876C77.2381 296.525 76.7742 296.323 76.2865 296.313L39.5337 295.894C39.2887 295.893 39.046 295.941 38.8198 296.036C38.5935 296.13 38.3882 296.268 38.2157 296.442C38.0432 296.616 37.9069 296.822 37.8147 297.049C37.7226 297.276 37.6764 297.519 37.6788 297.764Z" fill="#D6694B"/>
<path d="M39.4336 304.98L40.7406 332.574H74.1746L76.3466 304.98H39.4336Z" fill="#E19974"/>
<path d="M70.4827 253.866C70.5338 251.348 75.7397 255.916 75.7397 255.916C72.639 241.999 62.7315 247.802 62.7315 247.802C53.6723 237.574 47.7904 244.868 47.7904 244.868C51.8796 243.469 53.2131 246.072 53.2131 246.072C50.7719 245.728 48.2865 246.224 46.1634 247.477C41.398 251.433 42.9611 260.893 42.9611 260.893C44.5305 258.655 49.4427 257.575 51.9307 257.406C53.4938 257.302 53.2194 258.07 52.7985 258.655C52.516 259.035 52.152 259.346 51.7332 259.566C49.2452 260.863 46.8474 262.326 44.556 263.945C42.221 265.78 47.9244 274.622 47.9244 274.622C49.1364 272.82 52.5624 271.623 52.5624 271.623C56.2562 271.304 48.9514 276.711 48.9514 276.711L53.181 283.36L57.6789 281.688L56.8048 279.014C56.977 276.424 58.3807 279.964 59.0377 280.523C59.6947 281.09 65.4363 275.936 65.4363 275.936C65.4363 275.936 62.1063 263.249 64.7027 264.667C67.3057 266.079 68.7856 271.831 69.3918 272.124C69.8448 272.345 72.3648 268.018 73.6152 265.812C74.0681 265.025 74.361 264.155 74.4771 263.254C74.5931 262.353 74.5301 261.438 74.2915 260.562C73.4561 258.109 72.1637 255.838 70.4827 253.866ZM55.9562 253.762C54.2975 255.135 51.7456 254.374 51.3375 253.352C50.9226 252.337 52.1923 250.314 54.0934 249.026C55.8734 247.815 57.9212 248.72 58.3296 249.741C58.7442 250.756 57.8001 252.227 55.9562 253.762Z" fill="#5E7C24"/>
<path d="M62.7308 247.803C63.061 249.319 63.2769 250.859 63.3767 252.408C63.4074 253.969 63.2686 255.53 62.9627 257.062C62.6511 258.587 62.2407 260.09 61.734 261.562C61.2555 263.032 60.76 264.505 60.2059 265.955C59.0766 268.845 57.7573 271.657 56.2568 274.373C55.5244 275.722 54.9205 277.137 54.4533 278.6C53.9657 280.064 53.5864 281.561 53.3184 283.081C53.5943 279.975 54.4407 276.947 55.8149 274.149C57.2397 271.416 58.5055 268.602 59.6058 265.723C60.1733 264.292 60.6822 262.84 61.1786 261.377C61.6788 259.918 62.1282 258.45 62.4799 256.96C62.8355 255.469 63.0309 253.945 63.0628 252.412C63.048 250.87 62.9371 249.331 62.7308 247.803Z" fill="#50661A"/>
<path d="M63.1669 253.985C64.0741 254.596 64.8915 255.331 65.5953 256.168C66.3078 256.996 66.9536 257.88 67.5266 258.81C68.096 259.74 68.6013 260.707 69.0389 261.706C69.4767 262.702 69.8389 263.729 70.1222 264.779L68.5876 261.927C68.065 260.99 67.5469 260.053 66.9786 259.148C66.4202 258.237 65.8286 257.348 65.2038 256.481C64.579 255.606 63.8986 254.773 63.1669 253.985ZM58.6651 268.857C59.3371 269.51 59.8734 270.29 60.2435 271.151C60.4337 271.584 60.5731 272.038 60.6588 272.504C60.7726 272.984 60.7023 273.488 60.4621 273.919C60.4531 273.475 60.3548 273.038 60.173 272.633C60.0064 272.225 59.835 271.817 59.6535 271.409C59.2693 270.58 58.9391 269.728 58.6651 268.857ZM61.1758 262.303L57.9058 263.541C56.826 263.965 55.7511 264.395 54.7051 264.882C53.6515 265.346 52.6269 265.874 51.637 266.462C50.6362 267.042 49.7113 267.744 48.8838 268.552C49.5383 267.562 50.3796 266.71 51.3605 266.042C52.3261 265.359 53.3573 264.774 54.4388 264.296C56.581 263.322 58.8485 262.651 61.1758 262.303Z" fill="#50661A"/>
<path d="M93.5844 238.134C93.5844 238.134 101.053 226.978 110.393 240.152C110.393 240.152 103.078 237.945 104.15 240.635C106.751 241.886 109.076 243.643 110.99 245.802C112.284 247.485 112.877 249.603 112.645 251.713C112.361 254.678 111.73 260.535 111.174 260.531C110.431 260.525 106.366 255.18 103.098 254.997C99.8299 254.815 108.858 266.566 108.858 266.566C108.858 266.566 105.332 274.923 104.416 274.661C103.499 274.399 100.495 271.363 101.476 274.189L103.552 276.582L99.7366 280.621L92.4846 275.716C92.4846 275.716 97.4861 266.299 93.884 268.504C93.884 268.504 90.9391 271.501 90.513 274.026C90.513 274.026 80.7937 267.542 82.3408 264.415C83.9328 261.561 85.7053 258.811 87.6475 256.182C88.0388 255.658 88.2933 255.044 88.388 254.396C88.485 253.643 88.2937 252.958 86.9126 253.766C84.4574 255.202 79.9621 258.826 79.3661 261.992C79.3661 261.992 73.563 252.762 76.6398 246.163C78.1942 243.802 80.4891 242.025 83.1637 241.11C83.1637 241.11 80.6502 239.028 77.1233 242.579C77.1233 242.579 79.8419 231.88 93.5844 238.134Z" fill="#C4CE6E"/>
<path d="M93.584 238.134C94.8894 241.494 95.9685 244.937 96.8141 248.441C97.6902 251.939 98.3682 255.485 98.8992 259.052C99.4154 262.622 99.7496 266.216 99.9006 269.82C100.056 273.42 100.001 277.027 99.7361 280.621C99.7078 277.021 99.6897 273.428 99.4058 269.847C99.1788 266.264 98.7977 262.697 98.2624 259.145C97.7871 255.587 97.1032 252.061 96.3339 248.554C95.5601 245.049 94.6676 241.566 93.584 238.134Z" fill="#8B9D36"/>
<path d="M95.4484 244.072C94.8442 244.824 94.3043 245.625 93.8344 246.467C93.3654 247.3 92.9424 248.157 92.5674 249.036C92.1912 249.914 91.8636 250.814 91.5604 251.726C91.2601 252.64 90.9916 253.568 90.7061 254.506C90.7359 253.525 90.8596 252.55 91.0757 251.592C91.2917 250.631 91.5928 249.691 91.9755 248.783C92.3658 247.875 92.8472 247.009 93.4124 246.198C93.9672 245.38 94.6555 244.662 95.4484 244.072ZM98.5558 258.848C99.5448 259.071 100.477 259.495 101.295 260.094C102.113 260.693 102.799 261.454 103.309 262.33C103.651 262.91 103.894 263.542 104.027 264.202C103.343 263.111 102.533 262.104 101.613 261.202C100.68 260.312 99.6553 259.523 98.5558 258.848Z" fill="#8B9D36"/>
<path d="M481.982 333.575H29.9824C29.7172 333.575 29.4629 333.47 29.2753 333.282C29.0878 333.095 28.9824 332.84 28.9824 332.575C28.9824 332.31 29.0878 332.056 29.2753 331.868C29.4629 331.681 29.7172 331.575 29.9824 331.575H481.982C482.248 331.575 482.502 331.681 482.69 331.868C482.877 332.056 482.982 332.31 482.982 332.575C482.982 332.84 482.877 333.095 482.69 333.282C482.502 333.47 482.248 333.575 481.982 333.575Z" fill="#935B50"/>
</svg>
