<svg width="508" height="334" viewBox="0 0 508 334" fill="none" xmlns="http://www.w3.org/2000/svg">
<path d="M339.08 332.815C355.568 327.735 370.361 322.545 388.158 312.695C406.513 302.535 488.05 254.185 498.653 170.505C501.431 147.571 499.126 124.316 491.896 102.345C488.618 92.8754 481.82 73.8554 464.663 55.0454C443.659 32.0054 419.693 23.0754 405.641 18.0254C376.074 7.3954 351.276 7.9554 339.465 8.3354C326.721 8.7454 304.226 9.6654 278.657 20.6754C261.977 27.8554 251.607 36.0454 236.326 48.2854C212.117 67.6954 208.931 75.7754 166.579 115.855C154.951 126.855 145.393 135.525 130.803 144.065C120.687 149.985 112.509 153.295 97.4209 159.335C60.3355 174.185 49.7765 177.192 37.6413 185.552C14.0406 201.822 15.5692 219.565 14.5546 223.385C11.9161 233.155 11.3052 243.348 12.7587 253.355C15.8533 273.425 26.8217 286.545 33.63 294.485C42.9753 305.285 54.2998 314.255 67.0119 320.925C75.8368 325.514 84.9776 329.487 94.3668 332.815H339.08Z" fill="#EFEDEF"/>
<path d="M277.122 14.0166C303.753 2.55636 327.181 1.58951 340.464 1.16402C352.757 0.770265 378.588 0.189025 409.394 11.2625C424.031 16.524 448.992 25.8258 470.872 49.8202C488.738 69.4125 495.819 89.2269 499.231 99.0883C506.759 121.973 509.16 146.195 506.269 170.083C495.23 257.251 410.296 307.609 391.178 318.194" stroke="#6A8D99" stroke-miterlimit="10"/>
<path d="M350.988 332.325H316.054L311.458 279.436H355.585L350.988 332.325Z" fill="#FFE3CB"/>
<path d="M316.054 332.325C318.766 323.446 321.584 314.601 324.418 305.762C325.815 301.336 327.282 296.932 328.716 292.518L333.039 279.281C333.072 279.181 333.136 279.093 333.223 279.031C333.309 278.969 333.414 278.936 333.521 278.936C333.628 278.936 333.732 278.969 333.819 279.031C333.906 279.093 333.97 279.181 334.003 279.281L338.327 292.517C339.759 296.932 341.228 301.335 342.625 305.761L346.858 319.027L350.988 332.325L346.385 319.178L341.883 305.999C340.369 301.611 338.927 297.199 337.449 292.799L333.039 279.591H334.003L329.592 292.799C328.115 297.199 326.67 301.61 325.157 305.999C322.168 314.789 319.164 323.574 316.054 332.325Z" fill="#904D24"/>
<path d="M311.457 279.437C315.328 288.173 319.096 296.951 322.848 305.735L328.431 318.93L333.989 332.135H333.052L338.61 318.93C340.471 314.532 342.296 310.119 344.192 305.735L349.839 292.566L355.584 279.437L350.299 292.752L344.914 306.027C343.132 310.458 341.28 314.86 339.464 319.276L333.989 332.515C333.951 332.607 333.887 332.686 333.803 332.741C333.72 332.796 333.621 332.826 333.521 332.826C333.42 332.826 333.322 332.796 333.238 332.741C333.155 332.686 333.09 332.607 333.052 332.515L327.579 319.276L322.13 306.026C318.527 297.181 314.941 288.33 311.457 279.437Z" fill="#904D24"/>
<path d="M313.755 308.599C317.049 308.393 320.344 308.296 323.638 308.216C326.932 308.125 330.226 308.112 333.52 308.1C336.815 308.111 340.109 308.124 343.403 308.215L348.345 308.354C349.992 308.437 351.639 308.486 353.286 308.599C351.639 308.713 349.992 308.761 348.345 308.844L343.403 308.984C340.109 309.075 336.815 309.088 333.52 309.099C330.226 309.086 326.932 309.074 323.638 308.982C320.344 308.902 317.049 308.806 313.755 308.599Z" fill="#904D24"/>
<path d="M356.194 274.656H310.846C310.123 274.656 309.537 275.234 309.537 275.947V278.145C309.537 278.858 310.123 279.436 310.846 279.436H356.194C356.918 279.436 357.504 278.858 357.504 278.145V275.947C357.504 275.234 356.918 274.656 356.194 274.656Z" fill="#904D24"/>
<path d="M235.539 14.8086H227.295C224.817 14.8086 222.808 16.7888 222.808 19.2316V27.3566C222.808 29.7994 224.817 31.7796 227.295 31.7796H235.539C238.018 31.7796 240.027 29.7994 240.027 27.3566V19.2316C240.027 16.7888 238.018 14.8086 235.539 14.8086Z" fill="#DC8758"/>
<path d="M184.654 332.575H177.679L205.946 207.355L220.186 211.133L184.654 332.575Z" fill="#DC8758"/>
<path d="M279.033 332.575H286.007L257.741 207.355L243.501 211.133L279.033 332.575Z" fill="#DC8758"/>
<path d="M348.774 24.8271H113.604C111.952 24.8271 110.612 26.1475 110.612 27.7761V221.606C110.612 223.235 111.952 224.555 113.604 224.555H348.774C350.427 224.555 351.767 223.235 351.767 221.606V27.7761C351.767 26.1475 350.427 24.8271 348.774 24.8271Z" fill="#FFE3CB"/>
<path d="M251.99 60.7341C251.708 60.7339 251.437 60.6259 251.234 60.4329C251.032 60.2399 250.912 59.9769 250.902 59.6992C250.892 59.4216 250.992 59.1508 251.18 58.9439C251.368 58.7369 251.63 58.6099 251.911 58.5896L271.89 57.1418C272.033 57.1315 272.176 57.149 272.312 57.1932C272.448 57.2375 272.573 57.3077 272.682 57.3998C272.79 57.4919 272.879 57.6042 272.943 57.7301C273.007 57.8561 273.046 57.9933 273.056 58.1339C273.067 58.2745 273.049 58.4158 273.004 58.5496C272.959 58.6835 272.888 58.8073 272.794 58.914C272.701 59.0208 272.587 59.1083 272.459 59.1717C272.332 59.235 272.192 59.2729 272.05 59.2833L252.071 60.731C252.044 60.7331 252.017 60.7341 251.99 60.7341ZM271.97 66.2493H251.991C251.702 66.2493 251.425 66.1361 251.221 65.9347C251.016 65.7333 250.901 65.4602 250.901 65.1754C250.901 64.8906 251.016 64.6174 251.221 64.4161C251.425 64.2147 251.702 64.1015 251.991 64.1015H271.97C272.259 64.1015 272.536 64.2147 272.74 64.4161C272.945 64.6174 273.059 64.8906 273.059 65.1754C273.059 65.4602 272.945 65.7333 272.74 65.9347C272.536 66.1361 272.259 66.2493 271.97 66.2493ZM271.97 73.2116H251.991C251.702 73.2116 251.425 73.0985 251.221 72.8971C251.016 72.6957 250.901 72.4226 250.901 72.1378C250.901 71.853 251.016 71.5798 251.221 71.3784C251.425 71.177 251.702 71.0639 251.991 71.0639H271.97C272.259 71.0639 272.536 71.177 272.74 71.3784C272.945 71.5798 273.059 71.853 273.059 72.1378C273.059 72.4226 272.945 72.6957 272.74 72.8971C272.536 73.0985 272.259 73.2116 271.97 73.2116ZM271.97 77.8909H251.991C251.702 77.8909 251.425 77.7778 251.221 77.5764C251.016 77.375 250.901 77.1018 250.901 76.817C250.901 76.5322 251.016 76.2591 251.221 76.0577C251.425 75.8563 251.702 75.7432 251.991 75.7432H271.97C272.259 75.7432 272.536 75.8563 272.74 76.0577C272.945 76.2591 273.059 76.5322 273.059 76.817C273.059 77.1018 272.945 77.375 272.74 77.5764C272.536 77.7778 272.259 77.8909 271.97 77.8909ZM157.277 193.538C156.988 193.538 156.711 193.425 156.507 193.224C156.302 193.023 156.188 192.749 156.188 192.465V58.2125C156.188 57.9277 156.302 57.6546 156.507 57.4532C156.711 57.2518 156.988 57.1387 157.277 57.1387C157.566 57.1387 157.843 57.2518 158.048 57.4532C158.252 57.6546 158.367 57.9277 158.367 58.2125V192.465C158.367 192.749 158.252 193.023 158.048 193.224C157.843 193.425 157.566 193.538 157.277 193.538Z" fill="#904D24"/>
<path d="M328.726 170.919H133.652C133.363 170.919 133.086 170.806 132.882 170.605C132.678 170.403 132.563 170.13 132.563 169.845C132.563 169.561 132.678 169.287 132.882 169.086C133.086 168.885 133.363 168.772 133.652 168.772H328.726C329.015 168.772 329.292 168.885 329.496 169.086C329.701 169.287 329.816 169.561 329.816 169.845C329.816 170.13 329.701 170.403 329.496 170.605C329.292 170.806 329.015 170.919 328.726 170.919ZM167.401 157.864C167.204 157.863 167.011 157.81 166.842 157.711C166.673 157.611 166.535 157.468 166.442 157.297C166.349 157.126 166.305 156.933 166.314 156.739C166.323 156.545 166.386 156.357 166.495 156.195L186.07 127.155C186.178 126.998 186.325 126.872 186.497 126.789C186.67 126.705 186.861 126.667 187.052 126.678C187.244 126.691 187.43 126.754 187.589 126.86C187.748 126.967 187.876 127.113 187.96 127.284L197.797 147.45L224.477 94.8984C224.574 94.7025 224.73 94.5409 224.923 94.4356C225.117 94.3303 225.339 94.2865 225.559 94.3101C225.778 94.3314 225.986 94.4177 226.154 94.5578C226.323 94.6978 226.444 94.885 226.503 95.0945L235.929 128.971L244.078 114.773C244.178 114.599 244.325 114.456 244.503 114.36C244.68 114.264 244.882 114.219 245.084 114.229C245.286 114.24 245.482 114.306 245.648 114.419C245.815 114.533 245.946 114.691 246.026 114.874L257.077 139.978L264.925 118.261C264.994 118.071 265.116 117.903 265.276 117.778C265.437 117.653 265.631 117.575 265.835 117.554C266.038 117.53 266.245 117.565 266.429 117.653C266.614 117.742 266.769 117.881 266.876 118.053L274.624 130.315L302.102 76.3349C302.197 76.1476 302.346 75.9918 302.53 75.8868C302.714 75.7818 302.925 75.7321 303.137 75.7439C303.35 75.7557 303.554 75.8284 303.724 75.953C303.895 76.0777 304.025 76.2489 304.099 76.4455L309.334 90.4719L327.765 56.4122C327.832 56.2877 327.924 56.1776 328.034 56.088C328.145 55.9985 328.272 55.9313 328.409 55.8902C328.546 55.8492 328.689 55.8351 328.832 55.8488C328.974 55.8626 329.113 55.9038 329.239 55.9702C329.365 56.0365 329.477 56.1268 329.568 56.2357C329.659 56.3447 329.727 56.4702 329.768 56.6051C329.81 56.74 329.824 56.8817 329.81 57.0221C329.797 57.1625 329.755 57.2987 329.687 57.4232L310.112 93.5975C310.013 93.7803 309.863 93.931 309.679 94.0314C309.495 94.1317 309.286 94.1776 309.076 94.1633C308.866 94.1491 308.665 94.0754 308.497 93.9511C308.329 93.8268 308.201 93.6572 308.128 93.4628L302.922 79.514L275.701 132.989C275.614 133.16 275.482 133.305 275.32 133.409C275.157 133.513 274.97 133.572 274.776 133.581C274.584 133.587 274.392 133.543 274.222 133.455C274.051 133.366 273.906 133.236 273.802 133.076L266.22 121.078L258.203 143.263C258.129 143.466 257.996 143.643 257.819 143.77C257.643 143.897 257.431 143.969 257.213 143.976C256.994 143.983 256.778 143.926 256.594 143.81C256.409 143.695 256.264 143.528 256.177 143.33L244.898 117.707L236.525 132.294C236.419 132.479 236.26 132.629 236.067 132.724C235.874 132.82 235.657 132.857 235.443 132.831C235.229 132.805 235.027 132.717 234.864 132.578C234.701 132.438 234.583 132.255 234.526 132.05L225.153 98.3665L198.752 150.368C198.655 150.543 198.513 150.69 198.34 150.794C198.168 150.898 197.971 150.956 197.769 150.962C197.565 150.96 197.365 150.902 197.193 150.795C197.021 150.687 196.883 150.534 196.795 150.353L186.825 129.916L168.31 157.384C168.211 157.531 168.076 157.653 167.917 157.736C167.758 157.82 167.581 157.864 167.401 157.864ZM138.377 141.86C138.088 141.86 137.811 141.747 137.607 141.545C137.403 141.344 137.288 141.071 137.288 140.786V76.8162C137.288 76.5314 137.403 76.2583 137.607 76.0569C137.811 75.8555 138.088 75.7424 138.377 75.7424C138.666 75.7424 138.944 75.8555 139.148 76.0569C139.352 76.2583 139.467 76.5314 139.467 76.8162V140.786C139.467 141.071 139.352 141.344 139.148 141.545C138.944 141.747 138.666 141.86 138.377 141.86ZM286.202 187.718H286.186L184.262 186.303C183.973 186.299 183.697 186.182 183.496 185.977C183.295 185.773 183.184 185.498 183.188 185.214C183.196 184.93 183.316 184.661 183.522 184.463C183.729 184.266 184.005 184.155 184.293 184.155L286.217 185.57C286.504 185.574 286.779 185.69 286.98 185.892C287.181 186.095 287.293 186.368 287.291 186.651C287.289 186.935 287.174 187.206 286.97 187.406C286.766 187.606 286.489 187.718 286.202 187.718Z" fill="#904D24"/>
<path d="M269.657 217.124H193.95C192.67 217.124 191.632 218.147 191.632 219.409V225.648C191.632 226.91 192.67 227.933 193.95 227.933H269.657C270.938 227.933 271.976 226.91 271.976 225.648V219.409C271.976 218.147 270.938 217.124 269.657 217.124Z" fill="#DC8758"/>
<path d="M28.0936 240.756C30.5406 242.63 34.8518 247.08 34.9681 250.418C34.9681 250.418 42.8914 241.927 40.6388 234.666C39.3043 231.952 37.0904 229.755 34.3468 228.42C34.3468 228.42 37.4537 226.702 40.7162 230.918C40.7162 230.918 39.5512 219.519 23.4332 223.657C23.4332 223.657 17.1412 211.008 4.6741 222.954C4.6741 222.954 13.0632 221.9 11.432 224.477C8.39501 225.318 5.55253 226.732 3.06216 228.641C2.22687 229.37 1.54758 230.256 1.06406 231.247C0.580537 232.238 0.302516 233.314 0.246278 234.412C0.052216 237.496 -0.245522 243.599 0.362962 243.684C1.17842 243.801 6.53834 238.999 10.1504 239.351C13.7624 239.702 1.87757 250.242 1.87757 250.242C1.87757 250.242 4.32459 259.378 5.37331 259.26C6.42171 259.143 10.2281 256.528 8.67434 259.26L5.99466 261.369L9.49012 266.131L18.2677 262.305C18.2677 262.305 14.3838 251.843 17.957 254.693C17.957 254.693 20.6755 258.246 20.7144 260.9C20.7144 260.9 32.463 255.864 31.298 252.409C30.0295 249.203 28.5461 246.084 26.8575 243.072C26.5744 242.563 26.4086 241.999 26.372 241.42C26.3332 240.541 26.5661 239.585 28.0936 240.756ZM26.6501 228.628C27.7507 227.88 30.4566 228.361 31.4728 230.801C32.5604 233.41 32.5148 236.319 31.4146 237.067C30.314 237.815 27.1875 236.839 26.4043 234.315C25.5369 231.504 25.5499 229.376 26.6501 228.628Z" fill="#8B9D36"/>
<path d="M23.4332 223.657C22.1803 225.062 21.0219 226.547 19.9657 228.101C18.967 229.681 18.1431 231.362 17.5082 233.115C16.8784 234.874 16.3382 236.662 15.8897 238.473C15.421 240.289 14.9732 242.103 14.5999 243.935C14.2043 245.762 13.8587 247.601 13.5757 249.447C13.2842 251.293 13.1165 253.151 12.8863 255.018C12.4398 258.769 11.3047 262.408 9.5366 265.758C10.2903 264.041 10.9122 262.27 11.3972 260.46C11.9002 258.663 12.2313 256.823 12.3863 254.965C12.666 251.215 13.1919 247.487 13.9607 243.804C14.3558 241.964 14.8267 240.138 15.3149 238.326C15.7748 236.496 16.3513 234.697 17.0409 232.938C17.7407 231.178 18.6326 229.497 19.7007 227.926C20.8335 226.412 22.0812 224.985 23.4332 223.657Z" fill="#5E7C24"/>
<path d="M18.8579 229.608C17.5761 229.875 16.3156 230.232 15.0864 230.679C13.8606 231.118 12.6491 231.594 11.4732 232.151C9.08866 233.2 6.82688 234.491 4.51884 235.759C5.02277 235.338 5.54879 234.944 6.07049 234.542C6.61664 234.177 7.15444 233.795 7.71353 233.446C8.83784 232.753 10.0022 232.125 11.2007 231.566C12.4119 231.028 13.6597 230.575 14.935 230.208C16.2092 229.835 17.5288 229.633 18.8579 229.608ZM13.5476 247.721C12.6449 248.411 11.7052 248.976 10.7875 249.565C10.3276 249.856 9.87848 250.156 9.44009 250.466C8.98787 250.762 8.60718 251.152 8.32499 251.609C8.38693 251.027 8.66237 250.488 9.09955 250.092C9.50294 249.689 9.94998 249.331 10.4326 249.024C11.3845 248.412 12.4392 247.971 13.5476 247.721ZM15.3472 239.379C16.4109 240.361 17.4031 241.416 18.3163 242.535C19.2363 243.653 20.0895 244.823 20.8715 246.038C21.6492 247.263 22.3167 248.553 22.8661 249.893C23.4331 251.23 23.7439 252.659 23.7828 254.107C23.4994 252.715 23.036 251.364 22.4039 250.088C21.7962 248.805 21.0989 247.566 20.3172 246.378C19.5846 245.157 18.75 243.997 17.9179 242.834C17.0829 241.672 16.2207 240.526 15.3472 239.379Z" fill="#5E7C24"/>
<path d="M4.59616 275.969L7.85861 278.936C7.85861 278.936 11.0434 275.618 11.3929 277.921C11.3929 277.921 10.888 280.224 10.2666 280.42C10.2666 280.42 18.0732 286.607 19.6461 281.513C20.2785 279.234 21.0768 277.003 22.0347 274.837C22.0347 274.837 23.7825 275.774 22.2678 283.152C22.2678 283.152 28.3094 281.402 30.5529 278.192C30.8106 277.814 30.948 277.368 30.9476 276.912C30.9692 275.076 31.2146 269.911 33.3368 271.85C33.3368 271.85 34.5603 272.436 33.6281 276.359C33.6281 276.359 38.545 270.896 36.2095 267.539C35.748 266.91 35.0796 266.458 34.318 266.26C33.5564 266.061 32.7487 266.13 32.0324 266.452C30.667 267.037 28.1335 268.112 23.433 270.094C17.3814 272.7 11.0674 274.67 4.59616 275.969Z" fill="#8B9D36"/>
<path d="M15.347 280.497C15.6493 278.81 16.1899 277.172 16.9531 275.632C17.3297 274.85 17.7922 274.111 18.3325 273.429C18.6077 273.082 18.9261 272.771 19.28 272.502C19.6312 272.222 20.069 272.067 20.5212 272.065C19.7499 272.394 19.1213 272.982 18.7462 273.723C18.3031 274.431 17.9004 275.162 17.54 275.914C16.79 277.417 16.122 278.965 15.347 280.497ZM25.9577 278.077C25.8686 276.565 26.008 275.049 26.3713 273.578C26.5525 272.836 26.8079 272.113 27.134 271.42C27.434 270.696 27.9789 270.096 28.6764 269.723C28.172 270.26 27.8048 270.908 27.6049 271.613C27.3772 272.307 27.1816 273.014 27.0063 273.73C26.6526 275.163 26.3591 276.616 25.9577 278.077ZM80.2542 224.89C80.2542 224.89 72.4087 225.999 79.3997 231.465C79.3997 231.465 81.1863 232.948 87.0121 234.666C87.0121 234.666 90.663 219.017 80.2542 224.89Z" fill="#5E7C24"/>
<path d="M87.0118 234.666C86.8665 234.153 86.7713 233.64 86.6406 233.136C86.4772 232.639 86.3592 232.134 86.1805 231.65C85.8444 230.683 85.4047 229.753 84.8687 228.877C84.3227 228.015 83.6569 227.232 82.8907 226.551C82.1123 225.855 81.221 225.294 80.2538 224.89C81.3306 225.067 82.3465 225.503 83.2113 226.16C84.0903 226.812 84.8401 227.618 85.4235 228.537C85.9866 229.461 86.406 230.462 86.6678 231.508C86.8102 232.023 86.8638 232.558 86.954 233.079C86.9804 233.611 87.0131 234.139 87.0118 234.666Z" fill="#50661A"/>
<path d="M70.2974 193.274C70.2974 193.274 78.9953 187.813 81.6004 199.94C81.6004 199.94 77.0865 196.11 77.0268 198.326C78.4889 200.013 79.6013 201.966 80.301 204.075C80.7065 205.647 80.4812 207.312 79.6719 208.724C78.5662 210.707 76.3324 214.602 75.9398 214.426C75.4142 214.19 74.1622 209.183 71.9005 208.034C69.6388 206.884 72.4571 217.919 72.4571 217.919C72.4571 217.919 67.4079 222.658 66.8379 222.188C66.2679 221.718 65.0639 218.657 64.8972 220.939L65.6393 223.26L61.7022 224.89L58.0557 219.195C58.0557 219.195 64.4742 214.178 61.2476 214.592C61.2476 214.592 58.2454 215.766 57.1732 217.397C57.1732 217.397 52.2589 209.827 54.3094 208.126C56.3123 206.626 58.4118 205.257 60.5945 204.025C61.0348 203.778 61.4031 203.424 61.664 202.996C61.9532 202.505 62.0095 201.982 60.7991 202.113C58.6203 202.349 54.3273 203.476 52.9393 205.502C52.9393 205.502 51.6392 197.238 55.8335 193.588C57.6607 192.422 59.8332 191.896 62.0005 192.096C62.0005 192.096 60.8534 189.855 57.2693 191.234C57.2692 191.234 62.4601 184.607 70.2974 193.274Z" fill="#5E7C24"/>
<path d="M74.1952 206.85C73.4854 205.145 72.8193 203.455 72.0097 201.844C71.6122 201.045 71.1411 200.283 70.6024 199.569C70.0964 198.824 69.3218 198.296 68.4357 198.093C68.921 198.078 69.4034 198.173 69.8454 198.371C70.2874 198.569 70.6772 198.865 70.9846 199.236C71.63 199.93 72.1719 200.711 72.5939 201.555C73.4244 203.22 73.9657 205.01 74.1952 206.85ZM56.3294 210.93C56.7728 209.984 57.3311 209.094 57.992 208.28C58.6447 207.447 59.4029 206.701 60.2482 206.058C61.0976 205.395 62.0705 204.903 63.1118 204.609C64.1558 204.336 65.2582 204.371 66.2822 204.71C65.2602 204.624 64.2313 204.753 63.264 205.089C62.3203 205.45 61.4374 205.949 60.6453 206.569C59.832 207.184 59.0729 207.866 58.3764 208.608C57.6723 209.35 56.9802 210.116 56.3294 210.93Z" fill="#50661A"/>
<path d="M64.4858 194.377C64.8062 193.955 65.2087 193.6 65.6698 193.333C66.1309 193.066 66.6413 192.893 67.1713 192.822C67.7032 192.74 68.2436 192.726 68.7792 192.78C69.3129 192.84 69.8401 192.947 70.3544 193.099L70.5457 193.152L70.4676 193.347C69.4515 195.876 68.5882 198.474 67.7357 201.067C66.9014 203.668 66.1499 206.293 65.4141 208.923C64.7066 211.56 64.0445 214.209 63.4275 216.871C62.8069 219.532 62.261 222.209 61.7023 224.889C62.0437 222.175 62.4539 219.466 62.9915 216.781C63.4805 214.085 64.1443 211.424 64.8179 208.768C65.4974 206.112 66.3043 203.489 67.1731 200.887C68.0365 198.283 69.004 195.715 70.1274 193.2L70.2404 193.447L69.4981 193.229C69.2456 193.182 68.9945 193.12 68.7405 193.079C68.2313 192.998 67.7137 192.981 67.2003 193.03C66.1527 193.116 65.1798 193.599 64.4858 194.377Z" fill="#50661A"/>
<path d="M67.1746 217.821C66.9218 216.886 66.5727 215.979 66.1327 215.114C65.9273 214.725 65.6194 214.398 65.2413 214.167C64.8044 213.975 64.3274 213.888 63.8496 213.912C64.0865 213.774 64.3492 213.684 64.622 213.649C64.8948 213.613 65.1721 213.631 65.4375 213.703C65.9775 213.903 66.4254 214.289 66.6972 214.79C67.2079 215.715 67.3766 216.787 67.1746 217.821Z" fill="#50661A"/>
<path d="M38.1531 280.497C38.1531 280.497 36.6069 275.237 32.6817 278.211C31.3474 279.256 30.393 280.699 29.9616 282.324C29.2537 284.841 28.6418 289.404 30.3854 295.879C30.3854 295.879 34.4036 290.4 37.3763 288.461C40.7289 286.275 42.8914 281.278 38.1531 280.497Z" fill="#C4CE6E"/>
<path d="M38.1532 280.497C37.5628 280.927 37.0478 281.449 36.6286 282.043C36.1849 282.615 35.7831 283.217 35.4264 283.845C34.6997 285.096 34.0535 286.392 33.4915 287.724C32.8986 289.046 32.3874 290.404 31.8798 291.766L30.3854 295.879C30.513 295.159 30.6819 294.448 30.8294 293.731C31 293.019 31.2122 292.319 31.4021 291.611C31.8148 290.205 32.3371 288.832 32.8916 287.47C33.4878 286.12 34.1936 284.82 35.0023 283.582C35.7728 282.309 36.8565 281.248 38.1532 280.497ZM43.8183 207.423C43.8183 207.423 43.9492 201.939 39.3066 203.562C37.7183 204.146 36.3683 205.227 35.4639 206.64C34.0229 208.819 32.0502 212.973 31.7371 219.674C31.7371 219.674 37.2317 215.695 40.6522 214.765C44.5098 213.716 48.091 209.625 43.8183 207.423Z" fill="#8B9D36"/>
<path d="M43.8182 207.423C43.1255 207.65 42.4757 207.988 41.8951 208.424C41.2982 208.832 40.7319 209.281 40.2007 209.769C39.127 210.738 38.1168 211.772 37.1761 212.867C36.209 213.944 35.3088 215.079 34.411 216.219L31.7369 219.674C32.0774 219.029 32.4544 218.405 32.8132 217.768C33.1918 217.144 33.6073 216.543 34.0035 215.929C34.8367 214.724 35.7309 213.561 36.6828 212.445C37.6618 211.344 38.7304 210.322 39.878 209.392C41.0002 208.416 42.3563 207.739 43.8182 207.423Z" fill="#5E7C24"/>
<path d="M78.8583 280.497C78.8583 280.497 80.4046 275.237 84.3297 278.211C85.664 279.256 86.6185 280.699 87.0498 282.324C87.7577 284.841 88.3696 289.404 86.626 295.879C86.626 295.879 82.6078 290.4 79.6351 288.461C76.2826 286.275 74.12 281.278 78.8583 280.497Z" fill="#8B9D36"/>
<path d="M78.8586 280.497C80.1553 281.248 81.2389 282.309 82.0094 283.582C82.8181 284.82 83.5239 286.12 84.12 287.47C84.6863 288.825 85.1834 290.207 85.6095 291.611C85.7994 292.319 86.0117 293.019 86.1823 293.73C86.3298 294.448 86.4987 295.158 86.6263 295.878L85.1319 291.766C84.6242 290.404 84.113 289.046 83.5201 287.723C82.9582 286.392 82.3119 285.096 81.5852 283.844C81.2286 283.216 80.8268 282.614 80.383 282.043C79.9638 281.449 79.4489 280.927 78.8586 280.497Z" fill="#5E7C24"/>
<path d="M77.6206 255.44C77.6206 255.44 62.8106 278.546 61.4343 304.585M80.2542 224.89C80.2542 224.89 60.7106 208.432 55.646 304.585L80.2542 224.89ZM61.7023 224.89C61.7023 224.89 51.9797 288.306 57.8055 304.585L61.7023 224.89ZM54.0988 304.585C54.0988 304.585 46.8734 276.008 38.1531 280.498L54.0988 304.585ZM55.1371 296.063C55.1371 296.063 61.4343 189.891 43.8183 207.424L55.1371 296.063ZM62.913 304.585C62.913 304.585 70.1384 276.008 78.8587 280.498L62.913 304.585ZM35.6614 266.94C35.6614 266.94 49.3386 263.633 56.7957 303.921L35.6614 266.94ZM40.1669 241.977C40.1669 241.977 44.1295 244.582 59.1236 303.921L40.1669 241.977Z" stroke="#50661A" stroke-width="0.644" stroke-miterlimit="10"/>
<path d="M38.2308 297.764V303.111C38.2259 303.602 38.4192 304.075 38.7683 304.426C39.1173 304.777 39.5935 304.977 40.092 304.982H77.3831C77.8817 304.977 78.3578 304.777 78.7069 304.426C79.0559 304.075 79.2493 303.602 79.2444 303.111V298.184C79.2491 297.696 79.0586 297.226 78.7141 296.876C78.3695 296.525 77.8988 296.323 77.404 296.313L40.1128 295.894C39.8642 295.893 39.618 295.941 39.3884 296.036C39.1589 296.13 38.9506 296.268 38.7755 296.442C38.6005 296.616 38.4622 296.822 38.3687 297.049C38.2752 297.276 38.2283 297.519 38.2308 297.764Z" fill="#9857BD"/>
<path d="M40.0107 304.98L41.3369 332.574H75.2607L77.4645 304.98H40.0107Z" fill="#CB97E7"/>
<path d="M71.5152 253.866C71.567 251.348 76.8492 255.916 76.8492 255.916C73.703 241.999 63.6504 247.802 63.6504 247.802C54.4585 237.574 48.4905 244.868 48.4905 244.868C52.6395 243.469 53.9926 246.072 53.9926 246.072C51.5156 245.728 48.9938 246.224 46.8396 247.477C42.0044 251.433 43.5904 260.893 43.5904 260.893C45.1828 258.655 50.1669 257.575 52.6913 257.406C54.2774 257.302 53.9989 258.07 53.5719 258.655C53.2853 259.035 52.9159 259.346 52.491 259.566C49.9666 260.863 47.5337 262.326 45.2087 263.945C42.8394 265.78 48.6264 274.622 48.6264 274.622C49.8562 272.82 53.3323 271.623 53.3323 271.623C57.0803 271.304 49.6684 276.711 49.6684 276.711L53.96 283.36L58.5237 281.688L57.6369 279.014C57.8116 276.424 59.2358 279.964 59.9024 280.523C60.5691 281.09 66.3948 275.936 66.3948 275.936C66.3948 275.936 63.0161 263.249 65.6505 264.667C68.2916 266.079 69.7932 271.831 70.4083 272.124C70.8679 272.345 73.4248 268.018 74.6936 265.812C75.1531 265.025 75.4503 264.155 75.568 263.254C75.6858 262.353 75.6218 261.438 75.3798 260.562C74.5321 258.109 73.2208 255.838 71.5152 253.866ZM56.7759 253.762C55.0928 255.135 52.5036 254.374 52.0895 253.352C51.6685 252.337 52.9568 250.314 54.8858 249.026C56.6918 247.815 58.7697 248.72 59.184 249.741C59.6047 250.756 58.6467 252.227 56.7759 253.762Z" fill="#5E7C24"/>
<path d="M63.6492 247.803C63.9842 249.319 64.2033 250.859 64.3046 252.408C64.3357 253.969 64.1948 255.53 63.8845 257.062C63.5683 258.587 63.1519 260.09 62.6378 261.562C62.1523 263.032 61.6495 264.505 61.0873 265.955C59.9414 268.845 58.6029 271.657 57.0804 274.373C56.3372 275.722 55.7245 277.137 55.2504 278.6C54.7557 280.064 54.3708 281.561 54.0989 283.081C54.3789 279.975 55.2376 276.947 56.632 274.149C58.0777 271.416 59.362 268.602 60.4784 265.723C61.0543 264.292 61.5706 262.84 62.0743 261.377C62.5818 259.918 63.0378 258.45 63.3946 256.96C63.7555 255.469 63.9537 253.945 63.986 252.412C63.971 250.87 63.8585 249.331 63.6492 247.803Z" fill="#50661A"/>
<path d="M64.0921 253.985C65.0127 254.596 65.842 255.331 66.5562 256.168C67.2791 256.996 67.9344 257.88 68.5158 258.81C69.0935 259.74 69.6062 260.707 70.0502 261.706C70.4944 262.702 70.8619 263.729 71.1493 264.779L69.5923 261.927C69.0621 260.99 68.5364 260.053 67.9597 259.148C67.3931 258.237 66.7928 257.348 66.159 256.481C65.525 255.606 64.8346 254.773 64.0921 253.985ZM59.5244 268.857C60.2062 269.51 60.7505 270.29 61.1259 271.151C61.3189 271.584 61.4604 272.038 61.5474 272.504C61.6628 272.984 61.5915 273.488 61.3477 273.919C61.3386 273.475 61.2389 273.038 61.0544 272.633C60.8854 272.225 60.7115 271.817 60.5274 271.409C60.1375 270.58 59.8024 269.728 59.5244 268.857ZM62.0719 262.303L58.754 263.541C57.6584 263.965 56.5678 264.395 55.5065 264.882C54.4374 265.346 53.3978 265.874 52.3933 266.462C51.3779 267.042 50.4395 267.744 49.5998 268.552C50.264 267.562 51.1176 266.71 52.1129 266.042C53.0926 265.359 54.1389 264.774 55.2363 264.296C57.4098 263.322 59.7105 262.651 62.0719 262.303Z" fill="#50661A"/>
<path d="M94.9553 238.134C94.9553 238.134 102.533 226.978 112.01 240.152C112.01 240.152 104.588 237.945 105.676 240.635C108.314 241.886 110.674 243.643 112.616 245.802C113.929 247.485 114.531 249.603 114.295 251.713C114.007 254.678 113.367 260.535 112.803 260.531C112.049 260.525 107.924 255.18 104.608 254.997C101.292 254.815 110.453 266.566 110.453 266.566C110.453 266.566 106.875 274.923 105.945 274.661C105.015 274.399 101.968 271.363 102.962 274.189L105.069 276.582L101.198 280.621L93.8394 275.716C93.8394 275.716 98.9141 266.299 95.2592 268.504C95.2592 268.504 92.2713 271.501 91.8389 274.026C91.8389 274.026 81.9773 267.542 83.547 264.415C85.1623 261.561 86.9607 258.811 88.9314 256.182C89.3285 255.658 89.5867 255.044 89.6828 254.396C89.7812 253.643 89.587 252.958 88.1858 253.766C85.6946 255.202 81.1335 258.826 80.5288 261.992C80.5288 261.992 74.6406 252.762 77.7625 246.163C79.3396 243.802 81.6681 242.025 84.3819 241.11C84.3819 241.11 81.8316 239.028 78.2531 242.579C78.253 242.579 81.0115 231.88 94.9553 238.134Z" fill="#C4CE6E"/>
<path d="M94.9554 238.134C96.2799 241.494 97.3748 244.937 98.2328 248.441C99.1217 251.939 99.8097 255.485 100.348 259.052C100.872 262.622 101.211 266.216 101.365 269.82C101.522 273.42 101.467 277.027 101.198 280.621C101.169 277.021 101.151 273.428 100.862 269.847C100.632 266.264 100.245 262.697 99.7023 259.145C99.2201 255.587 98.5261 252.061 97.7455 248.554C96.9605 245.049 96.0549 241.566 94.9554 238.134Z" fill="#8B9D36"/>
<path d="M96.8466 244.072C96.2334 244.824 95.6856 245.625 95.2089 246.467C94.733 247.3 94.3038 248.157 93.9234 249.036C93.5416 249.914 93.2093 250.814 92.9015 251.726C92.5969 252.64 92.3245 253.568 92.0347 254.506C92.065 253.525 92.1906 252.55 92.4098 251.592C92.6289 250.631 92.9345 249.691 93.3228 248.783C93.7188 247.875 94.2073 247.009 94.7807 246.198C95.3436 245.38 96.042 244.662 96.8466 244.072ZM99.9995 258.848C101.003 259.071 101.949 259.495 102.779 260.094C103.609 260.693 104.305 261.454 104.823 262.33C105.169 262.91 105.415 263.542 105.551 264.202C104.857 263.111 104.035 262.104 103.102 261.202C102.155 260.312 101.115 259.523 99.9995 258.848Z" fill="#8B9D36"/>
<path d="M419.33 308.732L420.528 320.515L399.767 330.512H431.648V308.732H419.33Z" fill="#F9977A"/>
<path d="M385.114 308.732L386.312 320.515L365.551 330.512H397.432V308.732H385.114Z" fill="#F9977A"/>
<path d="M417.66 314.779H431.703C432.079 314.779 432.451 314.706 432.798 314.564C433.146 314.422 433.461 314.214 433.727 313.952C433.993 313.69 434.204 313.379 434.348 313.037C434.492 312.695 434.566 312.328 434.566 311.957V262.743C434.566 253.126 433.468 243.539 431.294 234.164C430.904 232.484 430.749 230.758 430.832 229.036C431.444 216.363 433.731 160.787 427.32 150.677L386.312 147.693L414.838 312.432C414.951 313.088 415.297 313.684 415.813 314.114C416.33 314.543 416.984 314.779 417.66 314.779Z" fill="#C67A56"/>
<path d="M372.96 145.598C372.96 145.598 370.804 179.994 370.804 188.081V235.8C370.804 237.765 370.902 239.727 371.097 241.685L378.278 313.443C378.348 314.14 378.678 314.786 379.204 315.257C379.731 315.727 380.416 315.988 381.127 315.988H397.674C398.067 315.988 398.456 315.908 398.817 315.753C399.178 315.598 399.502 315.371 399.77 315.087C400.038 314.803 400.244 314.468 400.374 314.102C400.505 313.736 400.558 313.348 400.529 312.961L396.058 252.378C395.647 246.811 396.027 241.215 397.187 235.751L415.244 150.677L372.96 145.598Z" fill="#C67A56"/>
<path d="M341.181 91.3048C341.181 91.3048 341.031 87.4231 334.974 81.2772C328.918 75.1314 323.486 70.931 326.64 76.1097L329.109 80.0167C329.109 80.0167 322.593 77.5262 318.843 75.7074C317.856 75.2095 316.733 75.0371 315.639 75.2157C314.545 75.3942 313.538 75.9142 312.767 76.699C311.354 78.2011 311.396 79.843 315.294 82.7567C318.889 85.5769 322.863 87.8918 327.104 89.6351C327.712 89.8659 328.226 90.2889 328.565 90.8381L332.921 94.3328L341.181 91.3048Z" fill="#F9977A"/>
<path d="M332.921 81.8299C332.227 81.6705 331.556 81.4297 330.92 81.1126C330.28 80.8088 329.673 80.4413 329.109 80.0159C329.47 80.0515 329.825 80.1285 330.167 80.2454C330.505 80.3538 330.835 80.4862 331.155 80.6416C331.802 80.9458 332.398 81.3466 332.921 81.8299ZM323.919 80.6406C323.093 80.3662 322.283 80.0437 321.495 79.6748C320.702 79.3196 319.932 78.9153 319.176 78.488C318.418 78.0598 317.686 77.5876 316.985 77.074C316.274 76.5693 315.621 75.9894 315.038 75.3447C316.468 76.3279 317.946 77.1811 319.443 78.0342C320.932 78.8962 322.442 79.7229 323.919 80.6406ZM322.302 82.6186C321.381 82.3659 320.478 82.0523 319.6 81.6799C318.717 81.3163 317.857 80.9012 317.024 80.4368C316.182 79.977 315.384 79.4441 314.639 78.8442C313.866 78.2694 313.228 77.5375 312.767 76.6982C313.381 77.4038 314.095 78.0182 314.887 78.5225C315.664 79.0396 316.461 79.532 317.286 79.9805C318.923 80.9038 320.615 81.7349 322.302 82.6186ZM320.35 84.1021C319.574 83.9106 318.814 83.6602 318.077 83.3531C317.337 83.0537 316.615 82.712 315.916 82.3296C314.498 81.5832 313.219 80.6058 312.133 79.4387C312.804 79.8723 313.457 80.304 314.131 80.7066C314.812 81.0982 315.484 81.4996 316.175 81.8714L320.35 84.1021Z" fill="#DD765E"/>
<path d="M388.436 71.5908C388.436 71.5908 385.155 73.0366 382.611 74.3217C379.086 76.1031 373.611 82.363 367.204 97.998L362.947 108.388C362.947 108.388 350.166 93.6847 339.11 84.3596L328.197 93.0867L353.455 121.761C355.089 124.064 357.259 125.948 359.783 127.254C365.55 130.159 371.439 129.201 374.672 123.294C379.729 114.054 385.741 99.9859 386.316 96.0659L388.436 71.5908Z" fill="#FFBA55"/>
<path d="M362.987 108.574C362.812 110.217 362.531 111.763 362.466 113.311C362.411 114.074 362.431 114.841 362.526 115.6C362.632 116.377 362.861 117.133 363.205 117.84C362.511 117.322 362.003 116.599 361.754 115.777C361.498 114.963 361.396 114.11 361.453 113.26C361.499 112.427 361.654 111.604 361.915 110.81C362.156 110.016 362.518 109.262 362.987 108.574Z" fill="#E6952A"/>
<path d="M412.036 157.344C412.036 157.344 412.036 174.352 431.077 169.901L430.024 154.592L412.036 157.344Z" fill="#A3862B"/>
<path d="M362.351 331.584V331.512C362.351 330.961 362.506 330.421 362.799 329.952C363.092 329.482 363.512 329.103 364.011 328.855L385.561 318.151C385.771 318.046 386.013 318.018 386.243 318.071C386.473 318.124 386.676 318.255 386.818 318.441L391.03 323.966C391.18 324.162 391.398 324.297 391.642 324.344C391.886 324.391 392.139 324.347 392.353 324.221L397.297 321.297C397.449 321.207 397.624 321.158 397.802 321.156C397.98 321.154 398.155 321.198 398.31 321.285C398.465 321.371 398.594 321.497 398.684 321.648C398.773 321.8 398.821 321.972 398.821 322.148V331.584C398.821 331.847 398.715 332.099 398.526 332.285C398.337 332.471 398.081 332.575 397.814 332.575H363.357C363.09 332.575 362.834 332.471 362.646 332.285C362.457 332.099 362.351 331.847 362.351 331.584Z" fill="#5D1115"/>
<path d="M396.567 331.584V331.512C396.567 330.961 396.722 330.421 397.015 329.952C397.308 329.482 397.728 329.103 398.227 328.855L419.776 318.151C419.987 318.046 420.229 318.018 420.458 318.071C420.688 318.124 420.892 318.255 421.034 318.441L425.246 323.966C425.395 324.162 425.613 324.297 425.857 324.344C426.102 324.391 426.355 324.347 426.568 324.221L431.512 321.297C431.665 321.207 431.839 321.158 432.017 321.156C432.195 321.154 432.371 321.198 432.526 321.285C432.681 321.371 432.81 321.497 432.899 321.648C432.989 321.8 433.036 321.972 433.036 322.148V331.584C433.036 331.847 432.93 332.099 432.742 332.285C432.553 332.471 432.297 332.575 432.03 332.575H397.573C397.306 332.575 397.05 332.471 396.861 332.285C396.673 332.099 396.567 331.847 396.567 331.584Z" fill="#5D1115"/>
<path d="M401.474 31.4762C398.564 31.0394 395.589 31.2907 392.796 32.2093C391.487 32.6668 386.699 34.3398 384.366 38.8073C383.479 40.504 383.279 42.5451 382.878 46.6272C382.628 49.177 381.631 51.0031 381.633 54.113C381.685 56.6327 382.104 59.1319 382.878 61.5339C384.038 65.2933 383.291 67.4292 383.87 68.1319C386.202 70.9641 391.202 68.346 391.308 72.0418C391.374 74.3238 389.903 75.7682 391.835 77.8151C394.232 80.3533 403.336 79.3927 406.681 77.6624C407.137 77.4265 413.828 73.8786 413.376 69.8425C413.135 67.6863 411.087 67.4633 409.657 64.2219C408.741 61.9748 408.483 59.5195 408.913 57.1352C409.558 52.4171 411.97 51.8417 413.872 46.1384C414.388 44.7066 414.522 43.1681 414.262 41.6704C414.001 40.1728 413.355 38.7662 412.384 37.5854C409.587 34.3512 405.725 32.1887 401.474 31.4762Z" fill="#F9977A"/>
<path d="M382.858 51.4172C383.395 51.4172 383.83 50.8839 383.83 50.2262C383.83 49.5684 383.395 49.0352 382.858 49.0352C382.322 49.0352 381.886 49.5684 381.886 50.2262C381.886 50.8839 382.322 51.4172 382.858 51.4172Z" fill="#0A0709"/>
<path d="M393.046 51.8205C393.583 51.8205 394.018 51.2872 394.018 50.6295C394.018 49.9717 393.583 49.4385 393.046 49.4385C392.509 49.4385 392.074 49.9717 392.074 50.6295C392.074 51.2872 392.509 51.8205 393.046 51.8205Z" fill="#0A0709"/>
<path d="M387.456 48.0242C387.585 48.0242 387.712 47.9839 387.816 47.909C387.921 47.8342 387.999 47.7285 388.039 47.6073C388.08 47.486 388.08 47.3554 388.04 47.234C388 47.1126 387.923 47.0067 387.818 46.9314C386.782 46.1647 385.537 45.72 384.243 45.6541C382.949 45.5882 381.664 45.9041 380.553 46.5614C380.418 46.6506 380.324 46.7891 380.293 46.9464C380.261 47.1037 380.294 47.267 380.385 47.4003C380.475 47.5335 380.616 47.6259 380.775 47.6571C380.935 47.6882 381.101 47.6556 381.236 47.5664C382.133 47.0344 383.173 46.7823 384.219 46.8432C385.264 46.9041 386.267 47.2752 387.094 47.9077C387.199 47.9835 387.326 48.0243 387.456 48.0242ZM397.54 48.517C397.669 48.517 397.795 48.4767 397.9 48.4018C398.005 48.327 398.083 48.2213 398.123 48.1001C398.163 47.9788 398.164 47.8482 398.124 47.7268C398.084 47.6054 398.006 47.4995 397.902 47.4242C396.866 46.6575 395.621 46.2127 394.327 46.1468C393.033 46.0808 391.748 46.3966 390.637 47.0538C390.502 47.143 390.408 47.2815 390.377 47.4388C390.345 47.5961 390.378 47.7594 390.469 47.8926C390.559 48.0259 390.7 48.1183 390.86 48.1494C391.019 48.1806 391.185 48.148 391.32 48.0588C392.217 47.5265 393.257 47.2743 394.303 47.3353C395.348 47.3963 396.351 47.7676 397.178 48.4005C397.283 48.4763 397.41 48.5171 397.54 48.517Z" fill="#1E1D22"/>
<path d="M389.606 155.39C390.501 155.39 391.226 154.676 391.226 153.794C391.226 152.913 390.501 152.198 389.606 152.198C388.712 152.198 387.987 152.913 387.987 153.794C387.987 154.676 388.712 155.39 389.606 155.39Z" fill="#5D1115"/>
<path d="M387.303 48.7422C387.556 49.7449 387.47 50.8018 387.059 51.7522C386.69 52.7095 386.187 53.6111 385.564 54.4309C385.246 54.843 384.782 55.1514 384.814 55.5564C384.868 56.0105 385.103 56.4249 385.467 56.7085C385.873 56.9896 386.332 57.1889 386.817 57.2949C387.302 57.4009 387.804 57.4115 388.293 57.3262C387.792 57.491 387.26 57.5426 386.736 57.4772C386.213 57.4117 385.71 57.231 385.267 56.9482C385.036 56.7895 384.842 56.5832 384.7 56.3435C384.557 56.1039 384.469 55.8367 384.442 55.5603C384.438 55.2617 384.551 54.9731 384.756 54.7534L385.247 54.177C385.86 53.3923 386.372 52.5361 386.772 51.6277C387.215 50.7324 387.399 49.7338 387.303 48.7422ZM405.259 49.1453C405.632 49.1281 406.003 49.1914 406.348 49.3309C406.692 49.4703 407.002 49.6825 407.255 49.9524C407.51 50.2138 407.732 50.5052 407.916 50.8201C408.092 51.134 408.224 51.4707 408.307 51.8203C407.899 51.2623 407.452 50.7339 406.968 50.239C406.734 49.9974 406.473 49.7826 406.19 49.5989C405.903 49.4052 405.59 49.2525 405.259 49.1453Z" fill="#DD765E"/>
<path d="M406.049 54.1135C405.672 53.4158 405.54 52.6151 405.673 51.8357C405.806 51.0564 406.196 50.3421 406.783 49.8037C406.628 50.1621 406.456 50.4915 406.344 50.8442C406.214 51.1856 406.124 51.5401 406.074 51.9011C405.952 52.6331 405.944 53.3791 406.049 54.1135Z" fill="#DD765E"/>
<path d="M372.513 127.506C372.133 123.958 372.026 120.386 372.19 116.821C372.287 113.249 372.741 109.695 373.547 106.211C373.469 109.784 373.34 113.314 373.203 116.862C373.046 120.406 372.892 123.95 372.513 127.506Z" fill="#E6952A"/>
<path d="M392.339 61.5361C392.339 61.5361 388.511 65.0552 385.088 61.5361H392.339Z" fill="#0A0709"/>
<path d="M396.184 50.4834C395.344 50.0694 394.441 49.7925 393.51 49.6636C393.054 49.5902 392.59 49.575 392.13 49.6184C391.658 49.6568 391.191 49.7315 390.731 49.8418C391.146 49.5838 391.605 49.4039 392.087 49.3113C392.574 49.2168 393.073 49.2011 393.565 49.2646C394.546 49.3906 395.462 49.8169 396.184 50.4834ZM386.172 50.0803C385.331 49.6662 384.428 49.3894 383.497 49.2605C383.041 49.1871 382.577 49.1719 382.117 49.2153C381.646 49.2538 381.178 49.3285 380.718 49.4387C381.133 49.1807 381.593 49.0008 382.074 48.9082C382.561 48.8136 383.06 48.7979 383.552 48.8616C384.533 48.9876 385.449 49.4139 386.172 50.0803Z" fill="#1E1D22"/>
<path d="M372.429 150.425C374.429 151.695 376.59 152.701 378.856 153.417C381.1 154.177 383.392 154.786 385.719 155.24C390.37 156.177 395.096 156.709 399.841 156.83C402.21 157.007 404.589 156.916 406.964 156.951C409.34 156.906 411.714 156.749 414.092 156.68C416.464 156.492 418.841 156.339 421.213 156.124C423.583 155.881 425.95 155.603 428.331 155.39C425.986 155.827 423.628 156.202 421.273 156.61C418.906 156.925 416.527 157.166 414.151 157.447C411.768 157.638 409.376 157.768 406.985 157.861C404.59 157.856 402.194 157.98 399.799 157.828C395 157.668 390.228 157.051 385.549 155.987C380.921 154.854 376.226 153.336 372.429 150.425Z" fill="#5D1115"/>
<path d="M387.821 156.076C389.009 161.736 390.086 167.414 391.148 173.094C392.211 178.775 393.185 184.47 394.208 190.157C395.15 195.858 396.135 201.551 397.036 207.259L398.369 215.823C398.776 218.685 399.218 221.54 399.595 224.406C398.991 221.578 398.452 218.739 397.878 215.906L396.267 207.388C395.206 201.707 394.229 196.012 393.209 190.325C392.269 184.624 391.28 178.931 390.382 173.223C389.48 167.515 388.596 161.805 387.821 156.076ZM379.628 149.006C379.983 150.033 380.154 151.113 380.135 152.198C380.156 153.283 379.985 154.364 379.628 155.39C379.271 154.364 379.099 153.283 379.121 152.198C379.102 151.113 379.273 150.033 379.628 149.006ZM404.38 151.608C404.876 152.754 405.194 153.967 405.323 155.206C405.494 156.44 405.472 157.693 405.259 158.921C404.761 157.776 404.442 156.563 404.316 155.324C404.147 154.089 404.169 152.837 404.38 151.608Z" fill="#5D1115"/>
<path d="M391.575 156.667C392.245 158.91 392.79 161.187 393.209 163.488C393.637 165.781 393.99 168.086 394.246 170.406L394.272 170.644L394.104 170.754C393 171.481 391.871 172.176 390.707 172.825C391.661 171.901 392.65 171.023 393.663 170.177L393.523 170.524C393.009 168.245 392.591 165.951 392.25 163.644C391.897 161.332 391.672 159.003 391.575 156.667ZM428.331 193.507C428.289 195.199 428.075 196.882 427.692 198.531C427.329 200.192 426.811 201.817 426.145 203.385C425.482 204.968 424.615 206.46 423.565 207.824C422.515 209.19 421.174 210.312 419.638 211.114C420.906 210.026 422.011 208.766 422.92 207.372C423.81 205.981 424.576 204.517 425.211 202.996C425.863 201.471 426.437 199.914 426.93 198.331C427.424 196.742 427.912 195.141 428.331 193.507ZM428.331 205.116C428.047 206.306 427.625 207.459 427.073 208.553C426.532 209.655 425.897 210.709 425.175 211.705C423.761 213.739 421.859 215.397 419.638 216.532C420.51 215.658 421.358 214.822 422.137 213.916C422.904 213.003 423.666 212.093 424.353 211.12C425.764 209.201 427.027 207.184 428.331 205.116ZM391.279 251.408C391.237 253.1 391.023 254.783 390.64 256.432C390.277 258.094 389.759 259.718 389.093 261.286C388.43 262.869 387.563 264.36 386.513 265.725C385.463 267.09 384.122 268.213 382.586 269.015C383.854 267.927 384.959 266.667 385.868 265.273C386.758 263.882 387.524 262.418 388.158 260.897C388.811 259.372 389.385 257.814 389.878 256.232C390.372 254.643 390.859 253.042 391.279 251.408ZM391.279 263.017C390.995 264.207 390.573 265.36 390.021 266.455C389.48 267.556 388.845 268.61 388.123 269.606C386.709 271.64 384.807 273.298 382.586 274.433C383.458 273.559 384.306 272.723 385.085 271.816C385.852 270.904 386.614 269.994 387.301 269.021C388.712 267.102 389.975 265.085 391.279 263.017ZM408.641 170.465C408.404 172.427 408.385 174.409 408.585 176.375C408.688 178.268 409.436 180.071 410.707 181.494C412.017 182.805 414.043 183.101 415.974 182.985C417.967 182.792 419.933 182.388 421.838 181.78C420.04 182.764 418.084 183.435 416.054 183.762C415.003 183.917 413.933 183.895 412.889 183.697C411.804 183.48 410.803 182.965 410.002 182.212C408.558 180.627 407.772 178.566 407.799 176.437C407.727 174.413 408.012 172.393 408.641 170.465Z" fill="#5D1115"/>
<path d="M392.858 72.352C392.858 72.352 395.164 83.8577 411.529 66.9961L427.319 76.6245C430.893 78.8647 433.76 82.0461 435.594 85.8087C441.835 98.8251 445.487 112.9 446.353 127.271C446.353 127.271 448.585 141.753 426.765 170.312C426.765 170.312 415.359 172.479 412.632 160.505L419.638 150.975C419.638 150.975 382.63 154.396 372.96 145.599C372.96 145.599 367.898 83.2478 389.324 70.8208L392.858 72.352Z" fill="#FFBA55"/>
<path d="M420.319 98.6787C420.754 101.394 421.158 104.112 421.53 106.834C421.889 109.558 422.282 112.277 422.613 115.004L423.599 123.184C423.943 125.909 424.196 128.644 424.498 131.374L424.503 131.419L424.5 131.457C424.212 134.817 423.69 138.153 422.937 141.442C422.254 144.745 421.145 147.949 419.638 150.974C420.855 147.852 421.748 144.616 422.304 141.316C422.606 139.674 422.846 138.02 423.049 136.363C423.27 134.711 423.457 133.045 423.576 131.393L423.578 131.475C423.26 128.747 422.894 126.025 422.617 123.292L421.744 115.1C421.455 112.368 421.228 109.63 420.967 106.896C420.722 104.16 420.506 101.421 420.319 98.6787Z" fill="#E6952A"/>
<path d="M416.418 101.367C417.521 102.272 418.496 103.318 419.319 104.477C420.177 105.612 420.875 106.854 421.397 108.172C420.293 107.269 419.317 106.222 418.496 105.062C417.64 103.926 416.942 102.684 416.418 101.367ZM424.038 131.425C425.169 131.413 426.172 131.528 427.177 131.568C427.677 131.595 428.169 131.59 428.671 131.585C429.17 131.557 429.665 131.503 430.236 131.425C429.862 131.859 429.371 132.181 428.819 132.352C428.273 132.517 427.701 132.589 427.13 132.566C426.571 132.534 426.018 132.424 425.49 132.239C424.956 132.064 424.463 131.787 424.038 131.425ZM396.367 75.9893C395.357 78.9915 394.388 82.0037 393.533 85.0488C392.633 88.0801 391.803 91.1295 391.043 94.197C389.513 100.326 388.175 106.5 387.173 112.729C386.149 118.954 385.478 125.229 385.161 131.527C385.106 134.676 384.957 137.832 385.167 140.981C385.156 144.145 385.644 147.268 385.905 150.425C384.771 144.182 384.261 137.844 384.381 131.503C384.58 125.162 385.179 118.839 386.172 112.571C387.263 106.322 388.593 100.115 390.291 94.0037C391.958 87.887 393.987 81.8719 396.367 75.9893Z" fill="#E6952A"/>
<path d="M389.325 70.8208C388.947 72.4895 388.605 74.1645 388.383 75.8513C388.092 77.4992 388.073 79.1824 388.325 80.8364C388.506 81.635 388.975 82.1912 389.683 81.9936C390.446 81.7626 391.152 81.3787 391.758 80.866C393.069 79.7898 394.286 78.6077 395.397 77.3318L396.143 76.51L396.225 77.6287C396.288 78.7767 396.591 79.8996 397.114 80.9268C397.338 81.4106 397.683 81.8309 398.115 82.1486C398.548 82.4663 399.055 82.6711 399.589 82.7441C400.741 82.7813 401.881 82.5063 402.884 81.949C403.961 81.4078 404.979 80.7596 405.921 80.0144C409.724 76.9229 413.237 73.501 416.418 69.79C414.946 71.7515 413.431 73.689 411.782 75.5203C410.144 77.3748 408.363 79.1014 406.454 80.6848C405.476 81.4796 404.419 82.1738 403.298 82.7566C402.142 83.4132 400.823 83.7389 399.49 83.6973C398.791 83.6194 398.125 83.3665 397.554 82.9628C396.984 82.559 396.527 82.0178 396.229 81.3909C395.649 80.2261 395.325 78.9542 395.277 77.6577L396.105 77.9546C394.937 79.256 393.661 80.4584 392.289 81.5491C391.571 82.1458 390.717 82.5636 389.801 82.7671C389.53 82.8219 389.249 82.8084 388.985 82.7277C388.721 82.6471 388.481 82.5019 388.289 82.3056C387.956 81.9352 387.738 81.4774 387.663 80.9878C387.515 80.1141 387.489 79.2245 387.588 78.344C387.664 77.4838 387.793 76.629 387.974 75.7844C388.321 74.1042 388.772 72.4466 389.325 70.8208Z" fill="#E6952A"/>
<path d="M392.269 97.5781C392.841 97.5781 393.305 97.121 393.305 96.5571C393.305 95.9932 392.841 95.5361 392.269 95.5361C391.697 95.5361 391.233 95.9932 391.233 96.5571C391.233 97.121 391.697 97.5781 392.269 97.5781Z" fill="#5D1115"/>
<path d="M395.378 85.7197C395.95 85.7197 396.414 85.2626 396.414 84.6987C396.414 84.1348 395.95 83.6777 395.378 83.6777C394.806 83.6777 394.342 84.1348 394.342 84.6987C394.342 85.2626 394.806 85.7197 395.378 85.7197Z" fill="#5D1115"/>
<path d="M389.686 111.48C390.258 111.48 390.722 111.023 390.722 110.459C390.722 109.896 390.258 109.438 389.686 109.438C389.114 109.438 388.65 109.896 388.65 110.459C388.65 111.023 389.114 111.48 389.686 111.48Z" fill="#5D1115"/>
<path d="M387.564 126.151C388.136 126.151 388.6 125.694 388.6 125.13C388.6 124.566 388.136 124.109 387.564 124.109C386.992 124.109 386.528 124.566 386.528 125.13C386.528 125.694 386.992 126.151 387.564 126.151Z" fill="#5D1115"/>
<path d="M386.914 142.215C387.486 142.215 387.95 141.758 387.95 141.194C387.95 140.63 387.486 140.173 386.914 140.173C386.342 140.173 385.878 140.63 385.878 141.194C385.878 141.758 386.342 142.215 386.914 142.215Z" fill="#5D1115"/>
<path d="M390.674 71.8627C390.674 71.8627 397.537 71.9879 401.46 66.6117C403.331 64.0486 403.336 58.8633 403.152 55.8469C403.069 54.4949 403.284 53.1411 403.785 51.8796C404.479 50.1365 405.33 47.7614 407.06 47.6033C408.334 47.4868 408.847 47.1552 409.305 48.3676C410.064 50.3735 408.746 52.5862 407.829 54.1274C406.515 56.3326 405.4 56.814 405.38 58.3398C405.364 59.5037 407.256 61.4402 408.039 61.5254C409.365 61.6697 409.964 57.7077 413.518 51.0993C415.762 46.9264 416.794 46.1436 417.054 43.5386C417.147 42.6137 417.528 38.7844 415.19 36.5574C414.105 35.5244 413.489 35.8391 408.772 33.8708C407.463 33.3588 406.182 32.7771 404.937 32.1283C401.18 30.1058 401.264 29.0655 399.066 28.4497C397.08 27.8934 396.962 28.729 393.17 28.5077C389.514 28.2945 389.19 27.4922 387.5 27.9673C384.565 28.7919 383.156 31.8808 382.778 32.7108C382.022 34.1476 381.634 35.7442 381.645 37.3624C381.807 39.0042 382.424 40.5704 383.429 41.8893C383.905 42.3678 385.838 39.6094 386.892 38.5717C387.924 37.5551 389.098 37.9713 390.697 38.0693C392.256 38.1649 392.17 39.1218 394.476 39.9619C395.298 40.2612 398.59 38.8076 399.652 40.6033C400.785 42.5166 401.665 42.7484 401.133 44.5288C400.801 45.641 401.007 47.0075 401.418 49.7407C401.713 51.7021 400.102 58.5531 400.102 58.5531C399.961 58.8373 399.764 59.0912 399.522 59.2999C399.281 59.5087 399 59.6682 398.695 59.7694C398.391 59.8705 398.069 59.9111 397.749 59.889C397.429 59.867 397.116 59.7825 396.829 59.6406C395.084 58.7554 393.281 57.9872 391.431 57.3413C390.327 56.9704 389.152 56.8458 387.993 56.9764C386.833 57.1071 385.718 57.4897 384.727 58.0968C384.038 58.5118 383.33 58.9766 382.769 59.3959C382.397 59.6746 382.1 60.0393 381.905 60.4579C381.71 60.8765 381.622 61.336 381.649 61.7959C381.853 64.7363 383.091 71.9284 390.674 71.8627ZM384.153 61.6471C384.436 60.2465 386.555 59.7018 387.766 59.3922C388.724 59.0589 389.762 59.0227 390.742 59.2884C390.974 59.3592 393.081 60.0726 393.272 61.7456C393.463 63.4188 391.57 64.5854 391.273 64.7607C390.565 65.1803 389.759 65.4142 388.933 65.44C388.107 65.4659 387.288 65.2828 386.554 64.9084C385.466 64.3547 383.877 62.9932 384.153 61.6471Z" fill="#1E1D22"/>
<path d="M82.396 84.1283H61.9332C61.6641 84.1283 61.406 84.023 61.2157 83.8355C61.0254 83.6479 60.9185 83.3936 60.9185 83.1283V57.6523C60.9185 57.3871 61.0254 57.1328 61.2157 56.9452C61.406 56.7577 61.6641 56.6523 61.9332 56.6523H90.3C90.5691 56.6523 90.8272 56.7577 91.0175 56.9452C91.2077 57.1328 91.3146 57.3871 91.3146 57.6523V76.1888L82.396 84.1283Z" fill="#FFE3CB"/>
<path d="M91.3142 76.2197H82.3965V84.1277L91.3142 76.2197Z" fill="#FECA9C"/>
<path d="M80.1641 54.0801H71.0526C70.4922 54.0801 70.0379 54.5278 70.0379 55.0801V58.4801C70.0379 59.0324 70.4922 59.4801 71.0526 59.4801H80.1641C80.7245 59.4801 81.1788 59.0324 81.1788 58.4801V55.0801C81.1788 54.5278 80.7245 54.0801 80.1641 54.0801Z" fill="#FECA9C"/>
<path d="M83.2081 66H68.9624V67H83.2081V66Z" fill="#FECA9C"/>
<path d="M83.2081 72H68.9624V73H83.2081V72Z" fill="#FECA9C"/>
<path d="M28.0936 240.756C30.5406 242.63 34.8518 247.08 34.9681 250.418C34.9681 250.418 42.8914 241.927 40.6388 234.666C39.3043 231.952 37.0904 229.755 34.3468 228.42C34.3468 228.42 37.4537 226.702 40.7162 230.918C40.7162 230.918 39.5512 219.519 23.4332 223.657C23.4332 223.657 17.1412 211.008 4.6741 222.954C4.6741 222.954 13.0632 221.9 11.432 224.477C8.39501 225.318 5.55253 226.732 3.06216 228.641C2.22687 229.37 1.54758 230.256 1.06406 231.247C0.580537 232.238 0.302516 233.314 0.246278 234.412C0.052216 237.496 -0.245522 243.599 0.362962 243.684C1.17842 243.801 6.53834 238.999 10.1504 239.351C13.7624 239.702 1.87757 250.242 1.87757 250.242C1.87757 250.242 4.32459 259.378 5.37331 259.26C6.42171 259.143 10.2281 256.528 8.67434 259.26L5.99466 261.369L9.49012 266.131L18.2677 262.305C18.2677 262.305 14.3838 251.843 17.957 254.693C17.957 254.693 20.6755 258.246 20.7144 260.9C20.7144 260.9 32.463 255.864 31.298 252.409C30.0295 249.203 28.5461 246.084 26.8575 243.072C26.5744 242.563 26.4086 241.999 26.372 241.42C26.3332 240.541 26.5661 239.585 28.0936 240.756ZM26.6501 228.628C27.7507 227.88 30.4566 228.361 31.4728 230.801C32.5604 233.41 32.5148 236.319 31.4146 237.067C30.314 237.815 27.1875 236.839 26.4043 234.315C25.5369 231.504 25.5499 229.376 26.6501 228.628Z" fill="#8B9D36"/>
<path d="M23.4332 223.657C22.1803 225.062 21.0219 226.547 19.9657 228.101C18.967 229.681 18.1431 231.362 17.5082 233.115C16.8784 234.874 16.3382 236.662 15.8897 238.473C15.421 240.289 14.9732 242.103 14.5999 243.935C14.2043 245.762 13.8587 247.601 13.5757 249.447C13.2842 251.293 13.1165 253.151 12.8863 255.018C12.4398 258.769 11.3047 262.408 9.5366 265.758C10.2903 264.041 10.9122 262.27 11.3972 260.46C11.9002 258.663 12.2313 256.823 12.3863 254.965C12.666 251.215 13.1919 247.487 13.9607 243.804C14.3558 241.964 14.8267 240.138 15.3149 238.326C15.7748 236.496 16.3513 234.697 17.0409 232.938C17.7407 231.178 18.6326 229.497 19.7007 227.926C20.8335 226.412 22.0812 224.985 23.4332 223.657Z" fill="#5E7C24"/>
<path d="M18.8579 229.608C17.5761 229.875 16.3156 230.232 15.0864 230.679C13.8606 231.118 12.6491 231.594 11.4732 232.151C9.08866 233.2 6.82688 234.491 4.51884 235.759C5.02277 235.338 5.54879 234.944 6.07049 234.542C6.61664 234.177 7.15444 233.795 7.71353 233.446C8.83784 232.753 10.0022 232.125 11.2007 231.566C12.4119 231.028 13.6597 230.575 14.935 230.208C16.2092 229.835 17.5288 229.633 18.8579 229.608ZM13.5476 247.721C12.6449 248.411 11.7052 248.976 10.7875 249.565C10.3276 249.856 9.87848 250.156 9.44009 250.466C8.98787 250.762 8.60718 251.152 8.32499 251.609C8.38693 251.027 8.66237 250.488 9.09955 250.092C9.50294 249.689 9.94998 249.331 10.4326 249.024C11.3845 248.412 12.4392 247.971 13.5476 247.721ZM15.3472 239.379C16.4109 240.361 17.4031 241.416 18.3163 242.535C19.2363 243.653 20.0895 244.823 20.8715 246.038C21.6492 247.263 22.3167 248.553 22.8661 249.893C23.4331 251.23 23.7439 252.659 23.7828 254.107C23.4994 252.715 23.036 251.364 22.4039 250.088C21.7962 248.805 21.0989 247.566 20.3172 246.378C19.5846 245.157 18.75 243.997 17.9179 242.834C17.0829 241.672 16.2207 240.526 15.3472 239.379Z" fill="#5E7C24"/>
<path d="M4.59616 275.969L7.85861 278.936C7.85861 278.936 11.0434 275.618 11.3929 277.921C11.3929 277.921 10.888 280.224 10.2666 280.42C10.2666 280.42 18.0732 286.607 19.6461 281.513C20.2785 279.234 21.0768 277.003 22.0347 274.837C22.0347 274.837 23.7825 275.774 22.2678 283.152C22.2678 283.152 28.3094 281.402 30.5529 278.192C30.8106 277.814 30.948 277.368 30.9476 276.912C30.9692 275.076 31.2146 269.911 33.3368 271.85C33.3368 271.85 34.5603 272.436 33.6281 276.359C33.6281 276.359 38.545 270.896 36.2095 267.539C35.748 266.91 35.0796 266.458 34.318 266.26C33.5564 266.061 32.7487 266.13 32.0324 266.452C30.667 267.037 28.1335 268.112 23.433 270.094C17.3814 272.7 11.0674 274.67 4.59616 275.969Z" fill="#8B9D36"/>
<path d="M15.347 280.497C15.6493 278.81 16.1899 277.172 16.9531 275.632C17.3297 274.85 17.7922 274.111 18.3325 273.429C18.6077 273.082 18.9261 272.771 19.28 272.502C19.6312 272.222 20.069 272.067 20.5212 272.065C19.7499 272.394 19.1213 272.982 18.7462 273.723C18.3031 274.431 17.9004 275.162 17.54 275.914C16.79 277.417 16.122 278.965 15.347 280.497ZM25.9577 278.077C25.8686 276.565 26.008 275.049 26.3713 273.578C26.5525 272.836 26.8079 272.113 27.134 271.42C27.434 270.696 27.9789 270.096 28.6764 269.723C28.172 270.26 27.8048 270.908 27.6049 271.613C27.3772 272.307 27.1816 273.014 27.0063 273.73C26.6526 275.163 26.3591 276.616 25.9577 278.077ZM80.2542 224.89C80.2542 224.89 72.4087 225.999 79.3997 231.465C79.3997 231.465 81.1863 232.948 87.0121 234.666C87.0121 234.666 90.663 219.017 80.2542 224.89Z" fill="#5E7C24"/>
<path d="M87.0118 234.666C86.8665 234.153 86.7713 233.64 86.6406 233.136C86.4772 232.639 86.3592 232.134 86.1805 231.65C85.8444 230.683 85.4047 229.753 84.8687 228.877C84.3227 228.015 83.6569 227.232 82.8907 226.551C82.1123 225.855 81.221 225.294 80.2538 224.89C81.3306 225.067 82.3465 225.503 83.2113 226.16C84.0903 226.812 84.8401 227.618 85.4235 228.537C85.9866 229.461 86.406 230.462 86.6678 231.508C86.8102 232.023 86.8638 232.558 86.954 233.079C86.9804 233.611 87.0131 234.139 87.0118 234.666Z" fill="#50661A"/>
<path d="M70.2974 193.274C70.2974 193.274 78.9953 187.813 81.6004 199.94C81.6004 199.94 77.0865 196.11 77.0268 198.326C78.4889 200.013 79.6013 201.966 80.301 204.075C80.7065 205.647 80.4812 207.312 79.6719 208.724C78.5662 210.707 76.3324 214.602 75.9398 214.426C75.4142 214.19 74.1622 209.183 71.9005 208.034C69.6388 206.884 72.4571 217.919 72.4571 217.919C72.4571 217.919 67.4079 222.658 66.8379 222.188C66.2679 221.718 65.0639 218.657 64.8972 220.939L65.6393 223.26L61.7022 224.89L58.0557 219.195C58.0557 219.195 64.4742 214.178 61.2476 214.592C61.2476 214.592 58.2454 215.766 57.1732 217.397C57.1732 217.397 52.2589 209.827 54.3094 208.126C56.3123 206.626 58.4118 205.257 60.5945 204.025C61.0348 203.778 61.4031 203.424 61.664 202.996C61.9532 202.505 62.0095 201.982 60.7991 202.113C58.6203 202.349 54.3273 203.476 52.9393 205.502C52.9393 205.502 51.6392 197.238 55.8335 193.588C57.6607 192.422 59.8332 191.896 62.0005 192.096C62.0005 192.096 60.8534 189.855 57.2693 191.234C57.2692 191.234 62.4601 184.607 70.2974 193.274Z" fill="#5E7C24"/>
<path d="M74.1952 206.85C73.4854 205.145 72.8193 203.455 72.0097 201.844C71.6122 201.045 71.1411 200.283 70.6024 199.569C70.0964 198.824 69.3218 198.296 68.4357 198.093C68.921 198.078 69.4034 198.173 69.8454 198.371C70.2874 198.569 70.6772 198.865 70.9846 199.236C71.63 199.93 72.1719 200.711 72.5939 201.555C73.4244 203.22 73.9657 205.01 74.1952 206.85ZM56.3294 210.93C56.7728 209.984 57.3311 209.094 57.992 208.28C58.6447 207.447 59.4029 206.701 60.2482 206.058C61.0976 205.395 62.0705 204.903 63.1118 204.609C64.1558 204.336 65.2582 204.371 66.2822 204.71C65.2602 204.624 64.2313 204.753 63.264 205.089C62.3203 205.45 61.4374 205.949 60.6453 206.569C59.832 207.184 59.0729 207.866 58.3764 208.608C57.6723 209.35 56.9802 210.116 56.3294 210.93Z" fill="#50661A"/>
<path d="M64.4858 194.377C64.8062 193.955 65.2087 193.6 65.6698 193.333C66.1309 193.066 66.6413 192.893 67.1713 192.822C67.7032 192.74 68.2436 192.726 68.7792 192.78C69.3129 192.84 69.8401 192.947 70.3544 193.099L70.5457 193.152L70.4676 193.347C69.4515 195.876 68.5882 198.474 67.7357 201.067C66.9014 203.668 66.1499 206.293 65.4141 208.923C64.7066 211.56 64.0445 214.209 63.4275 216.871C62.8069 219.532 62.261 222.209 61.7023 224.889C62.0437 222.175 62.4539 219.466 62.9915 216.781C63.4805 214.085 64.1443 211.424 64.8179 208.768C65.4974 206.112 66.3043 203.489 67.1731 200.887C68.0365 198.283 69.004 195.715 70.1274 193.2L70.2404 193.447L69.4981 193.229C69.2456 193.182 68.9945 193.12 68.7405 193.079C68.2313 192.998 67.7137 192.981 67.2003 193.03C66.1527 193.116 65.1798 193.599 64.4858 194.377Z" fill="#50661A"/>
<path d="M67.1746 217.821C66.9218 216.886 66.5727 215.979 66.1327 215.114C65.9273 214.725 65.6194 214.398 65.2413 214.167C64.8044 213.975 64.3274 213.888 63.8496 213.912C64.0865 213.774 64.3492 213.684 64.622 213.649C64.8948 213.613 65.1721 213.631 65.4375 213.703C65.9775 213.903 66.4254 214.289 66.6972 214.79C67.2079 215.715 67.3766 216.787 67.1746 217.821Z" fill="#50661A"/>
<path d="M38.1531 280.497C38.1531 280.497 36.6069 275.237 32.6817 278.211C31.3474 279.256 30.393 280.699 29.9616 282.324C29.2537 284.841 28.6418 289.404 30.3854 295.879C30.3854 295.879 34.4036 290.4 37.3763 288.461C40.7289 286.275 42.8914 281.278 38.1531 280.497Z" fill="#C4CE6E"/>
<path d="M38.1532 280.497C37.5628 280.927 37.0478 281.449 36.6286 282.043C36.1849 282.615 35.7831 283.217 35.4264 283.845C34.6997 285.096 34.0535 286.392 33.4915 287.724C32.8986 289.046 32.3874 290.404 31.8798 291.766L30.3854 295.879C30.513 295.159 30.6819 294.448 30.8294 293.731C31 293.019 31.2122 292.319 31.4021 291.611C31.8148 290.205 32.3371 288.832 32.8916 287.47C33.4878 286.12 34.1936 284.82 35.0023 283.582C35.7728 282.309 36.8565 281.248 38.1532 280.497ZM43.8183 207.423C43.8183 207.423 43.9492 201.939 39.3066 203.562C37.7183 204.146 36.3683 205.227 35.4639 206.64C34.0229 208.819 32.0502 212.973 31.7371 219.674C31.7371 219.674 37.2317 215.695 40.6522 214.765C44.5098 213.716 48.091 209.625 43.8183 207.423Z" fill="#8B9D36"/>
<path d="M43.8182 207.423C43.1255 207.65 42.4757 207.988 41.8951 208.424C41.2982 208.832 40.7319 209.281 40.2007 209.769C39.127 210.738 38.1168 211.772 37.1761 212.867C36.209 213.944 35.3088 215.079 34.411 216.219L31.7369 219.674C32.0774 219.029 32.4544 218.405 32.8132 217.768C33.1918 217.144 33.6073 216.543 34.0035 215.929C34.8367 214.724 35.7309 213.561 36.6828 212.445C37.6618 211.344 38.7304 210.322 39.878 209.392C41.0002 208.416 42.3563 207.739 43.8182 207.423Z" fill="#5E7C24"/>
<path d="M78.8583 280.497C78.8583 280.497 80.4046 275.237 84.3297 278.211C85.664 279.256 86.6185 280.699 87.0498 282.324C87.7577 284.841 88.3696 289.404 86.626 295.879C86.626 295.879 82.6078 290.4 79.6351 288.461C76.2826 286.275 74.12 281.278 78.8583 280.497Z" fill="#8B9D36"/>
<path d="M78.8586 280.497C80.1553 281.248 81.2389 282.309 82.0094 283.582C82.8181 284.82 83.5239 286.12 84.12 287.47C84.6863 288.825 85.1834 290.207 85.6095 291.611C85.7994 292.319 86.0117 293.019 86.1823 293.73C86.3298 294.448 86.4987 295.158 86.6263 295.878L85.1319 291.766C84.6242 290.404 84.113 289.046 83.5201 287.723C82.9582 286.392 82.3119 285.096 81.5852 283.844C81.2286 283.216 80.8268 282.614 80.383 282.043C79.9638 281.449 79.4489 280.927 78.8586 280.497Z" fill="#5E7C24"/>
<path d="M77.6206 255.44C77.6206 255.44 62.8106 278.546 61.4343 304.585M80.2542 224.89C80.2542 224.89 60.7106 208.432 55.646 304.585L80.2542 224.89ZM61.7023 224.89C61.7023 224.89 51.9797 288.306 57.8055 304.585L61.7023 224.89ZM54.0988 304.585C54.0988 304.585 46.8734 276.008 38.1531 280.498L54.0988 304.585ZM55.1371 296.063C55.1371 296.063 61.4343 189.891 43.8183 207.424L55.1371 296.063ZM62.913 304.585C62.913 304.585 70.1384 276.008 78.8587 280.498L62.913 304.585ZM35.6614 266.94C35.6614 266.94 49.3386 263.633 56.7957 303.921L35.6614 266.94ZM40.1669 241.977C40.1669 241.977 44.1295 244.582 59.1236 303.921L40.1669 241.977Z" stroke="#50661A" stroke-width="0.644" stroke-miterlimit="10"/>
<path d="M38.2308 297.764V303.111C38.2259 303.602 38.4192 304.075 38.7683 304.426C39.1173 304.777 39.5935 304.977 40.092 304.982H77.3831C77.8817 304.977 78.3578 304.777 78.7069 304.426C79.0559 304.075 79.2493 303.602 79.2444 303.111V298.184C79.2491 297.696 79.0586 297.226 78.7141 296.876C78.3695 296.525 77.8988 296.323 77.404 296.313L40.1128 295.894C39.8642 295.893 39.618 295.941 39.3884 296.036C39.1589 296.13 38.9506 296.268 38.7755 296.442C38.6005 296.616 38.4622 296.822 38.3687 297.049C38.2752 297.276 38.2283 297.519 38.2308 297.764Z" fill="#D6694B"/>
<path d="M40.0107 304.98L41.3369 332.574H75.2607L77.4645 304.98H40.0107Z" fill="#E19974"/>
<path d="M71.5152 253.866C71.567 251.348 76.8492 255.916 76.8492 255.916C73.703 241.999 63.6504 247.802 63.6504 247.802C54.4585 237.574 48.4905 244.868 48.4905 244.868C52.6395 243.469 53.9926 246.072 53.9926 246.072C51.5156 245.728 48.9938 246.224 46.8396 247.477C42.0044 251.433 43.5904 260.893 43.5904 260.893C45.1828 258.655 50.1669 257.575 52.6913 257.406C54.2774 257.302 53.9989 258.07 53.5719 258.655C53.2853 259.035 52.9159 259.346 52.491 259.566C49.9666 260.863 47.5337 262.326 45.2087 263.945C42.8394 265.78 48.6264 274.622 48.6264 274.622C49.8562 272.82 53.3323 271.623 53.3323 271.623C57.0803 271.304 49.6684 276.711 49.6684 276.711L53.96 283.36L58.5237 281.688L57.6369 279.014C57.8116 276.424 59.2358 279.964 59.9024 280.523C60.5691 281.09 66.3948 275.936 66.3948 275.936C66.3948 275.936 63.0161 263.249 65.6505 264.667C68.2916 266.079 69.7932 271.831 70.4083 272.124C70.8679 272.345 73.4248 268.018 74.6936 265.812C75.1531 265.025 75.4503 264.155 75.568 263.254C75.6858 262.353 75.6218 261.438 75.3798 260.562C74.5321 258.109 73.2208 255.838 71.5152 253.866ZM56.7759 253.762C55.0928 255.135 52.5036 254.374 52.0895 253.352C51.6685 252.337 52.9568 250.314 54.8858 249.026C56.6918 247.815 58.7697 248.72 59.184 249.741C59.6047 250.756 58.6467 252.227 56.7759 253.762Z" fill="#5E7C24"/>
<path d="M63.6492 247.803C63.9842 249.319 64.2033 250.859 64.3046 252.408C64.3357 253.969 64.1948 255.53 63.8845 257.062C63.5683 258.587 63.1519 260.09 62.6378 261.562C62.1523 263.032 61.6495 264.505 61.0873 265.955C59.9414 268.845 58.6029 271.657 57.0804 274.373C56.3372 275.722 55.7245 277.137 55.2504 278.6C54.7557 280.064 54.3708 281.561 54.0989 283.081C54.3789 279.975 55.2376 276.947 56.632 274.149C58.0777 271.416 59.362 268.602 60.4784 265.723C61.0543 264.292 61.5706 262.84 62.0743 261.377C62.5818 259.918 63.0378 258.45 63.3946 256.96C63.7555 255.469 63.9537 253.945 63.986 252.412C63.971 250.87 63.8585 249.331 63.6492 247.803Z" fill="#50661A"/>
<path d="M64.0921 253.985C65.0127 254.596 65.842 255.331 66.5562 256.168C67.2791 256.996 67.9344 257.88 68.5158 258.81C69.0935 259.74 69.6062 260.707 70.0502 261.706C70.4944 262.702 70.8619 263.729 71.1493 264.779L69.5923 261.927C69.0621 260.99 68.5364 260.053 67.9597 259.148C67.3931 258.237 66.7928 257.348 66.159 256.481C65.525 255.606 64.8346 254.773 64.0921 253.985ZM59.5244 268.857C60.2062 269.51 60.7505 270.29 61.1259 271.151C61.3189 271.584 61.4604 272.038 61.5474 272.504C61.6628 272.984 61.5915 273.488 61.3477 273.919C61.3386 273.475 61.2389 273.038 61.0544 272.633C60.8854 272.225 60.7115 271.817 60.5274 271.409C60.1375 270.58 59.8024 269.728 59.5244 268.857ZM62.0719 262.303L58.754 263.541C57.6584 263.965 56.5678 264.395 55.5065 264.882C54.4374 265.346 53.3978 265.874 52.3933 266.462C51.3779 267.042 50.4395 267.744 49.5998 268.552C50.264 267.562 51.1176 266.71 52.1129 266.042C53.0926 265.359 54.1389 264.774 55.2363 264.296C57.4098 263.322 59.7105 262.651 62.0719 262.303Z" fill="#50661A"/>
<path d="M94.9553 238.134C94.9553 238.134 102.533 226.978 112.01 240.152C112.01 240.152 104.588 237.945 105.676 240.635C108.314 241.886 110.674 243.643 112.616 245.802C113.929 247.485 114.531 249.603 114.295 251.713C114.007 254.678 113.367 260.535 112.803 260.531C112.049 260.525 107.924 255.18 104.608 254.997C101.292 254.815 110.453 266.566 110.453 266.566C110.453 266.566 106.875 274.923 105.945 274.661C105.015 274.399 101.968 271.363 102.962 274.189L105.069 276.582L101.198 280.621L93.8394 275.716C93.8394 275.716 98.9141 266.299 95.2592 268.504C95.2592 268.504 92.2713 271.501 91.8389 274.026C91.8389 274.026 81.9773 267.542 83.547 264.415C85.1623 261.561 86.9607 258.811 88.9314 256.182C89.3285 255.658 89.5867 255.044 89.6828 254.396C89.7812 253.643 89.587 252.958 88.1858 253.766C85.6946 255.202 81.1335 258.826 80.5288 261.992C80.5288 261.992 74.6406 252.762 77.7625 246.163C79.3396 243.802 81.6681 242.025 84.3819 241.11C84.3819 241.11 81.8316 239.028 78.2531 242.579C78.253 242.579 81.0115 231.88 94.9553 238.134Z" fill="#C4CE6E"/>
<path d="M94.9554 238.134C96.2799 241.494 97.3748 244.937 98.2328 248.441C99.1217 251.939 99.8097 255.485 100.348 259.052C100.872 262.622 101.211 266.216 101.365 269.82C101.522 273.42 101.467 277.027 101.198 280.621C101.169 277.021 101.151 273.428 100.862 269.847C100.632 266.264 100.245 262.697 99.7023 259.145C99.2201 255.587 98.5261 252.061 97.7455 248.554C96.9605 245.049 96.0549 241.566 94.9554 238.134Z" fill="#8B9D36"/>
<path d="M96.8466 244.072C96.2334 244.824 95.6856 245.625 95.2089 246.467C94.733 247.3 94.3038 248.157 93.9234 249.036C93.5416 249.914 93.2093 250.814 92.9015 251.726C92.5969 252.64 92.3245 253.568 92.0347 254.506C92.065 253.525 92.1906 252.55 92.4098 251.592C92.6289 250.631 92.9345 249.691 93.3228 248.783C93.7188 247.875 94.2073 247.009 94.7807 246.198C95.3436 245.38 96.042 244.662 96.8466 244.072ZM99.9995 258.848C101.003 259.071 101.949 259.495 102.779 260.094C103.609 260.693 104.305 261.454 104.823 262.33C105.169 262.91 105.415 263.542 105.551 264.202C104.857 263.111 104.035 262.104 103.102 261.202C102.155 260.312 101.115 259.523 99.9995 258.848Z" fill="#8B9D36"/>
<path d="M489.043 333.575H30.4221C30.153 333.575 29.895 333.47 29.7047 333.282C29.5144 333.095 29.4075 332.84 29.4075 332.575C29.4075 332.31 29.5144 332.056 29.7047 331.868C29.895 331.681 30.153 331.575 30.4221 331.575H489.043C489.312 331.575 489.57 331.681 489.761 331.868C489.951 332.056 490.058 332.31 490.058 332.575C490.058 332.84 489.951 333.095 489.761 333.282C489.57 333.47 489.312 333.575 489.043 333.575Z" fill="#935B50"/>
</svg>
