<svg width="451" height="275" viewBox="0 0 451 275" fill="none" xmlns="http://www.w3.org/2000/svg">
<path d="M430.199 82.027C457.857 105.447 453.409 157.06 442.704 187.221C439.855 195.243 422.948 242.873 382.323 254.672C339.843 267.011 320.679 225.868 264.407 224.624C201.687 223.237 189.284 273.546 135.455 272.549C76.0678 271.448 -3.93655 208.452 0.450259 126.614C3.86862 62.8544 57.6147 4.37633 108.687 2.0762C166.213 -0.51425 175.468 70.1902 255.488 89.8028C338.469 110.141 391.972 49.6587 430.199 82.0269" fill="#F7F9F9"/>
<path d="M203.966 5.39823C197.868 17.4717 242.198 63.5447 299.716 70.0253C330.008 73.4386 370.874 66.6488 371.998 55.2531C374.273 32.1747 214.021 -14.5102 203.966 5.39823Z" fill="#F7F9F9"/>
<path d="M276.788 53.7969L238.9 38.4688L214.294 97.2989L252.182 112.627L276.788 53.7969Z" fill="#4CA258"/>
<path d="M271.251 56.3997L240.973 44.1494L221.307 91.1644L251.586 103.415L271.251 56.3997Z" fill="#81C56D"/>
<path d="M238.899 38.4697L235.38 46.8846C237.601 47.7498 240.08 47.7197 242.28 46.8009C244.479 45.8821 246.222 44.1485 247.132 41.9752L247.194 41.8257L238.899 38.4697ZM276.787 53.7982L273.267 62.2131C271.069 61.2902 269.33 59.5534 268.424 57.3784C267.519 55.2034 267.521 52.7653 268.429 50.5917L268.492 50.4422L276.787 53.7982Z" fill="#4CA258"/>
<path d="M248.262 77.3517C252.929 77.3517 256.713 73.6307 256.713 69.0406C256.713 64.4505 252.929 60.7295 248.262 60.7295C243.595 60.7295 239.812 64.4505 239.812 69.0406C239.812 73.6307 243.595 77.3517 248.262 77.3517Z" fill="#4CA258"/>
<path d="M123.728 43.5519L82.7616 43.9365L83.3791 107.547L124.345 107.162L123.728 43.5519Z" fill="#4CA258"/>
<path d="M119.657 48.0676L86.9186 48.375L87.4121 99.2103L120.151 98.9029L119.657 48.0676Z" fill="#81C56D"/>
<path d="M82.7615 43.9365L82.8498 53.0352C85.2388 52.9816 87.5102 52.0049 89.1726 50.3166C90.8349 48.6282 91.7543 46.364 91.732 44.0139L91.7305 43.8523L82.7615 43.9365ZM123.727 43.5518L123.816 52.6504C121.426 52.6417 119.136 51.7079 117.441 50.0511C115.747 48.3942 114.783 46.1477 114.76 43.7976L114.758 43.636L123.727 43.5518Z" fill="#4CA258"/>
<path d="M103.485 76.8234C108.152 76.8234 111.935 73.1024 111.935 68.5123C111.935 63.9222 108.152 60.2012 103.485 60.2012C98.8176 60.2012 95.0342 63.9222 95.0342 68.5123C95.0342 73.1024 98.8176 76.8234 103.485 76.8234Z" fill="#4CA258"/>
<path d="M400.258 218C393.085 204.372 367.117 155.422 361.661 150.629L370.525 129.073C374.168 120.211 368.173 110.07 358.476 109.425C358.135 109.402 357.791 109.391 357.444 109.391H356.363C355.201 102.14 351.973 96.916 348.162 96.916H323.901C320.091 96.916 316.862 102.14 315.7 109.391H315.244C314.897 109.391 314.553 109.402 314.212 109.425C304.515 110.07 298.52 120.211 302.164 129.073L311.027 150.629L273.767 216.958C271.304 221.24 269.744 225.967 269.182 230.855C268.62 235.744 269.067 240.694 270.497 245.408C274.904 259.329 287.516 270.281 303.79 270.929C304.317 270.951 304.847 270.961 305.38 270.961H367.93C368.462 270.961 368.992 270.951 369.52 270.929C389.856 270.119 404.474 253.22 404.51 234.543C404.462 228.773 403.004 223.099 400.258 218Z" fill="#FFCB5C"/>
<path d="M308.485 110.979C310.551 124.007 324.666 149.463 324.666 149.463C319.193 132.802 315.7 109.391 315.7 109.391H315.244C312.896 109.392 310.58 109.936 308.485 110.979ZM363.391 110.967C363.411 110.843 363.423 110.736 363.44 110.617C361.548 109.808 359.507 109.39 357.444 109.391H356.363C356.353 109.328 356.34 109.267 356.329 109.204C356.232 109.319 356.173 109.391 356.173 109.391C356.173 109.391 352.681 132.802 347.208 149.463C347.208 149.463 361.331 123.992 363.391 110.967ZM363.44 187.948C361.374 174.92 347.259 149.463 347.259 149.463C352.732 166.124 356.224 189.535 356.224 189.535H356.681C359.029 189.534 361.344 188.991 363.44 187.948ZM308.533 187.96C308.514 188.084 308.502 188.19 308.485 188.31C310.377 189.119 312.418 189.536 314.481 189.535H315.562C315.572 189.599 315.585 189.659 315.596 189.723C315.693 189.607 315.752 189.535 315.752 189.535C315.752 189.535 319.244 166.124 324.717 149.463C324.717 149.463 310.594 174.935 308.533 187.96Z" fill="#F29720"/>
<path d="M336.709 155.833C336.447 155.833 336.186 155.833 335.924 155.832C326.814 155.801 317.713 155.258 308.666 154.207C308.238 154.155 307.825 154.021 307.451 153.811C307.077 153.601 306.748 153.32 306.485 152.985C306.222 152.649 306.029 152.266 305.918 151.856C305.806 151.447 305.778 151.02 305.836 150.6C305.95 149.764 306.394 149.007 307.073 148.491C307.751 147.976 308.609 147.745 309.46 147.848C327.567 149.951 345.862 149.951 363.968 147.847C364.82 147.744 365.679 147.976 366.358 148.492C367.038 149.008 367.483 149.766 367.597 150.603C367.655 151.023 367.627 151.449 367.515 151.859C367.404 152.268 367.211 152.651 366.948 152.986C366.685 153.322 366.357 153.602 365.982 153.812C365.608 154.022 365.195 154.156 364.768 154.208C355.455 155.288 346.086 155.831 336.709 155.833ZM327.309 226.793C329.746 228.232 332.53 229.005 335.373 229.029C339.973 229.029 342.66 226.641 342.66 223.184C342.66 219.982 340.798 218.151 336.096 216.372C330.412 214.39 326.896 211.493 326.896 206.663C326.896 201.327 331.393 197.361 338.163 197.361C340.833 197.273 343.483 197.85 345.866 199.038L344.624 202.648C342.591 201.572 340.317 201.013 338.008 201.021C333.254 201.021 331.444 203.817 331.444 206.155C331.444 209.358 333.563 210.933 338.37 212.763C344.262 215 347.259 217.796 347.259 222.827C347.259 228.114 343.279 232.689 335.063 232.689C331.702 232.689 328.035 231.724 326.174 230.503L327.309 226.793Z" fill="#32333C"/>
<path d="M339.226 191.35H335.209V238.946H339.226V191.35Z" fill="#32333C"/>
<path d="M29.2799 80.048C44.0461 80.048 56.0164 68.2751 56.0164 53.7525C56.0164 39.2299 44.0461 27.457 29.2799 27.457C14.5137 27.457 2.5434 39.2299 2.5434 53.7525C2.5434 68.2751 14.5137 80.048 29.2799 80.048Z" fill="#FFCB5C"/>
<path d="M24.0657 61.425C25.4555 62.246 27.0433 62.6864 28.6645 62.7005C31.2878 62.7005 32.8202 61.3381 32.8202 59.367C32.8202 57.5405 31.7588 56.4966 29.0767 55.4817C25.8352 54.3517 23.8302 52.6991 23.8302 49.9445C23.8302 46.9013 26.3945 44.6398 30.2558 44.6398C31.7786 44.5893 33.2897 44.9183 34.6486 45.5961L33.9405 47.6549C32.7811 47.0412 31.4842 46.7222 30.1675 46.7268C27.4559 46.7268 26.424 48.3216 26.424 49.655C26.424 51.4814 27.6326 52.3798 30.3736 53.4237C33.7344 54.6992 35.4435 56.294 35.4435 59.1635C35.4435 62.1786 33.1735 64.7875 28.4879 64.7875C26.7169 64.8094 24.9702 64.38 23.418 63.5409L24.0657 61.425Z" fill="#F29720"/>
<path d="M30.862 41.2109H28.571V68.3555H30.862V41.2109Z" fill="#F29720"/>
<path d="M13.3609 53.7531C13.3614 47.7024 15.483 41.8369 19.3679 37.1452C23.2529 32.4535 28.6637 29.2225 34.6884 27.9969C30.8018 27.2109 26.7861 27.2856 22.9326 28.2154C19.079 29.1453 15.4842 30.9071 12.4089 33.3731C9.33365 35.839 6.85498 38.9472 5.15273 42.4722C3.45048 45.9973 2.56732 49.8507 2.56732 53.7531C2.56732 57.6555 3.45048 61.509 5.15273 65.034C6.85498 68.5591 9.33365 71.6673 12.4089 74.1332C15.4842 76.5991 19.079 78.3609 22.9326 79.2908C26.7861 80.2207 30.8018 80.2954 34.6884 79.5094C28.6637 78.2837 23.2529 75.0528 19.3679 70.3611C15.483 65.6694 13.3614 59.8039 13.3609 53.7531Z" fill="#F29720"/>
<path d="M28.9894 29.8291C27.8959 30.3205 26.8379 30.885 25.8228 31.5187H14.9999C15.4695 31.2258 15.9449 30.9498 16.4315 30.6851L18.1666 29.8291H28.9894ZM21.8658 34.5204C21.2817 35.0555 20.7148 35.6186 20.1823 36.21H9.36527C9.89782 35.6243 10.4571 35.0611 11.0431 34.5204H21.8658ZM16.128 42.0953C15.8474 42.6472 15.5898 43.2104 15.3551 43.7848H4.53794C4.77281 43.2104 5.03051 42.6472 5.31105 42.0953H16.128ZM13.6429 49.9461C13.5569 50.5036 13.494 51.0668 13.4481 51.6357H2.63116C2.67688 51.0668 2.73993 50.5037 2.82577 49.9461H13.6429ZM14.4216 61.1028H3.60461C3.43852 60.5509 3.29537 59.9878 3.16941 59.4133H13.9864C14.1124 59.9877 14.2556 60.5453 14.4216 61.1028ZM18.9798 69.8886H8.16848C7.73328 69.3423 7.32673 68.7791 6.93731 68.199H17.7543C18.138 68.7791 18.5503 69.3423 18.9798 69.8886ZM16.924 77.0804H27.7525C26.7669 76.5766 25.8145 76.0123 24.9008 75.3909H14.0838L16.924 77.0804Z" fill="#FFCB5C"/>
<path d="M213.137 42.038C220.18 42.038 225.89 36.4226 225.89 29.4956C225.89 22.5686 220.18 16.9531 213.137 16.9531C206.094 16.9531 200.384 22.5686 200.384 29.4956C200.384 36.4226 206.094 42.038 213.137 42.038Z" fill="#FFCB5C"/>
<path d="M210.65 33.1548C211.313 33.5463 212.07 33.7563 212.842 33.7628C214.094 33.7628 214.825 33.1138 214.825 32.1736C214.825 31.3026 214.318 30.8048 213.04 30.3215C211.493 29.7818 210.537 28.9945 210.537 27.6812C210.537 26.2295 211.761 25.1518 213.601 25.1518C214.327 25.1276 215.048 25.2845 215.696 25.6078L215.359 26.589C214.806 26.2968 214.187 26.1448 213.56 26.1467C212.267 26.1467 211.775 26.9067 211.775 27.5428C211.775 28.4138 212.351 28.8425 213.658 29.3395C215.26 29.9483 216.075 30.7083 216.075 32.0763C216.075 33.5143 214.993 34.7584 212.758 34.7584C211.914 34.7685 211.081 34.5637 210.341 34.1641L210.65 33.1548Z" fill="#F29720"/>
<path d="M213.893 23.5127H212.8V36.4603H213.893V23.5127Z" fill="#F29720"/>
<path d="M205.543 29.4943C205.544 26.6083 206.556 23.8106 208.409 21.5727C210.262 19.3349 212.843 17.7938 215.716 17.2092C213.862 16.8343 211.947 16.8699 210.109 17.3134C208.271 17.757 206.556 18.5973 205.089 19.7735C203.623 20.9497 202.44 22.4322 201.628 24.1136C200.816 25.7949 200.395 27.633 200.395 29.4943C200.395 31.3557 200.816 33.1937 201.628 34.8751C202.44 36.5564 203.623 38.039 205.089 39.2152C206.556 40.3914 208.271 41.2317 210.109 41.6753C211.947 42.1188 213.862 42.1544 215.716 41.7795C212.843 41.1949 210.262 39.6538 208.409 37.416C206.556 35.1781 205.544 32.3804 205.543 29.4943Z" fill="#F29720"/>
<path d="M212.999 18.084C212.477 18.3184 211.973 18.5876 211.489 18.8899H206.326C206.55 18.7502 206.777 18.6185 207.009 18.4923L207.837 18.084H212.999ZM209.601 20.3216C209.323 20.5768 209.052 20.8455 208.798 21.1275H203.639C203.893 20.8481 204.16 20.5795 204.439 20.3216H209.601ZM206.864 23.9347C206.731 24.1979 206.608 24.4666 206.496 24.7406H201.336C201.448 24.4666 201.571 24.1979 201.705 23.9347H206.864ZM205.679 27.6793C205.638 27.9453 205.608 28.2139 205.586 28.4852H200.427C200.448 28.2139 200.479 27.9453 200.52 27.6793H205.679ZM206.05 33.0009H200.891C200.812 32.7376 200.744 32.469 200.683 32.195H205.843C205.903 32.469 205.971 32.7349 206.05 33.0009ZM208.225 37.1915H203.068C202.86 36.9309 202.666 36.6623 202.481 36.3856H207.64C207.823 36.6623 208.02 36.9309 208.225 37.1915ZM207.244 40.6218H212.409C211.939 40.3815 211.485 40.1123 211.049 39.8159H205.889L207.244 40.6218Z" fill="#FFCB5C"/>
<path d="M40.6276 166.646C47.6708 166.646 53.3804 161.031 53.3804 154.104C53.3804 147.177 47.6708 141.562 40.6276 141.562C33.5844 141.562 27.8748 147.177 27.8748 154.104C27.8748 161.031 33.5844 166.646 40.6276 166.646Z" fill="#FFCB5C"/>
<path d="M38.1407 157.763C38.8032 158.155 39.5602 158.365 40.333 158.371C41.5841 158.371 42.3152 157.722 42.3152 156.782C42.3152 155.911 41.809 155.413 40.5301 154.93C38.9838 154.39 38.0279 153.603 38.0279 152.29C38.0279 150.838 39.2512 149.76 41.0919 149.76C41.8179 149.736 42.5383 149.893 43.1861 150.216L42.8492 151.197C42.2962 150.905 41.6779 150.753 41.0502 150.755C39.7574 150.755 39.2651 151.515 39.2651 152.151C39.2651 153.022 39.8416 153.451 41.1483 153.948C42.751 154.557 43.5655 155.317 43.5655 156.685C43.5655 158.123 42.4836 159.367 40.2488 159.367C39.4045 159.377 38.5718 159.172 37.8316 158.772L38.1407 157.763Z" fill="#F29720"/>
<path d="M41.3824 148.122H40.2897V161.07H41.3824V148.122Z" fill="#F29720"/>
<path d="M33.0346 154.104C33.0348 151.218 34.0468 148.42 35.8998 146.182C37.7529 143.944 40.3337 142.403 43.2073 141.819C41.3535 141.444 39.4381 141.479 37.6001 141.923C35.762 142.366 34.0474 143.207 32.5805 144.383C31.1137 145.559 29.9314 147.042 29.1195 148.723C28.3075 150.404 27.8863 152.242 27.8863 154.104C27.8863 155.965 28.3075 157.803 29.1195 159.484C29.9314 161.166 31.1137 162.648 32.5805 163.825C34.0474 165.001 35.762 165.841 37.6001 166.285C39.4381 166.728 41.3535 166.764 43.2073 166.389C40.3337 165.804 37.7529 164.263 35.8998 162.025C34.0468 159.787 33.0348 156.99 33.0346 154.104Z" fill="#F29720"/>
<path d="M40.4895 142.692C39.9679 142.927 39.4633 143.196 38.9791 143.498H33.8169C34.0409 143.359 34.2676 143.227 34.4997 143.101L35.3273 142.692H40.4895ZM37.0917 144.93C36.8131 145.185 36.5427 145.454 36.2887 145.736H31.1292C31.3832 145.457 31.6509 145.188 31.9295 144.93H37.0917ZM34.3549 148.543C34.2211 148.806 34.0982 149.075 33.9862 149.349H28.8267C28.9387 149.075 29.0617 148.806 29.1955 148.543H34.3549ZM33.1696 152.288C33.1285 152.554 33.0986 152.822 33.0767 153.094H27.9172C27.939 152.822 27.9691 152.554 28.0101 152.288H33.1696ZM33.541 157.609H28.3815C28.3023 157.346 28.234 157.077 28.174 156.803H33.3334C33.3935 157.077 33.4618 157.343 33.541 157.609ZM35.7152 161.8H30.5584C30.3508 161.539 30.1569 161.271 29.9712 160.994H35.1307C35.3136 161.271 35.5103 161.539 35.7152 161.8ZM34.7346 165.23H39.8996C39.4295 164.99 38.9752 164.721 38.5394 164.424H33.3799L34.7346 165.23Z" fill="#FFCB5C"/>
<path d="M28.8416 261.134C43.6077 261.134 55.5781 249.361 55.5781 234.838C55.5781 220.316 43.6077 208.543 28.8416 208.543C14.0754 208.543 2.10504 220.316 2.10504 234.838C2.10504 249.361 14.0754 261.134 28.8416 261.134Z" fill="#FFCB5C"/>
<path d="M23.6286 242.51C25.0182 243.331 26.6058 243.771 28.2267 243.785C30.8499 243.785 32.3832 242.423 32.3832 240.452C32.3832 238.625 31.3218 237.582 28.6396 236.567C25.3974 235.437 23.3931 233.784 23.3931 231.03C23.3931 227.986 25.9575 225.725 29.8188 225.725C31.3413 225.674 32.8521 226.003 34.2108 226.681L33.5034 228.74C32.344 228.126 31.0471 227.807 29.7305 227.812C27.0181 227.812 25.9869 229.407 25.9869 230.74C25.9869 232.566 27.1955 233.465 29.9365 234.509C33.2966 235.784 35.0064 237.379 35.0064 240.248C35.0064 243.263 32.7364 245.872 28.05 245.872C26.279 245.894 24.5324 245.465 22.9802 244.626L23.6286 242.51Z" fill="#F29720"/>
<path d="M30.4255 222.296H28.1345V249.44H30.4255V222.296Z" fill="#F29720"/>
<path d="M12.923 234.838C12.9236 228.787 15.0451 222.922 18.9301 218.23C22.8151 213.538 28.2259 210.307 34.2505 209.082C30.364 208.296 26.3483 208.371 22.4948 209.3C18.6412 210.23 15.0464 211.992 11.9711 214.458C8.89584 216.924 6.41718 220.032 4.71493 223.557C3.01267 227.082 2.12952 230.936 2.12952 234.838C2.12952 238.74 3.01267 242.594 4.71493 246.119C6.41718 249.644 8.89584 252.752 11.9711 255.218C15.0464 257.684 18.6412 259.446 22.4948 260.376C26.3483 261.306 30.364 261.38 34.2505 260.594C28.2259 259.369 22.8151 256.138 18.9301 251.446C15.0451 246.754 12.9236 240.889 12.923 234.838Z" fill="#F29720"/>
<path d="M28.5526 210.914C27.4591 211.405 26.401 211.97 25.386 212.604H14.5631C15.0327 212.311 15.5081 212.035 15.9947 211.77L17.7298 210.914H28.5526ZM21.429 215.605C20.8449 216.14 20.278 216.704 19.7455 217.295H8.92843C9.46099 216.709 10.0222 216.146 10.6063 215.605H21.429ZM15.6912 223.18C15.4106 223.732 15.153 224.295 14.9182 224.87H4.10112C4.33599 224.295 4.59369 223.732 4.87423 223.18H15.6912ZM13.2061 231.031C13.1201 231.589 13.0572 232.152 13.0113 232.721H2.19434C2.24005 232.152 2.3031 231.589 2.38894 231.031H13.2061ZM13.9848 242.188H3.16778C3.0017 241.636 2.85853 241.073 2.73257 240.498H13.5496C13.6756 241.073 13.8187 241.63 13.9848 242.188ZM18.543 250.973H7.73165C7.29644 250.427 6.8899 249.864 6.50047 249.284H17.3175C17.7011 249.864 18.1135 250.427 18.543 250.973ZM16.4872 258.165H27.3157C26.3301 257.662 25.3776 257.097 24.464 256.476H13.6469L16.4872 258.165Z" fill="#FFCB5C"/>
<path d="M315.907 87.9484C330.673 87.9484 342.643 76.1755 342.643 61.6529C342.643 47.1303 330.673 35.3574 315.907 35.3574C301.141 35.3574 289.17 47.1303 289.17 61.6529C289.17 76.1755 301.141 87.9484 315.907 87.9484Z" fill="#FFCB5C"/>
<path d="M310.693 69.3253C312.083 70.1462 313.67 70.5866 315.291 70.6009C317.915 70.6009 319.448 69.2385 319.448 67.2673C319.448 65.4409 318.386 64.397 315.704 63.3821C312.462 62.2521 310.458 60.5994 310.458 57.8449C310.458 54.8017 313.022 52.5402 316.884 52.5402C318.406 52.4898 319.917 52.8187 321.275 53.4964L320.568 55.5553C319.409 54.9418 318.112 54.6228 316.795 54.6272C314.083 54.6272 313.052 56.222 313.052 57.5554C313.052 59.3818 314.26 60.2801 317.001 61.324C320.361 62.5995 322.071 64.1943 322.071 67.0638C322.071 70.0789 319.801 72.6878 315.115 72.6878C313.344 72.7097 311.597 72.2802 310.045 71.4413L310.693 69.3253Z" fill="#F29720"/>
<path d="M317.491 49.1113H315.2V76.2558H317.491V49.1113Z" fill="#F29720"/>
<path d="M299.988 61.6535C299.989 55.6028 302.11 49.7373 305.995 45.0456C309.88 40.3539 315.291 37.1229 321.316 35.8973C317.429 35.1113 313.414 35.1859 309.56 36.1158C305.706 37.0457 302.112 38.8075 299.036 41.2735C295.961 43.7394 293.482 46.8476 291.78 50.3726C290.078 53.8976 289.195 57.7511 289.195 61.6535C289.195 65.5559 290.078 69.4094 291.78 72.9344C293.482 76.4594 295.961 79.5676 299.036 82.0336C302.112 84.4995 305.706 86.2613 309.56 87.1912C313.414 88.1211 317.429 88.1957 321.316 87.4097C315.291 86.1841 309.88 82.9531 305.995 78.2615C302.11 73.5698 299.989 67.7042 299.988 61.6535Z" fill="#F29720"/>
<path d="M315.618 37.7295C314.524 38.2209 313.466 38.7854 312.451 39.419H301.628C302.098 39.1262 302.573 38.8502 303.06 38.5855L304.795 37.7295H315.618ZM308.494 42.4208C307.91 42.9558 307.343 43.519 306.811 44.1104H295.994C296.526 43.5247 297.087 42.9615 297.672 42.4208H308.494ZM302.756 49.9957C302.476 50.5476 302.218 51.1108 301.984 51.6852H291.166C291.401 51.1108 291.659 50.5476 291.94 49.9957H302.756ZM300.271 57.8465C300.185 58.404 300.122 58.9672 300.077 59.536H289.26C289.305 58.9672 289.368 58.404 289.454 57.8465H300.271ZM301.05 69.0032H290.233C290.067 68.4513 289.924 67.8881 289.798 67.3136H300.615C300.741 67.8881 300.884 68.4457 301.05 69.0032ZM305.608 77.7889H294.797C294.362 77.2426 293.955 76.6794 293.566 76.0994H304.383C304.766 76.6794 305.179 77.2426 305.608 77.7889ZM303.553 84.9808H314.381C313.395 84.4769 312.443 83.9126 311.529 83.2912H300.712L303.553 84.9808Z" fill="#FFCB5C"/>
<path d="M271.669 234.981H61.7755C59.5686 234.997 57.4453 234.151 55.8714 232.63C54.2975 231.108 53.4014 229.035 53.3798 226.864V92.4936C53.4014 90.3231 54.2975 88.2497 55.8714 86.7281C57.4453 85.2066 59.5686 84.3611 61.7755 84.3772H271.669C273.876 84.3611 275.999 85.2066 277.573 86.7281C279.147 88.2497 280.043 90.3231 280.065 92.4936V226.864C280.043 229.035 279.147 231.108 277.573 232.63C275.999 234.151 273.876 234.997 271.669 234.981ZM71.0818 225.963H270.736V93.3954H71.0818V225.963Z" fill="#585A66"/>
<path d="M282.286 88.8867H75.9736C73.948 88.8867 72.306 90.5017 72.306 92.4938V226.865C72.306 228.857 73.948 230.472 75.9736 230.472H282.286C284.312 230.472 285.954 228.857 285.954 226.865V92.4938C285.954 90.5017 284.312 88.8867 282.286 88.8867Z" fill="#71B8E6"/>
<path d="M138.462 229.33C138.462 233.427 137.641 237.483 136.047 241.268C134.453 245.052 132.117 248.491 129.172 251.388C126.227 254.284 122.73 256.582 118.882 258.15C115.034 259.717 110.91 260.524 106.744 260.524H227.083C218.671 260.524 210.604 257.238 204.656 251.388C198.708 245.538 195.366 237.603 195.366 229.33L138.462 229.33Z" fill="#9FB1C1"/>
<path d="M84.6853 89.3396C84.346 94.0741 84.1076 99.6654 84.1717 105.951C84.4844 151.256 100.335 195.131 129.157 230.474H75.9743C75.4926 230.474 75.0156 230.381 74.5705 230.2C74.1255 230.019 73.7211 229.753 73.3805 229.418C73.0399 229.083 72.7697 228.685 72.5854 228.247C72.4012 227.81 72.3064 227.341 72.3065 226.867V92.4959C72.3065 92.0222 72.4013 91.5531 72.5856 91.1154C72.7699 90.6777 73.0401 90.2801 73.3806 89.9451C73.7212 89.6101 74.1256 89.3444 74.5706 89.1631C75.0157 88.9819 75.4926 88.8886 75.9743 88.8887H285.955V89.3396H84.6853Z" fill="#4B9DD7"/>
<path d="M152.997 230.472C152.997 234.498 152.191 238.485 150.624 242.205C149.057 245.926 146.761 249.306 143.866 252.153C140.971 255 137.534 257.259 133.752 258.799C129.969 260.34 125.915 261.133 121.821 261.133H240.107C236.013 261.133 231.959 260.34 228.177 258.799C224.394 257.259 220.957 255 218.062 252.153C215.167 249.306 212.871 245.926 211.304 242.205C209.737 238.485 208.931 234.498 208.931 230.472L152.997 230.472Z" fill="#D6E4F0"/>
<path d="M238.313 261.134H240.107C239.475 261.134 238.849 261.11 238.226 261.073C238.255 261.094 238.284 261.113 238.313 261.134Z" fill="#DDDDDD"/>
<path d="M171.31 242.94L209.503 236.316C209.123 234.39 208.932 232.433 208.931 230.472V230.472H152.997V230.472C152.997 234.498 152.191 238.485 150.624 242.206C149.057 245.926 146.761 249.306 143.866 252.153C140.971 255 137.534 257.259 133.751 258.8C129.969 260.34 125.915 261.134 121.821 261.134H156.625C155.321 253.837 157.687 249.731 162.224 246.558C164.943 244.705 168.046 243.469 171.31 242.94Z" fill="#B1C5DA"/>
<path d="M106.745 260.523H239.285C239.729 260.523 240.155 260.697 240.469 261.006C240.783 261.315 240.96 261.734 240.96 262.171V270.961H105.07V262.171C105.07 261.734 105.246 261.315 105.56 261.006C105.874 260.697 106.3 260.523 106.745 260.523Z" fill="#9FB1C1"/>
<path d="M282.287 234.981H75.9741C73.7861 234.978 71.6885 234.122 70.1414 232.601C68.5943 231.079 67.724 229.016 67.7216 226.864V92.4933C67.724 90.3415 68.5943 88.2784 70.1414 86.7569C71.6885 85.2353 73.7861 84.3794 75.9741 84.377H282.287C284.475 84.3794 286.572 85.2353 288.119 86.7569C289.666 88.2784 290.537 90.3415 290.539 92.4933V226.864C290.537 229.016 289.666 231.079 288.119 232.601C286.572 234.122 284.475 234.978 282.287 234.981ZM76.891 225.962H281.37V93.3952H76.891V225.962Z" fill="#32333C"/>
<path d="M257.743 186.943L227.332 176.973C229.162 169.857 229.402 162.435 228.035 155.219C226.668 148.003 223.726 141.164 219.414 135.173L248.262 99.3137L243.009 95.2258L215.085 129.936C209.191 123.688 201.788 119.004 193.564 116.317C185.34 113.63 176.559 113.028 168.035 114.565L163.137 71.3584L156.479 72.0886L161.476 116.173C150.655 119.612 141.287 126.462 134.823 135.665L107.606 117.557L103.852 123.014L131.378 141.327C127.473 148.807 125.52 157.125 125.695 165.532C125.87 173.939 128.167 182.171 132.38 189.488L100.051 206.773L103.25 212.561L136.06 195.019C141.571 202.22 148.931 207.849 157.385 211.326C165.84 214.803 175.083 216.003 184.165 214.804C193.247 213.604 201.841 210.048 209.063 204.501C216.285 198.953 221.875 191.614 225.259 183.239L255.625 193.194L257.743 186.943Z" fill="#32333C"/>
<path d="M177.296 208.638C202.085 208.638 222.181 188.875 222.181 164.495C222.181 140.114 202.085 120.351 177.296 120.351C152.507 120.351 132.412 140.114 132.412 164.495C132.412 188.875 152.507 208.638 177.296 208.638Z" fill="#FFCB5C"/>
<path d="M168.544 177.373C170.878 178.752 173.544 179.491 176.265 179.515C180.67 179.515 183.244 177.228 183.244 173.917C183.244 170.85 181.462 169.098 176.958 167.394C171.514 165.496 168.148 162.722 168.148 158.097C168.148 152.986 172.454 149.189 178.938 149.189C181.495 149.104 184.031 149.657 186.312 150.795L185.125 154.251C183.178 153.222 181 152.687 178.789 152.694C174.236 152.694 172.504 155.371 172.504 157.61C172.504 160.677 174.533 162.186 179.136 163.938C184.778 166.08 187.649 168.757 187.649 173.576C187.649 178.639 183.838 183.02 175.968 183.02C172.751 183.02 169.237 182.095 167.455 180.927L168.544 177.373Z" fill="#F29720"/>
<path d="M179.954 143.438H176.108V189.01H179.954V143.438Z" fill="#F29720"/>
<path d="M150.572 164.494C150.573 154.336 154.135 144.489 160.657 136.613C167.179 128.736 176.263 123.312 186.377 121.254C179.852 119.935 173.111 120.06 166.641 121.621C160.172 123.182 154.137 126.14 148.974 130.28C143.811 134.42 139.65 139.638 136.792 145.556C133.934 151.473 132.452 157.943 132.452 164.494C132.452 171.045 133.934 177.515 136.792 183.432C139.65 189.35 143.811 194.568 148.974 198.708C154.137 202.848 160.172 205.806 166.641 207.367C173.111 208.928 179.852 209.053 186.377 207.734C176.263 205.676 167.179 200.252 160.657 192.375C154.135 184.499 150.573 174.652 150.572 164.494Z" fill="#F29720"/>
<path d="M176.81 124.331C174.974 125.156 173.198 126.104 171.494 127.168H153.324C154.113 126.676 154.911 126.213 155.728 125.768L158.641 124.331L176.81 124.331ZM164.851 132.207C163.87 133.105 162.918 134.051 162.025 135.043H143.865C144.759 134.06 145.701 133.115 146.682 132.207H164.851ZM155.218 144.924C154.747 145.85 154.315 146.796 153.92 147.76H135.761C136.155 146.796 136.588 145.85 137.059 144.924H155.218ZM151.046 158.104C150.902 159.04 150.796 159.985 150.719 160.94H132.56C132.636 159.985 132.742 159.04 132.886 158.104H151.046ZM152.353 176.834H134.194C133.915 175.907 133.675 174.962 133.463 173.997H151.623C151.834 174.962 152.075 175.898 152.353 176.834ZM160.006 191.583H141.856C141.125 190.666 140.443 189.72 139.789 188.747H157.948C158.592 189.72 159.285 190.666 160.006 191.583ZM156.554 203.657H174.733C173.079 202.811 171.48 201.864 169.946 200.82H151.786L156.554 203.657Z" fill="#FFCB5C"/>
<path d="M158.622 86.9921C170.081 86.9921 179.371 77.8555 179.371 66.5849C179.371 55.3143 170.081 46.1777 158.622 46.1777C147.162 46.1777 137.872 55.3143 137.872 66.5849C137.872 77.8555 147.162 86.9921 158.622 86.9921Z" fill="#EF403A"/>
<path d="M158.622 83.0393C167.862 83.0393 175.352 75.6725 175.352 66.5851C175.352 57.4977 167.862 50.1309 158.622 50.1309C149.382 50.1309 141.892 57.4977 141.892 66.5851C141.892 75.6725 149.382 83.0393 158.622 83.0393Z" fill="#EF403A"/>
<path d="M159.26 68.4983C163.266 68.4983 166.514 65.3046 166.514 61.3649C166.514 57.4252 163.266 54.2314 159.26 54.2314C155.255 54.2314 152.007 57.4252 152.007 61.3649C152.007 65.3046 155.255 68.4983 159.26 68.4983Z" fill="#32333C"/>
<path d="M159.26 70.0117C157.007 70.0117 154.777 70.448 152.696 71.2958C150.615 72.1436 148.724 73.3862 147.131 74.9526C145.539 76.5191 144.275 78.3788 143.413 80.4255C142.551 82.4722 142.107 84.6658 142.107 86.8811H176.412C176.412 84.6658 175.969 82.4722 175.107 80.4255C174.245 78.3788 172.981 76.5191 171.388 74.9526C169.796 73.3862 167.905 72.1436 165.824 71.2958C163.743 70.448 161.512 70.0117 159.26 70.0117Z" fill="#32333C"/>
<path d="M266.289 211.68C277.749 211.68 287.039 202.543 287.039 191.272C287.039 180.002 277.749 170.865 266.289 170.865C254.83 170.865 245.54 180.002 245.54 191.272C245.54 202.543 254.83 211.68 266.289 211.68Z" fill="#EF403A"/>
<path d="M266.29 207.727C275.53 207.727 283.02 200.36 283.02 191.273C283.02 182.185 275.53 174.818 266.29 174.818C257.05 174.818 249.559 182.185 249.559 191.273C249.559 200.36 257.05 207.727 266.29 207.727Z" fill="#EF403A"/>
<path d="M266.929 193.187C270.934 193.187 274.182 189.993 274.182 186.053C274.182 182.114 270.934 178.92 266.929 178.92C262.923 178.92 259.675 182.114 259.675 186.053C259.675 189.993 262.923 193.187 266.929 193.187Z" fill="#32333C"/>
<path d="M266.928 194.701C264.675 194.701 262.445 195.137 260.364 195.985C258.283 196.833 256.392 198.076 254.799 199.642C253.207 201.209 251.943 203.068 251.081 205.115C250.219 207.162 249.776 209.355 249.776 211.571H284.08C284.08 209.355 283.637 207.162 282.775 205.115C281.913 203.068 280.649 201.209 279.057 199.642C277.464 198.076 275.573 196.833 273.492 195.985C271.411 195.137 269.18 194.701 266.928 194.701Z" fill="#32333C"/>
<path d="M101.138 230.952C112.598 230.952 121.888 221.815 121.888 210.545C121.888 199.274 112.598 190.138 101.138 190.138C89.6786 190.138 80.3887 199.274 80.3887 210.545C80.3887 221.815 89.6786 230.952 101.138 230.952Z" fill="#EF403A"/>
<path d="M101.139 226.999C110.379 226.999 117.869 219.632 117.869 210.545C117.869 201.458 110.379 194.091 101.139 194.091C91.8991 194.091 84.4087 201.458 84.4087 210.545C84.4087 219.632 91.8991 226.999 101.139 226.999Z" fill="#EF403A"/>
<path d="M101.777 212.459C105.782 212.459 109.03 209.266 109.03 205.326C109.03 201.386 105.782 198.192 101.777 198.192C97.7708 198.192 94.5235 201.386 94.5235 205.326C94.5235 209.266 97.7708 212.459 101.777 212.459Z" fill="#32333C"/>
<path d="M101.776 213.973C99.5235 213.973 97.2931 214.409 95.2121 215.257C93.131 216.104 91.2402 217.347 89.6474 218.914C88.0547 220.48 86.7912 222.34 85.9292 224.386C85.0673 226.433 84.6236 228.627 84.6236 230.842H118.928C118.928 228.627 118.485 226.433 117.623 224.386C116.761 222.34 115.497 220.48 113.905 218.914C112.312 217.347 110.421 216.104 108.34 215.257C106.259 214.409 104.028 213.973 101.776 213.973Z" fill="#32333C"/>
<path d="M252.865 107.548C259.803 107.548 265.426 102.017 265.426 95.1937C265.426 88.3708 259.803 82.8398 252.865 82.8398C245.928 82.8398 240.304 88.3708 240.304 95.1937C240.304 102.017 245.928 107.548 252.865 107.548Z" fill="#EF403A"/>
<path d="M252.866 105.155C258.459 105.155 262.993 100.695 262.993 95.194C262.993 89.6929 258.459 85.2334 252.866 85.2334C247.272 85.2334 242.738 89.6929 242.738 95.194C242.738 100.695 247.272 105.155 252.866 105.155Z" fill="#EF403A"/>
<path d="M253.252 96.3531C255.677 96.3531 257.643 94.4195 257.643 92.0344C257.643 89.6493 255.677 87.7158 253.252 87.7158C250.827 87.7158 248.861 89.6493 248.861 92.0344C248.861 94.4195 250.827 96.3531 253.252 96.3531Z" fill="#32333C"/>
<path d="M253.252 97.2695C251.888 97.2695 250.538 97.5336 249.278 98.0468C248.019 98.56 246.874 99.3122 245.91 100.26C244.946 101.209 244.181 102.334 243.659 103.573C243.137 104.812 242.869 106.14 242.869 107.481H263.635C263.635 104.773 262.541 102.176 260.594 100.26C258.647 98.3454 256.006 97.2695 253.252 97.2695Z" fill="#32333C"/>
<path d="M105.729 130.798C112.666 130.798 118.29 125.267 118.29 118.444C118.29 111.621 112.666 106.09 105.729 106.09C98.7919 106.09 93.1682 111.621 93.1682 118.444C93.1682 125.267 98.7919 130.798 105.729 130.798Z" fill="#EF403A"/>
<path d="M105.729 128.404C111.323 128.404 115.857 123.944 115.857 118.443C115.857 112.942 111.323 108.482 105.729 108.482C100.136 108.482 95.6017 112.942 95.6017 118.443C95.6017 123.944 100.136 128.404 105.729 128.404Z" fill="#EF403A"/>
<path d="M106.116 119.603C108.541 119.603 110.507 117.67 110.507 115.284C110.507 112.899 108.541 110.966 106.116 110.966C103.691 110.966 101.725 112.899 101.725 115.284C101.725 117.67 103.691 119.603 106.116 119.603Z" fill="#32333C"/>
<path d="M106.116 120.519C104.752 120.519 103.402 120.783 102.142 121.296C100.882 121.809 99.7378 122.561 98.7736 123.509C97.8094 124.458 97.0446 125.583 96.5228 126.822C96.001 128.061 95.7324 129.389 95.7324 130.73H116.499C116.499 129.389 116.23 128.061 115.708 126.822C115.187 125.583 114.422 124.458 113.458 123.51C112.493 122.561 111.349 121.809 110.089 121.296C108.829 120.783 107.479 120.519 106.116 120.519Z" fill="#32333C"/>
<path d="M33.1339 270.917H28.6248V274.211H33.1339V270.917Z" fill="#222328"/>
<path d="M266.386 270.917H35.5452V274.211H266.386V270.917Z" fill="#222328"/>
<path d="M409.739 270.917H269.602V274.211H409.739V270.917Z" fill="#222328"/>
<path d="M422.653 270.917H414.295V274.211H422.653V270.917Z" fill="#222328"/>
</svg>
