<svg width="462" height="375" viewBox="0 0 462 375" fill="none" xmlns="http://www.w3.org/2000/svg">
<path d="M456.174 375H5.50713C2.47821 375 0 372.541 0 369.535V348.132C0 345.126 2.47821 342.667 5.50713 342.667H456.174C459.203 342.667 461.681 345.126 461.681 348.132V369.535C461.681 372.541 459.203 375 456.174 375Z" fill="#F7F7F7"/>
<path d="M234.512 350.409C319.167 350.409 387.793 282.311 387.793 198.308C387.793 114.304 319.167 46.2061 234.512 46.2061C149.857 46.2061 81.23 114.304 81.23 198.308C81.23 282.311 149.857 350.409 234.512 350.409Z" fill="#F3FAFF"/>
<path d="M424.508 305.735C427.766 297.492 431.07 288.339 427.996 280.051C427.261 278.047 426.114 275.907 426.802 273.857C427.72 271.079 431.392 270.123 432.585 267.482C433.962 264.567 431.805 261.197 432.355 258.055C432.906 254.867 436.073 252.773 439.148 251.634C442.222 250.496 445.573 249.767 448.051 247.672C452.778 243.574 452.227 236.242 451.172 230.048C450.116 223.901 449.336 216.614 453.879 212.288C445.527 213.882 436.991 215.521 429.74 219.893C422.489 224.265 416.706 232.007 417.119 240.431C417.349 244.667 419.001 249.175 417.073 252.909C414.962 256.962 409.317 258.556 407.895 262.882C406.243 267.846 411.153 272.4 413.081 277.273C414.916 281.872 414.044 287.018 414.457 291.891C414.87 296.809 417.44 302.365 422.351 303.094L424.508 305.735Z" fill="#FFBE55"/>
<path opacity="0.31" d="M424.508 305.735C427.766 297.492 431.07 288.339 427.996 280.051C427.261 278.047 426.114 275.907 426.802 273.857C427.72 271.079 431.392 270.123 432.585 267.482C433.962 264.567 431.805 261.197 432.355 258.055C432.906 254.867 436.073 252.773 439.148 251.634C442.222 250.496 445.573 249.767 448.051 247.672C452.778 243.574 452.227 236.242 451.172 230.048C450.116 223.901 449.336 216.614 453.879 212.288C445.527 213.882 436.991 215.521 429.74 219.893C422.489 224.265 416.706 232.007 417.119 240.431C417.349 244.667 419.001 249.175 417.073 252.909C414.962 256.962 409.317 258.556 407.895 262.882C406.243 267.846 411.153 272.4 413.081 277.273C414.916 281.872 414.044 287.018 414.457 291.891C414.87 296.809 417.44 302.365 422.351 303.094L424.508 305.735Z" fill="white"/>
<path d="M421.158 294.942C421.066 270.988 425.747 220.849 453.604 212.47" stroke="white" stroke-width="0.75" stroke-miterlimit="10" stroke-linecap="round"/>
<path d="M405.095 303.73C400.138 294.531 394.998 284.285 397.431 274.13C398.027 271.671 399.037 269.029 397.981 266.707C396.559 263.61 392.107 262.927 390.317 260.013C388.344 256.825 390.363 252.544 389.262 248.946C388.16 245.258 384.168 243.3 380.45 242.343C376.733 241.432 372.694 241.068 369.482 238.882C363.378 234.738 363.011 226.04 363.378 218.708C363.745 211.376 363.654 202.724 357.733 198.307C367.738 199.035 377.972 199.809 387.059 203.954C396.146 208.098 404.039 216.386 404.682 226.313C405.003 231.277 403.672 236.787 406.472 240.931C409.5 245.394 416.338 246.487 418.633 251.36C421.249 256.961 416.155 262.927 414.549 268.893C413.08 274.494 414.778 280.414 414.962 286.198C415.145 291.981 412.897 298.858 407.252 300.406L405.095 303.73Z" fill="#FFBE55"/>
<path d="M407.527 290.615C404.315 262.518 391.924 204.455 358.101 198.489" stroke="white" stroke-width="0.75" stroke-miterlimit="10" stroke-linecap="round"/>
<path d="M436.44 357.695H392.842C389.813 357.695 387.335 355.236 387.335 352.231L383.663 289.842C383.663 286.836 386.141 284.377 389.17 284.377H440.111C443.14 284.377 445.618 286.836 445.618 289.842L441.947 352.231C441.947 355.236 439.469 357.695 436.44 357.695Z" fill="#CCE9FF"/>
<path d="M69.2267 155.322L41.0947 159.555L60.2211 284.723L88.3531 280.491L69.2267 155.322Z" fill="#FFBE55"/>
<path d="M69.2172 155.334L55.1512 157.45L74.2776 282.619L88.3436 280.503L69.2172 155.334Z" fill="#FFBE55"/>
<path d="M69.2521 155.455L41.1198 159.69L47.7284 142.886L51.4916 133.414L57.9166 141.383L69.2521 155.455Z" fill="#FFEBC2"/>
<path d="M57.9166 141.382L47.7284 142.885L51.4916 133.413L57.9166 141.382Z" fill="#0E538C"/>
<path d="M120.178 129.183L91.8385 126.665L80.4595 252.758L108.799 255.276L120.178 129.183Z" fill="#FFBE55"/>
<path d="M120.205 129.194L106.035 127.935L94.6561 254.028L108.826 255.287L120.205 129.194Z" fill="#FFBE55"/>
<path d="M120.193 129.315L91.8311 126.81L102.295 112.055L108.215 103.722L112.529 112.966L120.193 129.315Z" fill="#FFEBC2"/>
<path d="M112.529 112.966L102.295 112.055L108.215 103.722L112.529 112.966Z" fill="#0E538C"/>
<path d="M138.826 358.15H27.0311L12.3913 186.467H147.775L138.826 358.15Z" fill="#CCE9FF"/>
<path opacity="0.5" d="M80.0829 358.15H138.826L147.775 186.467H80.0829V358.15Z" fill="#CCE9FF"/>
<path d="M388.711 309.696H104.635V348.45H388.711V309.696Z" fill="#FFEBC2"/>
<path d="M105.829 309.697V348.451H403.856V351.366C403.856 354.963 400.689 357.878 396.789 357.878H107.114C97.8891 357.878 90.4086 351.047 90.4086 342.576V316.665C90.4086 308.194 97.8891 301.363 107.114 301.363H396.789C400.689 301.363 403.856 304.278 403.856 307.875V309.743H105.829V309.697Z" fill="#FFBE55"/>
<path d="M388.711 326.956H104.635V348.405H388.711V326.956Z" fill="#FFEBC2"/>
<path d="M372.19 262.518H141.35V296.217H372.19V262.518Z" fill="#CCE9FF"/>
<path d="M141.35 262.518V296.217H380.91V298.767C380.91 301.91 378.34 304.414 375.219 304.414H142.359C134.971 304.414 128.959 298.449 128.959 291.117V268.575C128.959 261.243 134.971 255.277 142.359 255.277H375.219C378.34 255.277 380.91 257.828 380.91 260.924V262.564H141.35V262.518Z" fill="#2A94F4"/>
<path d="M241.121 147.804C237.954 143.66 237.679 137.968 240.662 133.641C243.048 130.18 244.654 125.9 244.471 122.757C244.104 117.111 240.57 111.919 235.751 108.822C229.418 104.724 220.974 104.132 214.136 107.32C207.298 110.507 202.341 117.338 201.469 124.761C200.827 130.089 202.066 135.918 199.312 140.563C197.293 143.888 193.576 145.846 189.904 147.167C186.187 148.442 182.286 149.307 178.89 151.265C175.494 153.223 172.603 156.593 172.649 160.51C172.695 163.47 174.393 166.202 174.576 169.116C174.851 173.397 171.823 177.177 168.61 180C165.352 182.824 161.634 185.283 159.432 188.972C155.806 195.074 157.504 203.317 162.093 208.781C166.683 214.246 173.566 217.297 180.45 219.073C199.266 223.991 219.092 220.804 238.505 220.485C244.517 220.394 250.666 220.576 256.495 219.073C262.323 217.57 268.014 214.109 270.446 208.645C272.924 203.18 271.685 196.531 268.381 191.567C265.077 186.604 259.891 183.006 254.429 180.456C250.483 178.589 246.261 177.131 243.048 174.217C239.836 171.302 237.954 166.339 240.111 162.559C240.937 161.102 242.314 159.963 243.094 158.506C244.654 155.682 244.012 152.085 242.268 149.352C241.947 148.897 241.58 148.396 241.121 147.804Z" fill="#0E538C"/>
<path d="M372.19 277.546H141.35V296.217H372.19V277.546Z" fill="#CCE9FF"/>
<path d="M245.526 229.729L273.98 249.767L308.858 321.264H302.433L263.424 257.964C263.424 257.964 250.115 258.419 245.526 254.321C240.937 250.222 214.548 232.462 214.548 232.462L245.526 229.729Z" fill="#0B4870"/>
<path d="M195.182 223.991C189.996 237.926 193.667 257.508 211.107 258.419C228.546 259.33 234.053 258.419 234.053 258.419L268.014 326.728H275.815L249.198 250.222L216.843 232.462L195.182 223.991Z" fill="#0E538C"/>
<path d="M221.662 144.57C226.251 150.49 237.265 166.885 241.396 185.1C245.526 203.316 256.999 229.729 256.999 229.729H243.69L230.84 186.467L218.908 145.936L221.662 144.57Z" fill="#4EA3FB"/>
<path d="M235.797 120.389C236.485 131.547 231.575 139.197 224.553 139.562C217.532 139.926 212.942 129.816 215.053 120.389C219.964 112.01 226.664 111.327 226.664 111.327H230.886L235.797 120.389Z" fill="#FFE3CA"/>
<path d="M231.116 113.741C229.831 117.657 226.985 121.027 223.314 122.94C219.643 124.852 215.237 125.308 211.244 124.124L221.249 109.961H229.831L238.046 116.428L236.806 123.85C233.594 121.437 231.116 113.741 231.116 113.741Z" fill="#0E538C"/>
<path d="M222.442 138.241C220.974 143.888 221.433 149.808 221.433 150.719C220.056 152.54 213.631 152.085 212.713 145.709C214.09 137.512 216.843 128.404 216.843 128.404L219.138 133.414L222.442 138.241Z" fill="#FFE3CA"/>
<path d="M213.631 140.882C207.894 142.749 188.619 151.401 187.701 153.223C189.078 158.232 195.962 232.462 195.962 232.462H227.169C227.169 232.462 223.039 191.476 225.333 188.744C227.628 186.011 234.971 176.448 234.053 175.082C233.135 173.716 221.478 144.343 221.478 144.343L213.631 140.882Z" fill="#2A94F4"/>
<path d="M187.701 153.223C183.203 156.638 164.296 187.377 170.262 203.771C176.228 220.166 195.732 229.82 195.732 229.82V220.803C195.732 220.803 179.899 208.325 180.817 199.217C181.735 190.11 192.749 171.438 192.749 171.438L187.701 153.223Z" fill="#4EA3FB"/>
<path d="M261.634 237.699H194.08C191.969 237.699 190.225 235.969 190.225 233.874L188.39 190.976C188.39 188.881 190.133 187.15 192.244 187.15H262.552C264.663 187.15 266.407 188.881 266.407 190.976L265.489 233.874C265.489 235.969 263.745 237.699 261.634 237.699Z" fill="#FFBE55"/>
<path d="M274.714 326.728C279.257 327.73 285.407 332.694 288.344 335.244C288.941 335.745 288.573 336.747 287.747 336.747C283.02 336.656 272.327 336.155 269.849 334.06C266.637 331.328 267.555 326.774 267.555 326.774H274.714V326.728ZM308.766 321.081C312.805 322.174 318.128 326.819 320.79 329.324C321.387 329.871 320.928 330.827 320.148 330.781C315.696 330.463 306.15 329.597 303.993 327.548C301.148 324.907 302.204 320.763 302.204 320.763L308.766 321.081Z" fill="#1A87D8"/>
<path d="M227.628 219.256C231.43 219.256 234.512 216.197 234.512 212.425C234.512 208.652 231.43 205.594 227.628 205.594C223.826 205.594 220.744 208.652 220.744 212.425C220.744 216.197 223.826 219.256 227.628 219.256Z" fill="white"/>
<path d="M167.049 309.423L158.33 304.414L149.61 309.423V277.546H167.049V309.423Z" fill="#FFBE55"/>
<path d="M302.25 120.663C302.25 121.528 301.929 122.302 301.378 122.94C301.929 123.532 302.25 124.352 302.25 125.217V128.04C302.25 128.632 302.066 129.224 301.791 129.725C302.066 130.226 302.25 130.818 302.25 131.41V134.234C302.25 136.101 300.735 137.604 298.854 137.604H269.299C267.417 137.604 265.903 136.101 265.903 134.234V131.365C265.903 130.773 266.086 130.181 266.362 129.68C266.086 129.179 265.903 128.587 265.903 127.995V125.171C265.903 124.306 266.224 123.532 266.775 122.894C266.224 122.302 265.903 121.483 265.903 120.617V117.794C265.903 115.927 267.417 114.424 269.299 114.424H298.854C300.735 114.424 302.25 115.927 302.25 117.794V120.663ZM325.839 56.8168C325.839 73.2565 316.201 87.4193 302.25 94.1591V109.46C302.25 110.599 301.286 111.555 300.139 111.555H268.014C266.867 111.555 265.903 110.599 265.903 109.46V94.1591C251.951 87.4648 242.314 73.2565 242.314 56.8168C242.314 33.9105 260.992 15.376 284.076 15.376C307.16 15.376 325.839 33.956 325.839 56.8168Z" fill="#FFBE55"/>
<path opacity="0.23" d="M298.303 123.167H270.308" stroke="#7F7F7F" stroke-width="2" stroke-miterlimit="10" stroke-linecap="round"/>
<path opacity="0.23" d="M298.303 129.543H270.308" stroke="#7F7F7F" stroke-width="2" stroke-miterlimit="10" stroke-linecap="round"/>
<path d="M291.235 61.9165C290.73 61.4611 289.996 61.2334 289.216 61.3245C288.252 61.4156 287.334 61.962 286.738 62.7362C286.233 63.4193 285.958 64.239 285.82 65.0132C285.407 64.7855 284.948 64.5578 284.535 64.2845L284.397 64.1935H283.801L283.663 64.2845C283.204 64.5578 282.791 64.7855 282.378 65.0132C282.24 64.239 281.965 63.4193 281.46 62.7362C280.909 61.962 279.946 61.4156 278.982 61.3245C278.202 61.2334 277.513 61.4611 276.963 61.9165C276.274 62.554 276.045 63.4648 276.274 64.4212C276.641 65.6963 277.697 66.7437 278.936 66.9714C279.716 67.108 280.45 67.0624 281.231 66.8803C282.378 81.6806 282.837 96.663 282.516 111.463H283.892C284.214 96.6175 283.755 81.5895 282.607 66.7892C282.607 66.6526 282.607 66.516 282.562 66.3793C283.112 66.1516 283.617 65.8784 284.122 65.5596C284.627 65.8329 285.131 66.1516 285.682 66.3793C285.682 66.516 285.682 66.6526 285.636 66.7892C284.489 81.5895 284.03 96.6175 284.351 111.463H285.728C285.407 96.663 285.866 81.635 287.013 66.8803C287.747 67.0624 288.528 67.1535 289.308 66.9714C290.501 66.7437 291.602 65.6963 291.97 64.4212C292.153 63.4648 291.924 62.554 291.235 61.9165ZM279.165 65.6962C278.477 65.5596 277.789 64.8765 277.559 64.1024C277.467 63.7836 277.422 63.2827 277.835 62.9639C278.064 62.7362 278.385 62.6907 278.615 62.6907C278.661 62.6907 278.707 62.6907 278.798 62.6907C279.349 62.7362 279.946 63.055 280.313 63.5559C280.726 64.1024 280.955 64.7855 281.047 65.5596C280.405 65.7418 279.808 65.7873 279.165 65.6962ZM290.593 64.1024C290.363 64.8765 289.721 65.5596 288.986 65.6962C288.39 65.8329 287.747 65.7418 287.151 65.5596C287.288 64.7855 287.472 64.1024 287.885 63.5559C288.206 63.1005 288.803 62.7817 289.4 62.6907C289.675 62.6451 290.042 62.6906 290.363 62.9639C290.685 63.2827 290.639 63.7836 290.593 64.1024Z" fill="white"/>
<path d="M273.062 22.9805C262.966 26.6236 246.444 39.83 247.821 61.2335" stroke="white" stroke-width="4" stroke-miterlimit="10" stroke-linecap="round"/>
<path d="M217.761 97.2095C224.224 97.2095 229.464 92.0103 229.464 85.5969C229.464 79.1835 224.224 73.9844 217.761 73.9844C211.298 73.9844 206.058 79.1835 206.058 85.5969C206.058 92.0103 211.298 97.2095 217.761 97.2095Z" fill="#FFBE55"/>
<path d="M343.048 52.5815C345.963 52.5815 348.326 50.2368 348.326 47.3444C348.326 44.4521 345.963 42.1074 343.048 42.1074C340.134 42.1074 337.771 44.4521 337.771 47.3444C337.771 50.2368 340.134 52.5815 343.048 52.5815Z" fill="#FFBE55"/>
<path d="M325.838 138.196C330.654 138.196 334.558 134.322 334.558 129.543C334.558 124.764 330.654 120.891 325.838 120.891C321.022 120.891 317.118 124.764 317.118 129.543C317.118 134.322 321.022 138.196 325.838 138.196Z" fill="#FFBE55"/>
<path d="M242.314 17.5159C247.129 17.5159 251.033 13.6421 251.033 8.86342C251.033 4.08479 247.129 0.210938 242.314 0.210938C237.498 0.210938 233.594 4.08479 233.594 8.86342C233.594 13.6421 237.498 17.5159 242.314 17.5159Z" fill="#FFBE55"/>
<path opacity="0.14" d="M167.049 309.423L158.33 304.414L149.61 309.423V277.546H167.049V309.423Z" fill="#0C0C0C"/>
</svg>
