<svg width="262" height="150" viewBox="0 0 262 150" fill="none" xmlns="http://www.w3.org/2000/svg">
<path d="M11.9295 100.544L0.876777 62.2846H4.94184L13.8956 93.8751L22.7962 62.3111L26.8878 62.2846L35.8416 93.8751L44.7422 62.2846H48.8338L37.8077 100.544H33.8755L24.842 69.1659L15.8617 100.544H11.9295ZM62.25 101.341C59.3982 101.341 56.9627 100.695 54.9435 99.4015C52.9242 98.1085 51.3744 96.3195 50.2939 94.0345C49.2134 91.7496 48.6732 89.1281 48.6732 86.1701C48.6732 83.159 49.2223 80.5198 50.3205 78.2525C51.4187 75.9853 52.9774 74.2229 54.9966 72.9653C57.0336 71.69 59.4513 71.0523 62.25 71.0523C65.1194 71.0523 67.5638 71.6989 69.583 72.9919C71.62 74.2672 73.1698 76.0473 74.2326 78.3322C75.3131 80.5995 75.8533 83.2121 75.8533 86.1701C75.8533 89.1813 75.3131 91.8293 74.2326 94.1142C73.1521 96.3815 71.5934 98.1527 69.5564 99.428C67.5195 100.703 65.084 101.341 62.25 101.341ZM62.25 97.5948C65.4382 97.5948 67.8117 96.5409 69.3704 94.4331C70.9292 92.3076 71.7085 89.5532 71.7085 86.1701C71.7085 82.6984 70.9203 79.9352 69.3439 77.8806C67.7852 75.8259 65.4205 74.7986 62.25 74.7986C60.1067 74.7986 58.3355 75.2857 56.9361 76.2599C55.5546 77.2164 54.5184 78.5537 53.8276 80.2718C53.1545 81.9722 52.818 83.9383 52.818 86.1701C52.818 89.6241 53.615 92.3961 55.2092 94.4862C56.8033 96.5586 59.1502 97.5948 62.25 97.5948ZM82.2456 100.544V61.4875H86.1513V100.544H82.2456ZM96.9595 100.544V69.7239C96.9595 68.98 96.9949 68.2449 97.0657 67.5187C97.1543 66.7924 97.3226 66.1016 97.5705 65.4463C97.8185 64.7732 98.2082 64.1533 98.7396 63.5864C99.3241 62.9488 99.9618 62.4883 100.653 62.2049C101.343 61.9037 102.061 61.7089 102.805 61.6203C103.566 61.5318 104.31 61.4875 105.036 61.4875H108.703V64.7821H105.302C103.814 64.7821 102.698 65.1452 101.954 65.8714C101.228 66.5976 100.865 67.7401 100.865 69.2988V100.544H96.9595ZM91.9911 75.1971V71.8494H108.703V75.1971H91.9911ZM123.661 101.314C120.295 101.314 117.523 100.588 115.345 99.1358C113.184 97.6833 111.855 95.6641 111.359 93.0781L115.345 92.4138C115.77 94.0434 116.735 95.3453 118.241 96.3195C119.764 97.276 121.642 97.7542 123.873 97.7542C126.052 97.7542 127.77 97.3025 129.028 96.3992C130.285 95.4781 130.914 94.2294 130.914 92.6529C130.914 91.7673 130.711 91.05 130.303 90.5009C129.913 89.9341 129.108 89.4115 127.885 88.9333C126.663 88.455 124.839 87.8882 122.412 87.2329C119.808 86.5244 117.771 85.8159 116.301 85.1073C114.831 84.3988 113.786 83.5841 113.166 82.663C112.546 81.7242 112.236 80.5818 112.236 79.2356C112.236 77.606 112.697 76.1802 113.618 74.958C114.539 73.7181 115.814 72.7616 117.444 72.0885C119.073 71.3977 120.969 71.0523 123.13 71.0523C125.29 71.0523 127.221 71.4066 128.922 72.1151C130.64 72.8059 132.021 73.7801 133.066 75.0377C134.111 76.2953 134.731 77.7566 134.926 79.4216L130.941 80.1389C130.675 78.4562 129.834 77.1278 128.417 76.1536C127.017 75.1617 125.237 74.648 123.076 74.6126C121.039 74.5594 119.383 74.9491 118.108 75.7816C116.833 76.5964 116.195 77.6857 116.195 79.0496C116.195 79.8113 116.425 80.4666 116.886 81.0157C117.346 81.5471 118.179 82.0519 119.383 82.5302C120.605 83.0084 122.341 83.5309 124.591 84.0977C127.23 84.7708 129.302 85.4793 130.808 86.2232C132.314 86.9672 133.385 87.844 134.023 88.8536C134.66 89.8632 134.979 91.1119 134.979 92.5998C134.979 95.3098 133.97 97.4442 131.95 99.0029C129.949 100.544 127.186 101.314 123.661 101.314ZM154.353 100.544V69.7239C154.353 68.98 154.388 68.2449 154.459 67.5187C154.548 66.7924 154.716 66.1016 154.964 65.4463C155.212 64.7732 155.601 64.1533 156.133 63.5864C156.717 62.9488 157.355 62.4883 158.046 62.2049C158.737 61.9037 159.454 61.7089 160.198 61.6203C160.96 61.5318 161.703 61.4875 162.43 61.4875H166.096V64.7821H162.695C161.207 64.7821 160.092 65.1452 159.348 65.8714C158.621 66.5976 158.258 67.7401 158.258 69.2988V100.544H154.353ZM149.384 75.1971V71.8494H166.096V75.1971H149.384ZM170.347 100.544V71.8494H173.854V78.7574L173.163 77.854C173.482 77.0038 173.898 76.2244 174.412 75.5159C174.926 74.7897 175.483 74.1963 176.086 73.7358C176.83 73.0804 177.698 72.5845 178.689 72.2479C179.681 71.8937 180.682 71.69 181.692 71.6369C182.701 71.566 183.622 71.6369 184.455 71.8494V75.5159C183.41 75.2502 182.267 75.1882 181.028 75.3299C179.788 75.4717 178.645 75.9676 177.6 76.8178C176.644 77.5617 175.926 78.4562 175.448 79.5013C174.97 80.5286 174.651 81.6268 174.492 82.7958C174.332 83.9472 174.252 85.0896 174.252 86.2232V100.544H170.347ZM200.959 101.341C198.107 101.341 195.672 100.695 193.652 99.4015C191.633 98.1085 190.083 96.3195 189.003 94.0345C187.922 91.7496 187.382 89.1281 187.382 86.1701C187.382 83.159 187.931 80.5198 189.029 78.2525C190.128 75.9853 191.686 74.2229 193.706 72.9653C195.742 71.69 198.16 71.0523 200.959 71.0523C203.828 71.0523 206.273 71.6989 208.292 72.9919C210.329 74.2672 211.879 76.0473 212.942 78.3322C214.022 80.5995 214.562 83.2121 214.562 86.1701C214.562 89.1813 214.022 91.8293 212.942 94.1142C211.861 96.3815 210.302 98.1527 208.265 99.428C206.228 100.703 203.793 101.341 200.959 101.341ZM200.959 97.5948C204.147 97.5948 206.521 96.5409 208.079 94.4331C209.638 92.3076 210.417 89.5532 210.417 86.1701C210.417 82.6984 209.629 79.9352 208.053 77.8806C206.494 75.8259 204.129 74.7986 200.959 74.7986C198.816 74.7986 197.044 75.2857 195.645 76.2599C194.263 77.2164 193.227 78.5537 192.537 80.2718C191.863 81.9722 191.527 83.9383 191.527 86.1701C191.527 89.6241 192.324 92.3961 193.918 94.4862C195.512 96.5586 197.859 97.5948 200.959 97.5948ZM254.644 100.544L254.671 81.7065C254.671 79.4924 254.051 77.7566 252.811 76.499C251.589 75.2237 250.03 74.586 248.135 74.586C247.054 74.586 246 74.834 244.973 75.3299C243.946 75.8259 243.095 76.623 242.422 77.7212C241.767 78.8193 241.439 80.2541 241.439 82.0253L239.128 81.3611C239.075 79.3064 239.473 77.5086 240.323 75.9676C241.191 74.4266 242.378 73.231 243.884 72.3808C245.407 71.5129 247.125 71.0789 249.038 71.0789C251.925 71.0789 254.237 71.9734 255.973 73.7624C257.708 75.5336 258.576 77.9337 258.576 80.9626L258.55 100.544H254.644ZM220.397 100.544V71.8494H223.904V78.9168H224.329V100.544H220.397ZM237.56 100.544L237.587 81.9722C237.587 79.6873 236.976 77.8894 235.754 76.5787C234.549 75.2502 232.955 74.586 230.971 74.586C228.987 74.586 227.384 75.268 226.162 76.6318C224.94 77.978 224.329 79.7758 224.329 82.0253L221.991 80.75C221.991 78.9079 222.425 77.2606 223.293 75.8082C224.161 74.338 225.347 73.1867 226.853 72.3542C228.358 71.504 230.068 71.0789 231.981 71.0789C233.805 71.0789 235.426 71.4686 236.843 72.2479C238.278 73.0273 239.402 74.1609 240.217 75.6488C241.032 77.1366 241.439 78.9433 241.439 81.0689L241.413 100.544H237.56Z" fill="white"/>
<rect x="28.7831" y="111.442" width="203.696" height="38.3775" fill="black"/>
<path d="M41.872 138.133L37.2667 122.191H38.9605L42.6912 135.354L46.3998 122.202L48.1047 122.191L51.8354 135.354L55.544 122.191H57.2488L52.6546 138.133H51.0162L47.2522 125.059L43.5104 138.133H41.872ZM61.3722 138.133L66.8632 122.191H69.0219L74.5128 138.133H72.819L67.6049 123.099H68.247L63.066 138.133H61.3722ZM63.8188 134.269V132.742H72.0552V134.269H63.8188ZM81.6043 138.133V122.191H83.2316V136.572H90.8038V138.133H81.6043ZM97.7835 138.133V122.191H99.4109V136.572H106.983V138.133H97.7835ZM126.149 140.314V137.79H127.776V140.314H126.149ZM126.149 122.524V119.988H127.776V122.524H126.149ZM127.156 138.465C126.101 138.465 125.149 138.277 124.3 137.9C123.459 137.524 122.761 136.993 122.208 136.306C121.662 135.62 121.304 134.808 121.134 133.871L122.717 133.594C122.961 134.612 123.485 135.421 124.289 136.018C125.101 136.609 126.079 136.904 127.223 136.904C128.381 136.904 129.319 136.624 130.035 136.063C130.75 135.494 131.108 134.753 131.108 133.837C131.108 133.159 130.909 132.616 130.511 132.21C130.112 131.804 129.437 131.457 128.485 131.17L124.942 130.062C122.802 129.391 121.732 128.121 121.732 126.254C121.732 125.383 121.946 124.62 122.374 123.963C122.809 123.298 123.411 122.782 124.178 122.413C124.953 122.044 125.857 121.863 126.891 121.87C127.902 121.87 128.806 122.062 129.603 122.446C130.407 122.822 131.068 123.357 131.584 124.051C132.101 124.745 132.444 125.568 132.614 126.52L130.987 126.83C130.883 126.151 130.643 125.557 130.267 125.048C129.898 124.538 129.422 124.143 128.839 123.863C128.256 123.575 127.606 123.428 126.891 123.42C126.212 123.42 125.606 123.538 125.075 123.774C124.544 124.011 124.123 124.339 123.813 124.76C123.51 125.173 123.359 125.649 123.359 126.188C123.359 126.778 123.569 127.28 123.99 127.693C124.418 128.099 125.094 128.443 126.016 128.723L129.06 129.642C130.345 130.026 131.271 130.542 131.839 131.192C132.407 131.841 132.692 132.708 132.692 133.793C132.692 134.731 132.463 135.55 132.005 136.251C131.548 136.952 130.902 137.498 130.068 137.889C129.241 138.273 128.271 138.465 127.156 138.465ZM144.091 138.133V123.752H138.523V122.191H151.287V123.752H145.718V138.133H144.091ZM157.933 138.133V122.191H164.088C164.243 122.191 164.417 122.199 164.609 122.214C164.808 122.221 165.007 122.243 165.206 122.28C166.04 122.405 166.745 122.697 167.321 123.155C167.904 123.605 168.343 124.173 168.638 124.859C168.941 125.546 169.092 126.306 169.092 127.14C169.092 128.343 168.775 129.387 168.14 130.273C167.505 131.158 166.598 131.716 165.417 131.944L164.852 132.077H159.56V138.133H157.933ZM167.587 138.133L164.443 131.646L166.003 131.048L169.457 138.133H167.587ZM159.56 130.527H164.044C164.177 130.527 164.332 130.52 164.509 130.505C164.686 130.491 164.86 130.465 165.029 130.428C165.575 130.31 166.022 130.085 166.369 129.753C166.723 129.42 166.985 129.026 167.155 128.568C167.332 128.11 167.42 127.634 167.42 127.14C167.42 126.645 167.332 126.169 167.155 125.712C166.985 125.247 166.723 124.848 166.369 124.516C166.022 124.184 165.575 123.959 165.029 123.841C164.86 123.804 164.686 123.782 164.509 123.774C164.332 123.76 164.177 123.752 164.044 123.752H159.56V130.527ZM176.772 138.133V122.191H186.735V123.752H178.399V129.265H185.407V130.826H178.399V136.572H186.735V138.133H176.772ZM194.27 138.133V122.191H204.233V123.752H195.897V129.265H202.905V130.826H195.897V136.572H204.233V138.133H194.27ZM216.008 138.133V123.752H210.44V122.191H223.204V123.752H217.636V138.133H216.008Z" fill="white"/>
<rect x="31.9197" y="113.841" width="197.423" height="33.5803" stroke="white" stroke-width="0.369014"/>
<rect x="-0.040866" y="1.5346" width="32.0136" height="32.9046" transform="matrix(0.840011 0.542569 -0.867697 0.497093 133.548 0.793933)" stroke="white" stroke-width="2.95211"/>
<rect x="-0.040866" y="1.5346" width="32.0136" height="32.9046" transform="matrix(0.840011 0.542569 -0.867697 0.497093 133.548 9.61522)" stroke="white" stroke-width="2.95211"/>
<rect x="-0.040866" y="1.5346" width="32.0136" height="32.9046" transform="matrix(0.840011 0.542569 -0.867697 0.497093 133.548 18.7383)" stroke="white" stroke-width="2.95211"/>
<rect x="131.86" y="103.75" width="2.21408" height="27.8632" transform="rotate(45 131.86 103.75)" fill="#FFA500"/>
<rect x="137.72" y="109.609" width="2.21408" height="8.28928" transform="rotate(135 137.72 109.609)" fill="#FFA500"/>
<rect x="136.197" y="111.134" width="2.21408" height="18.2244" transform="rotate(-135 136.197 111.134)" fill="#FFA500"/>
<path d="M148.29 102.608L147.824 98.0038L143.218 98.4603L143.076 97.0442L149.102 96.4402L149.706 102.466L148.29 102.608Z" fill="#FFA500"/>
</svg>
